  0
SECTION
  2
HEADER
  9
$ACADVER
  1
AC1021
  9
$ACADMAINTVER
 70
    25
  9
$DWGCODEPAGE
  3
ANSI_1252
  9
$LASTSAVEDBY
  1
DDB
  9
$INSBASE
 10
0.0
 20
0.0
 30
0.0
  9
$EXTMIN
 10
-17.90056162872463
 20
-51.85008556959534
 30
0.0
  9
$EXTMAX
 10
17.90056162872463
 20
25.35008556959528
 30
0.0000000000000009
  9
$LIMMIN
 10
0.0
 20
0.0
  9
$LIMMAX
 10
12.0
 20
9.0
  9
$ORTHOMODE
 70
     0
  9
$REGENMODE
 70
     1
  9
$FILLMODE
 70
     1
  9
$QTEXTMODE
 70
     0
  9
$MIRRTEXT
 70
     0
  9
$LTSCALE
 40
1.0
  9
$ATTMODE
 70
     1
  9
$TEXTSIZE
 40
0.2
  9
$TRACEWID
 40
0.05
  9
$TEXTSTYLE
  7
Standard
  9
$CLAYER
  8
0
  9
$CELTYPE
  6
ByLayer
  9
$CECOLOR
 62
   256
  9
$CELTSCALE
 40
1.0
  9
$DISPSILH
 70
     0
  9
$DIMSCALE
 40
1.0
  9
$DIMASZ
 40
2.0
  9
$DIMEXO
 40
1.0
  9
$DIMDLI
 40
0.38
  9
$DIMRND
 40
0.0
  9
$DIMDLE
 40
0.0
  9
$DIMEXE
 40
1.0
  9
$DIMTP
 40
0.0
  9
$DIMTM
 40
0.0
  9
$DIMTXT
 40
2.0
  9
$DIMCEN
 40
0.09
  9
$DIMTSZ
 40
0.0
  9
$DIMTOL
 70
     0
  9
$DIMLIM
 70
     0
  9
$DIMTIH
 70
     1
  9
$DIMTOH
 70
     1
  9
$DIMSE1
 70
     0
  9
$DIMSE2
 70
     0
  9
$DIMTAD
 70
     1
  9
$DIMZIN
 70
     0
  9
$DIMBLK
  1

  9
$DIMASO
 70
     1
  9
$DIMSHO
 70
     1
  9
$DIMPOST
  1

  9
$DIMAPOST
  1

  9
$DIMALT
 70
     0
  9
$DIMALTD
 70
     2
  9
$DIMALTF
 40
25.4
  9
$DIMLFAC
 40
1.0
  9
$DIMTOFL
 70
     0
  9
$DIMTVP
 40
0.0
  9
$DIMTIX
 70
     0
  9
$DIMSOXD
 70
     0
  9
$DIMSAH
 70
     0
  9
$DIMBLK1
  1

  9
$DIMBLK2
  1

  9
$DIMSTYLE
  2
Standard
  9
$DIMCLRD
 70
     0
  9
$DIMCLRE
 70
     0
  9
$DIMCLRT
 70
     0
  9
$DIMTFAC
 40
1.0
  9
$DIMGAP
 40
1.0
  9
$DIMJUST
 70
     0
  9
$DIMSD1
 70
     0
  9
$DIMSD2
 70
     0
  9
$DIMTOLJ
 70
     1
  9
$DIMTZIN
 70
     0
  9
$DIMALTZ
 70
     0
  9
$DIMALTTZ
 70
     0
  9
$DIMUPT
 70
     0
  9
$DIMDEC
 70
     2
  9
$DIMTDEC
 70
     4
  9
$DIMALTU
 70
     2
  9
$DIMALTTD
 70
     2
  9
$DIMTXSTY
  7
Standard
  9
$DIMAUNIT
 70
     0
  9
$DIMADEC
 70
     0
  9
$DIMALTRND
 40
0.0
  9
$DIMAZIN
 70
     0
  9
$DIMDSEP
 70
    46
  9
$DIMATFIT
 70
     3
  9
$DIMFRAC
 70
     0
  9
$DIMLDRBLK
  1

  9
$DIMLUNIT
 70
     2
  9
$DIMLWD
 70
    -2
  9
$DIMLWE
 70
    -2
  9
$DIMTMOVE
 70
     0
  9
$DIMFXL
 40
1.0
  9
$DIMFXLON
 70
     0
  9
$DIMJOGANG
 40
0.7853981633974483
  9
$DIMTFILL
 70
     0
  9
$DIMTFILLCLR
 70
     0
  9
$DIMARCSYM
 70
     0
  9
$DIMLTYPE
  6

  9
$DIMLTEX1
  6

  9
$DIMLTEX2
  6

  9
$LUNITS
 70
     2
  9
$LUPREC
 70
     4
  9
$SKETCHINC
 40
0.1
  9
$FILLETRAD
 40
0.0
  9
$AUNITS
 70
     0
  9
$AUPREC
 70
     0
  9
$MENU
  1
.
  9
$ELEVATION
 40
0.0
  9
$PELEVATION
 40
0.0
  9
$THICKNESS
 40
0.0
  9
$LIMCHECK
 70
     0
  9
$CHAMFERA
 40
0.0
  9
$CHAMFERB
 40
0.0
  9
$CHAMFERC
 40
0.0
  9
$CHAMFERD
 40
0.0
  9
$SKPOLY
 70
     0
  9
$TDCREATE
 40
2452642.855050926
  9
$TDUCREATE
 40
2452643.063384259
  9
$TDUPDATE
 40
2457723.266362211
  9
$TDUUPDATE
 40
2457723.474695544
  9
$TDINDWG
 40
0.0041983796
  9
$TDUSRTIMER
 40
2457723.474354548
  9
$USRTIMER
 70
     1
  9
$ANGBASE
 50
0.0
  9
$ANGDIR
 70
     0
  9
$PDMODE
 70
     0
  9
$PDSIZE
 40
0.0
  9
$PLINEWID
 40
0.0
  9
$SPLFRAME
 70
     0
  9
$SPLINETYPE
 70
     6
  9
$SPLINESEGS
 70
     8
  9
$HANDSEED
  5
219
  9
$SURFTAB1
 70
     6
  9
$SURFTAB2
 70
     6
  9
$SURFTYPE
 70
     6
  9
$SURFU
 70
     6
  9
$SURFV
 70
     6
  9
$UCSBASE
  2

  9
$UCSNAME
  2

  9
$UCSORG
 10
0.0
 20
0.0
 30
0.0
  9
$UCSXDIR
 10
1.0
 20
0.0
 30
0.0
  9
$UCSYDIR
 10
0.0
 20
1.0
 30
0.0
  9
$UCSORTHOREF
  2

  9
$UCSORTHOVIEW
 70
     0
  9
$UCSORGTOP
 10
0.0
 20
0.0
 30
0.0
  9
$UCSORGBOTTOM
 10
0.0
 20
0.0
 30
0.0
  9
$UCSORGLEFT
 10
0.0
 20
0.0
 30
0.0
  9
$UCSORGRIGHT
 10
0.0
 20
0.0
 30
0.0
  9
$UCSORGFRONT
 10
0.0
 20
0.0
 30
0.0
  9
$UCSORGBACK
 10
0.0
 20
0.0
 30
0.0
  9
$PUCSBASE
  2

  9
$PUCSNAME
  2

  9
$PUCSORG
 10
0.0
 20
0.0
 30
0.0
  9
$PUCSXDIR
 10
1.0
 20
0.0
 30
0.0
  9
$PUCSYDIR
 10
0.0
 20
1.0
 30
0.0
  9
$PUCSORTHOREF
  2

  9
$PUCSORTHOVIEW
 70
     0
  9
$PUCSORGTOP
 10
0.0
 20
0.0
 30
0.0
  9
$PUCSORGBOTTOM
 10
0.0
 20
0.0
 30
0.0
  9
$PUCSORGLEFT
 10
0.0
 20
0.0
 30
0.0
  9
$PUCSORGRIGHT
 10
0.0
 20
0.0
 30
0.0
  9
$PUCSORGFRONT
 10
0.0
 20
0.0
 30
0.0
  9
$PUCSORGBACK
 10
0.0
 20
0.0
 30
0.0
  9
$USERI1
 70
     0
  9
$USERI2
 70
     0
  9
$USERI3
 70
     0
  9
$USERI4
 70
     0
  9
$USERI5
 70
     0
  9
$USERR1
 40
0.0
  9
$USERR2
 40
0.0
  9
$USERR3
 40
0.0
  9
$USERR4
 40
0.0
  9
$USERR5
 40
0.0
  9
$WORLDVIEW
 70
     1
  9
$SHADEDGE
 70
     3
  9
$SHADEDIF
 70
    70
  9
$TILEMODE
 70
     1
  9
$MAXACTVP
 70
    64
  9
$PINSBASE
 10
0.0
 20
0.0
 30
0.0
  9
$PLIMCHECK
 70
     0
  9
$PEXTMIN
 10
0.0
 20
0.0
 30
0.0
  9
$PEXTMAX
 10
0.0
 20
0.0
 30
0.0
  9
$PLIMMIN
 10
0.0
 20
0.0
  9
$PLIMMAX
 10
0.0
 20
0.0
  9
$UNITMODE
 70
     0
  9
$VISRETAIN
 70
     1
  9
$PLINEGEN
 70
     0
  9
$PSLTSCALE
 70
     1
  9
$TREEDEPTH
 70
  3020
  9
$CMLSTYLE
  2
Standard
  9
$CMLJUST
 70
     0
  9
$CMLSCALE
 40
1.0
  9
$PROXYGRAPHICS
 70
     1
  9
$MEASUREMENT
 70
     0
  9
$CELWEIGHT
370
    -1
  9
$ENDCAPS
280
     0
  9
$JOINSTYLE
280
     0
  9
$LWDISPLAY
290
     0
  9
$INSUNITS
 70
     1
  9
$HYPERLINKBASE
  1

  9
$STYLESHEET
  1

  9
$XEDIT
290
     1
  9
$CEPSNTYPE
380
     0
  9
$PSTYLEMODE
290
     1
  9
$FINGERPRINTGUID
  2
{FDEAD576-A652-11D2-9A35-0060089B3A3F}
  9
$VERSIONGUID
  2
{FBC2AE19-5C5C-49EC-81BC-71B1A3362A02}
  9
$EXTNAMES
290
     1
  9
$PSVPSCALE
 40
0.0
  9
$OLESTARTUP
290
     0
  9
$SORTENTS
280
   127
  9
$INDEXCTL
280
     0
  9
$HIDETEXT
280
     1
  9
$XCLIPFRAME
290
     0
  9
$HALOGAP
280
     0
  9
$OBSCOLOR
 70
   257
  9
$OBSLTYPE
280
     0
  9
$INTERSECTIONDISPLAY
280
     0
  9
$INTERSECTIONCOLOR
 70
   257
  9
$DIMASSOC
280
     2
  9
$PROJECTNAME
  1

  9
$CAMERADISPLAY
290
     0
  9
$LENSLENGTH
 40
50.0
  9
$CAMERAHEIGHT
 40
0.0
  9
$STEPSPERSEC
 40
2.0
  9
$STEPSIZE
 40
6.0
  9
$3DDWFPREC
 40
2.0
  9
$PSOLWIDTH
 40
0.25
  9
$PSOLHEIGHT
 40
4.0
  9
$LOFTANG1
 40
1.570796326794897
  9
$LOFTANG2
 40
1.570796326794897
  9
$LOFTMAG1
 40
0.0
  9
$LOFTMAG2
 40
0.0
  9
$LOFTPARAM
 70
     7
  9
$LOFTNORMALS
280
     1
  9
$LATITUDE
 40
37.795
  9
$LONGITUDE
 40
-122.394
  9
$NORTHDIRECTION
 40
0.0
  9
$TIMEZONE
 70
 -8000
  9
$LIGHTGLYPHDISPLAY
280
     1
  9
$TILEMODELIGHTSYNCH
280
     1
  9
$CMATERIAL
347
96
  9
$SOLIDHIST
280
     1
  9
$SHOWHIST
280
     1
  9
$DWFFRAME
280
     2
  9
$DGNFRAME
280
     0
  9
$REALWORLDSCALE
290
     1
  9
$INTERFERECOLOR
 62
     1
  9
$CSHADOW
280
     0
  9
$SHADOWPLANELOCATION
 40
0.0
  0
ENDSEC
  0
SECTION
  2
CLASSES
  0
CLASS
  1
ACDBDICTIONARYWDFLT
  2
AcDbDictionaryWithDefault
  3
ObjectDBX Classes
 90
        0
 91
        6
280
     0
281
     0
  0
CLASS
  1
ACDBPLACEHOLDER
  2
AcDbPlaceHolder
  3
ObjectDBX Classes
 90
        0
 91
        1
280
     0
281
     0
  0
CLASS
  1
LAYOUT
  2
AcDbLayout
  3
ObjectDBX Classes
 90
        0
 91
        1
280
     0
281
     0
  0
CLASS
  1
DICTIONARYVAR
  2
AcDbDictionaryVar
  3
ObjectDBX Classes
 90
        0
 91
        6
280
     0
281
     0
  0
CLASS
  1
TABLESTYLE
  2
AcDbTableStyle
  3
ObjectDBX Classes
 90
     4095
 91
        6
280
     0
281
     0
  0
CLASS
  1
MATERIAL
  2
AcDbMaterial
  3
ObjectDBX Classes
 90
     1153
 91
        6
280
     0
281
     0
  0
CLASS
  1
VISUALSTYLE
  2
AcDbVisualStyle
  3
ObjectDBX Classes
 90
     4095
 91
        6
280
     0
281
     0
  0
CLASS
  1
SCALE
  2
AcDbScale
  3
ObjectDBX Classes
 90
     1153
 91
        6
280
     0
281
     0
  0
CLASS
  1
CELLSTYLEMAP
  2
AcDbCellStyleMap
  3
ObjectDBX Classes
 90
     1152
 91
        6
280
     0
281
     0
  0
CLASS
  1
RASTERVARIABLES
  2
AcDbRasterVariables
  3
ISM
 90
        0
 91
        6
280
     0
281
     0
  0
CLASS
  1
SUN
  2
AcDbSun
  3
SCENEOE
 90
     1153
 91
        6
280
     0
281
     0
  0
CLASS
  1
MLEADERSTYLE
  2
AcDbMLeaderStyle
  3
ACDB_MLEADERSTYLE_CLASS
 90
     4095
 91
        6
280
     0
281
     0
  0
CLASS
  1
GEODATA
  2
AcDbGeoData
  3
ObjectDBX Classes
 90
     4095
 91
        5
280
     0
281
     0
  0
CLASS
  1
TCOPTIONALDATA
  2
TcOptionalData
  3
ExTcadCustObjs|Description: TurboCAD extension data object
 90
     4095
 91
        2
280
     1
281
     0
  0
ENDSEC
  0
SECTION
  2
TABLES
  0
TABLE
  2
VPORT
  5
8
330
0
100
AcDbSymbolTable
 70
     1
  0
VPORT
  5
94
330
8
100
AcDbSymbolTableRecord
100
AcDbViewportTableRecord
  2
*Active
 70
     0
 10
0.0
 20
0.0
 11
1.0
 21
1.0
 12
0.0
 22
-7.498227146048748
 13
0.0
 23
0.0
 14
0.5
 24
0.5
 15
0.5
 25
0.5
 16
0.0
 26
0.0
 36
1.0
 17
0.0
 27
-5.751333599205509
 37
0.0
 40
78.74327848229306
 41
2.01813784764208
 42
50.0
 43
0.0
 44
0.0
 50
0.0
 51
0.0
 71
    16
 72
  1000
 73
     1
 74
     3
 75
     0
 76
     0
 77
     0
 78
     0
281
     0
 65
     1
110
0.0
120
0.0
130
0.0
111
1.0
121
0.0
131
0.0
112
0.0
122
1.0
132
0.0
 79
     0
146
0.0
348
9F
 60
     2
 61
     5
292
     1
282
     1
141
0.0
142
0.0
 63
   250
421
  3355443
361
ED
  0
ENDTAB
  0
TABLE
  2
LTYPE
  5
5
330
0
100
AcDbSymbolTable
 70
     1
  0
LTYPE
  5
14
330
5
100
AcDbSymbolTableRecord
100
AcDbLinetypeTableRecord
  2
ByBlock
 70
     0
  3

 72
    65
 73
     0
 40
0.0
  0
LTYPE
  5
15
330
5
100
AcDbSymbolTableRecord
100
AcDbLinetypeTableRecord
  2
ByLayer
 70
     0
  3

 72
    65
 73
     0
 40
0.0
  0
LTYPE
  5
16
330
5
100
AcDbSymbolTableRecord
100
AcDbLinetypeTableRecord
  2
Continuous
 70
     0
  3
Solid line
 72
    65
 73
     0
 40
0.0
  0
ENDTAB
  0
TABLE
  2
LAYER
  5
2
102
{ACAD_XDICTIONARY
360
15E
102
}
330
0
100
AcDbSymbolTable
 70
     6
  0
LAYER
  5
10
330
2
100
AcDbSymbolTableRecord
100
AcDbLayerTableRecord
  2
0
 70
     0
 62
     7
  6
Continuous
370
    -3
390
F
347
98
  0
LAYER
  5
16C
330
2
100
AcDbSymbolTableRecord
100
AcDbLayerTableRecord
  2
EMT12_Outline
 70
     0
 62
     4
  6
Continuous
370
    -3
390
F
347
98
1001
AcAecLayerStandard
1000

1000

  0
LAYER
  5
170
330
2
100
AcDbSymbolTableRecord
100
AcDbLayerTableRecord
  2
Holes
 70
     0
 62
     1
  6
Continuous
290
     0
370
    -3
390
F
347
98
1001
AcAecLayerStandard
1000

1000

  0
LAYER
  5
173
330
2
100
AcDbSymbolTableRecord
100
AcDbLayerTableRecord
  2
EMT34_Outline
 70
     0
 62
    40
  6
Continuous
290
     0
370
    -3
390
F
347
98
1001
AcAecLayerStandard
1000

1000

  0
LAYER
  5
1AC
330
2
100
AcDbSymbolTableRecord
100
AcDbLayerTableRecord
  2
PVC12_Outline
 70
     0
 62
    60
  6
Continuous
290
     0
370
    -3
390
F
347
98
1001
AcAecLayerStandard
1000

1000

  0
LAYER
  5
1E9
330
2
100
AcDbSymbolTableRecord
100
AcDbLayerTableRecord
  2
EMT34_V2_Outline
 70
     0
 62
    64
  6
Continuous
290
     0
370
    -3
390
F
347
98
1001
AcAecLayerStandard
1000

1000

  0
ENDTAB
  0
TABLE
  2
STYLE
  5
3
330
0
100
AcDbSymbolTable
 70
     1
  0
STYLE
  5
11
330
3
100
AcDbSymbolTableRecord
100
AcDbTextStyleTableRecord
  2
Standard
 70
     0
 40
0.0
 41
1.0
 50
0.0
 71
     0
 42
0.2
  3
arial.ttf
  4

1001
ACAD
1000
Arial
1071
        0
  0
ENDTAB
  0
TABLE
  2
VIEW
  5
6
330
0
100
AcDbSymbolTable
 70
     0
  0
ENDTAB
  0
TABLE
  2
UCS
  5
7
330
0
100
AcDbSymbolTable
 70
     0
  0
ENDTAB
  0
TABLE
  2
APPID
  5
9
330
0
100
AcDbSymbolTable
 70
     4
  0
APPID
  5
12
330
9
100
AcDbSymbolTableRecord
100
AcDbRegAppTableRecord
  2
ACAD
 70
     0
  0
APPID
  5
126
330
9
100
AcDbSymbolTableRecord
100
AcDbRegAppTableRecord
  2
AcadAnnotative
 70
     0
  0
APPID
  5
135
330
9
100
AcDbSymbolTableRecord
100
AcDbRegAppTableRecord
  2
AcAecLayerStandard
 70
     0
  0
APPID
  5
1E5
330
9
100
AcDbSymbolTableRecord
100
AcDbRegAppTableRecord
  2
ACAD_MLEADERVER
 70
     0
  0
ENDTAB
  0
TABLE
  2
DIMSTYLE
  5
A
330
0
100
AcDbSymbolTable
 70
     1
100
AcDbDimStyleTable
  0
DIMSTYLE
105
27
330
A
100
AcDbSymbolTableRecord
100
AcDbDimStyleTableRecord
  2
Standard
 70
     0
 41
2.0
 42
1.0
 44
1.0
 77
     1
140
2.0
147
1.0
178
     0
271
     2
340
11
  0
ENDTAB
  0
TABLE
  2
BLOCK_RECORD
  5
1
330
0
100
AcDbSymbolTable
 70
     1
  0
BLOCK_RECORD
  5
1F
330
1
100
AcDbSymbolTableRecord
100
AcDbBlockTableRecord
  2
*Model_Space
340
22
 70
     0
280
     1
281
     0
  0
BLOCK_RECORD
  5
58
330
1
100
AcDbSymbolTableRecord
100
AcDbBlockTableRecord
  2
*Paper_Space
340
59
 70
     0
280
     1
281
     0
  0
BLOCK_RECORD
  5
5D
330
1
100
AcDbSymbolTableRecord
100
AcDbBlockTableRecord
  2
*Paper_Space0
340
5E
 70
     0
280
     1
281
     0
  0
ENDTAB
  0
ENDSEC
  0
SECTION
  2
BLOCKS
  0
BLOCK
  5
20
330
1F
100
AcDbEntity
  8
0
100
AcDbBlockBegin
  2
*Model_Space
 70
     0
 10
0.0
 20
0.0
 30
0.0
  3
*Model_Space
  1
*Model_Space
  0
ENDBLK
  5
21
330
1F
100
AcDbEntity
  8
0
100
AcDbBlockEnd
  0
BLOCK
  5
5A
330
58
100
AcDbEntity
 67
     1
  8
0
100
AcDbBlockBegin
  2
*Paper_Space
 70
     0
 10
0.0
 20
0.0
 30
0.0
  3
*Paper_Space
  1
*Paper_Space
  0
ENDBLK
  5
5B
330
58
100
AcDbEntity
 67
     1
  8
0
100
AcDbBlockEnd
  0
BLOCK
  5
5F
330
5D
100
AcDbEntity
  8
0
100
AcDbBlockBegin
  2
*Paper_Space0
 70
     0
 10
0.0
 20
0.0
 30
0.0
  3
*Paper_Space0
  1
*Paper_Space0
  0
ENDBLK
  5
60
330
5D
100
AcDbEntity
  8
0
100
AcDbBlockEnd
  0
ENDSEC
  0
SECTION
  2
ENTITIES
  0
LWPOLYLINE
  5
163
102
{ACAD_XDICTIONARY
360
164
102
}
330
1F
100
AcDbEntity
  8
EMT12_Outline
  6
Continuous
370
     0
100
AcDbPolyline
 90
      215
 70
   129
 43
0.0
 10
6.0
 20
22.70000076293945
 10
-6.0
 20
22.70000076293945
 10
-6.719989776611328
 20
22.56999969482422
 10
-7.340000152587891
 20
22.18000030517578
 10
-7.859990119934082
 20
21.44000053405762
 10
-14.13000011444092
 20
5.599989891052246
 10
-14.38000011444092
 20
4.909989833831787
 10
-14.60000038146973
 20
4.219989776611328
 10
-14.78999996185303
 20
3.509989976882935
 10
-14.9399995803833
 20
2.799989938735962
 10
-15.0600004196167
 20
2.079989910125732
 10
-15.14000034332275
 20
1.359990000724792
 10
-15.1899995803833
 20
0.6299899816513062
 10
-15.19999980926514
 20
-0.0999908000230789
 10
-15.18000030517578
 20
-0.8299869894981384
 10
-15.11999988555908
 20
-1.549990057945251
 10
-15.02999973297119
 20
-2.279999971389771
 10
-14.89999961853027
 20
-3.0
 10
-14.73999977111816
 20
-3.70999002456665
 10
-14.55000019073486
 20
-4.409989833831787
 10
-14.31999969482422
 20
-5.099989891052246
 10
-14.0600004196167
 20
-5.78000020980835
 10
-13.77000045776367
 20
-6.449999809265137
 10
-13.4399995803833
 20
-7.099989891052246
 10
-13.07999992370605
 20
-7.739990234375
 10
-12.69999980926514
 20
-8.349989891052246
 10
-11.72999954223633
 20
-9.659990310668945
 10
-11.72999954223633
 20
-15.34000015258789
 10
-12.69999980926514
 20
-16.64999961853027
 10
-13.0600004196167
 20
-17.22999954223633
 10
-13.39999961853027
 20
-17.81999969482422
 10
-13.71000003814697
 20
-18.43000030517578
 10
-13.98999977111816
 20
-19.05999946594238
 10
-14.23999977111816
 20
-19.69000053405762
 10
-14.47000026702881
 20
-20.34000015258789
 10
-14.65999984741211
 20
-21.0
 10
-14.82999992370605
 20
-21.65999984741211
 10
-14.96000003814697
 20
-22.32999992370605
 10
-15.06999969482422
 20
-23.01000022888184
 10
-15.14000034332275
 20
-23.69000053405762
 10
-15.1899995803833
 20
-24.3799991607666
 10
-15.19999980926514
 20
-25.05999946594238
 10
-15.18000030517578
 20
-25.75
 10
-15.13000011444092
 20
-26.43000030517578
 10
-15.05000019073486
 20
-27.11000061035156
 10
-14.9399995803833
 20
-27.78000068664551
 10
-14.80000019073486
 20
-28.45999908447266
 10
-14.53999996185303
 20
-29.06999969482422
 10
-14.10000038146973
 20
-29.56999969482422
 10
-13.51000022888184
 20
-29.88999938964844
 10
-12.85999965667725
 20
-30.0
 10
-9.379989624023438
 20
-30.0
 10
-8.769989967346191
 20
-29.79000091552734
 10
-8.420000076293945
 20
-29.25
 10
-8.459989547729492
 20
-28.61000061035156
 10
-8.719989776611328
 20
-27.93000030517578
 10
-8.9299898147583
 20
-27.22999954223633
 10
-9.07999038696289
 20
-26.51000022888184
 10
-9.170000076293945
 20
-25.79000091552734
 10
-9.199999809265137
 20
-25.05999946594238
 10
-9.1799898147583
 20
-24.32999992370605
 10
-9.09000015258789
 20
-23.61000061035156
 10
-8.959989547729492
 20
-22.88999938964844
 10
-8.759989738464355
 20
-22.19000053405762
 10
-8.509989738464355
 20
-21.51000022888184
 10
-8.209989547729492
 20
-20.84000015258789
 10
-7.849989891052246
 20
-20.20999908447266
 10
-7.449999809265137
 20
-19.60000038146973
 10
-7.0
 20
-19.03000068664551
 10
-6.78000020980835
 20
-18.79000091552734
 10
-6.340000152587891
 20
-18.20000076293945
 10
-6.009990215301514
 20
-17.53000068664551
 10
-5.799990177154541
 20
-16.81999969482422
 10
-5.730000019073486
 20
-16.07999992370605
 10
-5.730000019073486
 20
-8.920000076293945
 10
-5.799990177154541
 20
-8.1799898147583
 10
-6.009990215301514
 20
-7.469989776611328
 10
-6.340000152587891
 20
-6.809999942779541
 10
-6.78000020980835
 20
-6.219989776611328
 10
-7.0
 20
-5.980000019073486
 10
-7.439990043640137
 20
-5.409989833831787
 10
-7.840000152587891
 20
-4.809999942779541
 10
-8.199999809265137
 20
-4.179989814758301
 10
-8.5
 20
-3.519989967346191
 10
-8.75
 20
-2.839999914169312
 10
-8.949999809265137
 20
-2.149990081787109
 10
-9.09000015258789
 20
-1.439990043640137
 10
-9.170000076293945
 20
-0.7199860215187073
 10
-9.199999809265137
 20
0.0
 10
-9.170000076293945
 20
0.7199860215187073
 10
-9.09000015258789
 20
1.439990043640137
 10
-8.949999809265137
 20
2.149990081787109
 10
-8.75
 20
2.839999914169312
 10
-8.5
 20
3.519989967346191
 10
-8.199999809265137
 20
4.179989814758301
 10
-7.840000152587891
 20
4.809999942779541
 10
-7.439990043640137
 20
5.409989833831787
 10
-7.0
 20
5.980000019073486
 10
-6.509990215301514
 20
6.509990215301514
 10
-5.980000019073486
 20
7.0
 10
-5.409989833831787
 20
7.439990043640137
 10
-4.809999942779541
 20
7.840000152587891
 10
-4.179989814758301
 20
8.199999809265137
 10
-3.519989967346191
 20
8.5
 10
-2.839999914169312
 20
8.75
 10
-2.149990081787109
 20
8.949999809265137
 10
-1.439990043640137
 20
9.09000015258789
 10
-0.7199860215187073
 20
9.170000076293945
 10
0.0
 20
9.199999809265137
 10
0.7199860215187073
 20
9.170000076293945
 10
1.439990043640137
 20
9.09000015258789
 10
2.149990081787109
 20
8.949999809265137
 10
2.839999914169312
 20
8.75
 10
3.519989967346191
 20
8.5
 10
4.179989814758301
 20
8.199999809265137
 10
4.809999942779541
 20
7.840000152587891
 10
5.409989833831787
 20
7.439990043640137
 10
5.980000019073486
 20
7.0
 10
6.509990215301514
 20
6.509990215301514
 10
7.0
 20
5.980000019073486
 10
7.439990043640137
 20
5.409989833831787
 10
7.840000152587891
 20
4.809999942779541
 10
8.199999809265137
 20
4.179989814758301
 10
8.5
 20
3.519989967346191
 10
8.75
 20
2.839999914169312
 10
8.949999809265137
 20
2.149990081787109
 10
9.09000015258789
 20
1.439990043640137
 10
9.170000076293945
 20
0.7199860215187073
 10
9.199999809265137
 20
0.0
 10
9.170000076293945
 20
-0.7199860215187073
 10
9.09000015258789
 20
-1.439990043640137
 10
8.949999809265137
 20
-2.149990081787109
 10
8.75
 20
-2.839999914169312
 10
8.5
 20
-3.519989967346191
 10
8.199999809265137
 20
-4.179989814758301
 10
7.840000152587891
 20
-4.809999942779541
 10
7.439990043640137
 20
-5.409989833831787
 10
7.0
 20
-5.980000019073486
 10
6.78000020980835
 20
-6.219989776611328
 10
6.340000152587891
 20
-6.809999942779541
 10
6.009990215301514
 20
-7.469989776611328
 10
5.799990177154541
 20
-8.1799898147583
 10
5.730000019073486
 20
-8.920000076293945
 10
5.730000019073486
 20
-16.07999992370605
 10
5.799990177154541
 20
-16.81999969482422
 10
6.009990215301514
 20
-17.53000068664551
 10
6.340000152587891
 20
-18.20000076293945
 10
6.78000020980835
 20
-18.79000091552734
 10
7.0
 20
-19.03000068664551
 10
7.449999809265137
 20
-19.60000038146973
 10
7.849989891052246
 20
-20.20999908447266
 10
8.209989547729492
 20
-20.84000015258789
 10
8.509989738464355
 20
-21.51000022888184
 10
8.759989738464355
 20
-22.19000053405762
 10
8.959989547729492
 20
-22.88999938964844
 10
9.09000015258789
 20
-23.61000061035156
 10
9.1799898147583
 20
-24.32999992370605
 10
9.199999809265137
 20
-25.05999946594238
 10
9.170000076293945
 20
-25.79000091552734
 10
9.07999038696289
 20
-26.51000022888184
 10
8.9299898147583
 20
-27.22999954223633
 10
8.719989776611328
 20
-27.93000030517578
 10
8.459989547729492
 20
-28.61000061035156
 10
8.420000076293945
 20
-29.25
 10
8.769989967346191
 20
-29.79000091552734
 10
9.379989624023438
 20
-30.0
 10
12.85999965667725
 20
-30.0
 10
13.51000022888184
 20
-29.88999938964844
 10
14.10000038146973
 20
-29.56999969482422
 10
14.53999996185303
 20
-29.06999969482422
 10
14.80000019073486
 20
-28.45999908447266
 10
14.9399995803833
 20
-27.78000068664551
 10
15.05000019073486
 20
-27.11000061035156
 10
15.13000011444092
 20
-26.43000030517578
 10
15.18000030517578
 20
-25.75
 10
15.19999980926514
 20
-25.05999946594238
 10
15.1899995803833
 20
-24.3799991607666
 10
15.14000034332275
 20
-23.69000053405762
 10
15.06999969482422
 20
-23.01000022888184
 10
14.96000003814697
 20
-22.32999992370605
 10
14.82999992370605
 20
-21.65999984741211
 10
14.65999984741211
 20
-21.0
 10
14.47000026702881
 20
-20.34000015258789
 10
14.23999977111816
 20
-19.69000053405762
 10
13.98999977111816
 20
-19.05999946594238
 10
13.71000003814697
 20
-18.43000030517578
 10
13.39999961853027
 20
-17.81999969482422
 10
13.0600004196167
 20
-17.22999954223633
 10
12.69999980926514
 20
-16.64999961853027
 10
11.72999954223633
 20
-15.34000015258789
 10
11.72999954223633
 20
-9.659990310668945
 10
12.69999980926514
 20
-8.349989891052246
 10
13.07999992370605
 20
-7.739990234375
 10
13.4399995803833
 20
-7.099989891052246
 10
13.77000045776367
 20
-6.449999809265137
 10
14.0600004196167
 20
-5.78000020980835
 10
14.31999969482422
 20
-5.099989891052246
 10
14.55000019073486
 20
-4.409989833831787
 10
14.73999977111816
 20
-3.70999002456665
 10
14.89999961853027
 20
-3.0
 10
15.02999973297119
 20
-2.279999971389771
 10
15.11999988555908
 20
-1.549990057945251
 10
15.18000030517578
 20
-0.8299869894981384
 10
15.19999980926514
 20
-0.0999908000230789
 10
15.1899995803833
 20
0.6299899816513062
 10
15.14000034332275
 20
1.359990000724792
 10
15.0600004196167
 20
2.079989910125732
 10
14.9399995803833
 20
2.799989938735962
 10
14.78999996185303
 20
3.509989976882935
 10
14.60000038146973
 20
4.219989776611328
 10
14.38000011444092
 20
4.909989833831787
 10
14.13000011444092
 20
5.599989891052246
 10
7.859990119934082
 20
21.44000053405762
 10
7.340000152587891
 20
22.18000030517578
 10
6.719989776611328
 20
22.56999969482422
  0
CIRCLE
  5
166
330
1F
100
AcDbEntity
  8
0
100
AcDbCircle
 10
0.0000377062083576
 20
16.4500095080998
 30
-0.0000000000000009
 40
1.750009699240878
210
0.0
220
0.0
230
-1.0
  0
CIRCLE
  5
167
330
1F
100
AcDbEntity
  8
0
100
AcDbCircle
 10
0.0020345407753419
 20
-0.0026679613504756
 30
0.0
 40
9.2
  0
CIRCLE
  5
168
330
1F
100
AcDbEntity
  8
0
100
AcDbCircle
 10
0.0020345407753419
 20
-25.00266796135048
 30
0.0
 40
9.2
  0
LINE
  5
16E
330
1F
100
AcDbEntity
  8
0
100
AcDbLine
 10
-11.72999954223633
 20
-12.49999523162842
 30
0.0
 11
11.72999954223633
 21
-12.49999523162842
 31
0.0
  0
LINE
  5
19D
330
1F
100
AcDbEntity
  8
Holes
100
AcDbLine
 10
11.07732585349046
 20
-20.0
 30
0.0
 11
0.0
 21
-20.0
 31
0.0
210
1.0
220
-1.836970198721030E-16
230
0.0
  0
CIRCLE
  5
19E
330
1F
100
AcDbEntity
  8
Holes
100
AcDbCircle
 10
11.07732585349046
 20
-20.0
 30
0.0
 40
3.0
  0
LWPOLYLINE
  5
19F
330
1F
100
AcDbEntity
  8
Holes
100
AcDbPolyline
 90
        6
 70
     1
 43
0.0
 10
14.07732585349046
 20
-20.00000000000006
 10
12.57732585349046
 20
-17.40192378864674
 10
9.577325853490464
 20
-17.40192378864668
 10
8.077325853490464
 20
-20.00000000000006
 10
9.577325853490464
 20
-22.59807621135337
 10
12.57732585349046
 20
-22.59807621135332
  0
LWPOLYLINE
  5
1A0
330
1F
100
AcDbEntity
  8
Holes
100
AcDbPolyline
 90
        6
 70
     1
 43
0.0
 10
-7.6132242383527
 20
-22.0
 10
-7.6132242383527
 20
-18.0
 10
-11.07732585349049
 20
-16.0
 10
-14.54142746862823
 20
-18.0
 10
-14.54142746862823
 20
-22.0
 10
-11.07732585349049
 20
-24.0
  0
LINE
  5
1A1
330
1F
100
AcDbEntity
  8
Holes
100
AcDbLine
 10
-14.54142746862823
 20
-20.0
 30
0.0
 11
0.0
 21
-20.0
 31
0.0
210
-1.0
220
6.123233995736766E-17
230
0.0
  0
LWPOLYLINE
  5
1A2
330
1F
100
AcDbEntity
  8
EMT34_Outline
100
AcDbPolyline
 90
      339
 70
     1
 43
0.0
 10
6.0
 20
25.35008556959529
 10
6.720054556505261
 20
25.21596912321154
 10
7.343537954689623
 20
24.83160700525114
 10
7.786830816809584
 20
24.24854849709944
 10
16.22341839644253
 20
7.56510423971384
 10
16.53796250923563
 20
6.850248365343141
 10
16.82102567043592
 20
6.122352653866209
 10
17.07206905322789
 20
5.38280269614107
 10
17.29061478226424
 20
4.633006267545227
 10
17.47624684332811
 20
3.874390648196268
 10
17.62861187524084
 20
3.108399906042528
 10
17.7474198425042
 20
2.336492147997753
 10
17.8324445874
 20
1.560136744351666
 10
17.8835242604938
 20
0.780811531740305
 10
17.90056162872463
 20
0.0
 10
17.8835242604938
 20
-0.7808115317403903
 10
17.8324445874
 20
-1.560136744351752
 10
17.7474198425042
 20
-2.336492147997838
 10
17.62861187524084
 20
-3.108399906042614
 10
17.47624684332811
 20
-3.874390648196353
 10
17.29061478226424
 20
-4.633006267545312
 10
17.07206905322789
 20
-5.382802696141155
 10
16.82102567043592
 20
-6.122352653866294
 10
16.53796250923563
 20
-6.850248365343219
 10
16.22341839644253
 20
-7.565104239713918
 10
15.8779920846531
 20
-8.265559508191842
 10
15.50234111248449
 20
-8.95028081436228
 10
15.09718055291273
 20
-9.617964752301923
 10
14.66328165209086
 20
-10.26734034768616
 10
14.20147036123774
 20
-10.89717147716109
 10
13.71262576439335
 20
-11.50625922137446
 10
13.19767840503152
 20
-12.09344414718705
 10
12.65760851471885
 20
-12.65760851471891
 10
12.09344414718691
 20
-13.19767840503156
 10
11.50625922137453
 20
-13.71262576439331
 10
10.89717147716112
 20
-14.20147036123776
 10
10.26734034768617
 20
-14.66328165209085
 10
9.617964752301873
 20
-15.09718055291272
 10
8.950280814362372
 20
-15.50234111248447
 10
8.309029657091514
 20
-15.85414354430932
 10
7.0
 20
-17.16317320140077
 10
7.0
 20
-22.83682679859923
 10
8.309029657091514
 20
-24.14585645569068
 10
8.950280814362372
 20
-24.49765888751555
 10
9.617964752301987
 20
-24.9028194470873
 10
10.26734034768617
 20
-25.33671834790913
 10
10.89717147716112
 20
-25.79852963876224
 10
11.50625922137453
 20
-26.2873742356067
 10
12.09344414718703
 20
-26.80232159496845
 10
12.65760851471885
 20
-27.34239148528109
 10
13.19767840503152
 20
-27.90655585281294
 10
13.71262576439324
 20
-28.49374077862552
 10
14.20147036123774
 20
-29.1028285228389
 10
14.66328165209086
 20
-29.73265965231382
 10
15.09718055291273
 20
-30.38203524769808
 10
15.50234111248449
 20
-31.04971918563772
 10
15.8779920846531
 20
-31.73444049180817
 10
16.22341839644253
 20
-32.43489576028607
 10
16.53796250923563
 20
-33.14975163465677
 10
16.82102567043592
 20
-33.87764734613371
 10
17.07206905322789
 20
-34.61719730385884
 10
17.29061478226424
 20
-35.36699373245469
 10
17.47624684332811
 20
-36.12560935180365
 10
17.62861187524084
 20
-36.89160009395739
 10
17.7474198425042
 20
-37.66350785200216
 10
17.8324445874
 20
-38.43986325564825
 10
17.8835242604938
 20
-39.21918846825961
 10
17.90056162872463
 20
-39.99999999999991
 10
17.8835242604938
 20
-40.78081153174031
 10
17.83244458740012
 20
-41.56013674435187
 10
17.7474198425042
 20
-42.33649214799781
 10
17.62861187524084
 20
-43.10839990604264
 10
17.47624684332811
 20
-43.87439064819641
 10
17.29061478226424
 20
-44.6330062675453
 10
16.95516303166846
 20
-45.18945226187909
 10
16.26293468678
 20
-45.7327165242225
 10
15.40453891710547
 20
-45.92629555927414
 10
11.86469908345737
 20
-45.92534575748774
 10
11.25987979539764
 20
-45.72156487606372
 10
10.90150039847265
 20
-45.19345766469207
 10
10.93554065432306
 20
-44.5561396280536
 10
11.13543796543024
 20
-44.05296796493442
 10
11.35225769571343
 20
-43.39864284926296
 10
11.53066497942666
 20
-42.73281780200466
 10
11.67005614279549
 20
-42.05774576435741
 10
11.7699595302463
 20
-41.37571096640767
 10
11.83003710033961
 20
-40.68902119801862
 10
11.85008556959531
 20
-40.0
 10
11.83003710033961
 20
-39.31097880198138
 10
11.7699595302463
 20
-38.62428903359236
 10
11.67005614279549
 20
-37.94225423564259
 10
11.53066497942666
 20
-37.26718219799537
 10
11.35225769571332
 20
-36.60135715073704
 10
11.13543796543024
 20
-35.9470320350656
 10
10.88093943791193
 20
-35.30642088005072
 10
10.58962325561572
 20
-34.68169131106032
 10
10.26247514028887
 20
-34.07495721520237
 10
9.900602057597212
 20
-33.4882715886001
 10
9.50522847150421
 20
-32.92361958970298
 10
9.077692201072864
 20
-32.38291182213891
 10
8.619439893708773
 20
-31.8679778698363
 10
8.132022130163705
 20
-31.38056010629126
 10
7.617088177861092
 20
-30.92230779892716
 10
7.07638041029702
 20
-30.49477152849579
 10
6.511728411399872
 20
-30.09939794240285
 10
5.925042784797597
 20
-29.73752485971113
 10
5.318308688939737
 20
-29.41037674438422
 10
4.693579119949277
 20
-29.11906056208812
 10
4.052967964934396
 20
-28.86456203456976
 10
3.264465043529754
 20
-28.60846564759876
 10
2.506040792565159
 20
-28.13191610586116
 10
1.872674070127914
 20
-27.49854938342403
 10
1.396124528390374
 20
-26.74012513245932
 10
1.100288351272752
 20
-25.89467391181434
 10
1.0
 20
-25.00459017598907
 10
1.0
 20
-14.99540982401093
 10
1.100288351272752
 20
-14.10532608818566
 10
1.396124528390374
 20
-13.25987486754068
 10
1.872674070127914
 20
-12.50145061657597
 10
2.506040792565159
 20
-11.86808389413884
 10
3.264465043529754
 20
-11.39153435240124
 10
4.052967964934396
 20
-11.13543796543024
 10
4.693579119949277
 20
-10.88093943791188
 10
5.318308688939737
 20
-10.58962325561578
 10
5.925042784797597
 20
-10.26247514028887
 10
6.511728411399872
 20
-9.900602057597155
 10
7.07638041029702
 20
-9.50522847150421
 10
7.617088177861092
 20
-9.077692201072836
 10
8.132022130163705
 20
-8.619439893708744
 10
8.619439893708773
 20
-8.132022130163705
 10
9.077692201072864
 20
-7.617088177861092
 10
9.50522847150421
 20
-7.07638041029702
 10
9.900602057597212
 20
-6.511728411399901
 10
10.26247514028887
 20
-5.925042784797625
 10
10.58962325561572
 20
-5.31830868893968
 10
10.88093943791193
 20
-4.693579119949277
 10
11.13543796543024
 20
-4.052967964934396
 10
11.35225769571332
 20
-3.398642849262956
 10
11.53066497942666
 20
-2.732817802004632
 10
11.67005614279549
 20
-2.057745764357406
 10
11.7699595302463
 20
-1.375710966407638
 10
11.83003710033961
 20
-0.6890211980186223
 10
11.85008556959531
 20
0.0
 10
11.83003710033961
 20
0.6890211980186223
 10
11.7699595302463
 20
1.375710966407667
 10
11.67005614279549
 20
2.057745764357406
 10
11.53066497942666
 20
2.732817802004661
 10
11.35225769571332
 20
3.398642849262956
 10
11.13543796543024
 20
4.052967964934425
 10
10.88093943791193
 20
4.693579119949277
 10
10.58962325561572
 20
5.31830868893968
 10
10.26247514028887
 20
5.925042784797654
 10
9.900602057597212
 20
6.511728411399929
 10
9.50522847150421
 20
7.076380410297027
 10
9.077692201072864
 20
7.617088177861099
 10
8.619439893708773
 20
8.132022130163712
 10
8.132022130163705
 20
8.61943989370878
 10
7.617088177861092
 20
9.077692201072871
 10
7.07638041029702
 20
9.505228471504246
 10
6.511728411399872
 20
9.90060205759719
 10
5.925042784797597
 20
10.26247514028891
 10
5.318308688939737
 20
10.58962325561581
 10
4.693579119949277
 20
10.88093943791188
 10
4.052967964934396
 20
11.13543796543028
 10
3.398642849262956
 20
11.35225769571338
 10
2.732817802004661
 20
11.53066497942667
 10
2.057745764357378
 20
11.67005614279552
 10
1.37571096640761
 20
11.7699595302463
 10
0.6890211980186223
 20
11.83003710033962
 10
0.0
 20
11.85008556959529
 10
-0.6890211980186223
 20
11.83003710033962
 10
-1.37571096640761
 20
11.7699595302463
 10
-2.057745764357378
 20
11.67005614279552
 10
-2.732817802004661
 20
11.53066497942667
 10
-3.398642849262956
 20
11.35225769571338
 10
-4.052967964934396
 20
11.13543796543028
 10
-4.693579119949277
 20
10.88093943791188
 10
-5.318308688939737
 20
10.58962325561581
 10
-5.925042784797597
 20
10.26247514028891
 10
-6.511728411399872
 20
9.90060205759719
 10
-7.07638041029702
 20
9.505228471504246
 10
-7.617088177861092
 20
9.077692201072871
 10
-8.132022130163705
 20
8.61943989370878
 10
-8.619439893708773
 20
8.132022130163712
 10
-9.077692201072864
 20
7.617088177861099
 10
-9.50522847150421
 20
7.076380410297027
 10
-9.900602057597212
 20
6.511728411399929
 10
-10.26247514028887
 20
5.925042784797654
 10
-10.58962325561572
 20
5.31830868893968
 10
-10.88093943791193
 20
4.693579119949277
 10
-11.13543796543024
 20
4.052967964934425
 10
-11.35225769571332
 20
3.398642849262956
 10
-11.53066497942666
 20
2.732817802004661
 10
-11.67005614279549
 20
2.057745764357406
 10
-11.7699595302463
 20
1.375710966407667
 10
-11.83003710033961
 20
0.6890211980186223
 10
-11.85008556959531
 20
0.0
 10
-11.83003710033961
 20
-0.6890211980186223
 10
-11.7699595302463
 20
-1.375710966407638
 10
-11.67005614279549
 20
-2.057745764357406
 10
-11.53066497942666
 20
-2.732817802004632
 10
-11.35225769571332
 20
-3.398642849262956
 10
-11.13543796543024
 20
-4.052967964934396
 10
-10.88093943791193
 20
-4.693579119949277
 10
-10.58962325561572
 20
-5.31830868893968
 10
-10.26247514028887
 20
-5.925042784797625
 10
-9.900602057597212
 20
-6.511728411399901
 10
-9.50522847150421
 20
-7.07638041029702
 10
-9.077692201072864
 20
-7.617088177861092
 10
-8.619439893708773
 20
-8.132022130163705
 10
-8.132022130163705
 20
-8.619439893708744
 10
-7.617088177861092
 20
-9.077692201072836
 10
-7.07638041029702
 20
-9.50522847150421
 10
-6.511728411399872
 20
-9.900602057597155
 10
-5.925042784797597
 20
-10.26247514028887
 10
-5.318308688939737
 20
-10.58962325561578
 10
-4.693579119949277
 20
-10.88093943791188
 10
-4.052967964934396
 20
-11.13543796543024
 10
-3.264465043529754
 20
-11.39153435240124
 10
-2.506040792565159
 20
-11.86808389413884
 10
-1.872674070127914
 20
-12.50145061657597
 10
-1.396124528390374
 20
-13.25987486754068
 10
-1.100288351272752
 20
-14.10532608818566
 10
-1.0
 20
-14.99540982401093
 10
-1.0
 20
-25.00459017598907
 10
-1.100288351272752
 20
-25.89467391181434
 10
-1.396124528390374
 20
-26.74012513245932
 10
-1.872674070127914
 20
-27.49854938342403
 10
-2.506040792565159
 20
-28.13191610586116
 10
-3.264465043529754
 20
-28.60846564759876
 10
-4.052967964934396
 20
-28.86456203456976
 10
-4.693579119949277
 20
-29.11906056208812
 10
-5.318308688939737
 20
-29.41037674438422
 10
-5.925042784797597
 20
-29.73752485971113
 10
-6.511728411399872
 20
-30.09939794240285
 10
-7.07638041029702
 20
-30.49477152849579
 10
-7.617088177861092
 20
-30.92230779892716
 10
-8.132022130163705
 20
-31.38056010629126
 10
-8.619439893708773
 20
-31.8679778698363
 10
-9.077692201072864
 20
-32.38291182213891
 10
-9.50522847150421
 20
-32.92361958970298
 10
-9.900602057597212
 20
-33.4882715886001
 10
-10.26247514028887
 20
-34.07495721520237
 10
-10.58962325561572
 20
-34.68169131106032
 10
-10.88093943791193
 20
-35.30642088005072
 10
-11.13543796543024
 20
-35.9470320350656
 10
-11.35225769571332
 20
-36.60135715073704
 10
-11.53066497942666
 20
-37.26718219799537
 10
-11.67005614279549
 20
-37.94225423564259
 10
-11.7699595302463
 20
-38.62428903359236
 10
-11.83003710033961
 20
-39.31097880198138
 10
-11.85008556959531
 20
-40.0
 10
-11.83003710033961
 20
-40.68902119801862
 10
-11.7699595302463
 20
-41.37571096640767
 10
-11.67005614279549
 20
-42.05774576435741
 10
-11.53066497942666
 20
-42.73281780200466
 10
-11.35225769571343
 20
-43.39864284926296
 10
-11.13543796543024
 20
-44.05296796493442
 10
-10.93554065432306
 20
-44.5561396280536
 10
-10.90150039847265
 20
-45.19345766469207
 10
-11.25987979539764
 20
-45.72156487606372
 10
-11.86469908345737
 20
-45.92534575748774
 10
-15.40453891710547
 20
-45.92629555927414
 10
-16.26293468678
 20
-45.7327165242225
 10
-16.95516303166846
 20
-45.18945226187909
 10
-17.29061478226424
 20
-44.6330062675453
 10
-17.47624684332811
 20
-43.87439064819641
 10
-17.62861187524084
 20
-43.10839990604264
 10
-17.7474198425042
 20
-42.33649214799781
 10
-17.83244458740012
 20
-41.56013674435187
 10
-17.8835242604938
 20
-40.78081153174031
 10
-17.90056162872463
 20
-39.99999999999991
 10
-17.8835242604938
 20
-39.21918846825961
 10
-17.8324445874
 20
-38.43986325564825
 10
-17.7474198425042
 20
-37.66350785200216
 10
-17.62861187524084
 20
-36.89160009395739
 10
-17.47624684332811
 20
-36.12560935180365
 10
-17.29061478226424
 20
-35.36699373245469
 10
-17.07206905322789
 20
-34.61719730385884
 10
-16.82102567043592
 20
-33.87764734613371
 10
-16.53796250923563
 20
-33.14975163465677
 10
-16.22341839644253
 20
-32.43489576028607
 10
-15.8779920846531
 20
-31.73444049180817
 10
-15.50234111248449
 20
-31.04971918563772
 10
-15.09718055291273
 20
-30.38203524769808
 10
-14.66328165209086
 20
-29.73265965231382
 10
-14.20147036123774
 20
-29.1028285228389
 10
-13.71262576439324
 20
-28.49374077862552
 10
-13.19767840503152
 20
-27.90655585281294
 10
-12.65760851471885
 20
-27.34239148528109
 10
-12.09344414718703
 20
-26.80232159496845
 10
-11.50625922137453
 20
-26.2873742356067
 10
-10.89717147716112
 20
-25.79852963876224
 10
-10.26734034768617
 20
-25.33671834790913
 10
-9.617964752301987
 20
-24.9028194470873
 10
-8.950280814362372
 20
-24.49765888751555
 10
-8.309029657091514
 20
-24.14585645569068
 10
-7.0
 20
-22.83682679859923
 10
-7.0
 20
-17.16317320140077
 10
-8.309029657091514
 20
-15.85414354430932
 10
-8.950280814362372
 20
-15.50234111248447
 10
-9.617964752301873
 20
-15.09718055291272
 10
-10.26734034768617
 20
-14.66328165209085
 10
-10.89717147716112
 20
-14.20147036123776
 10
-11.50625922137453
 20
-13.71262576439331
 10
-12.09344414718691
 20
-13.19767840503156
 10
-12.65760851471885
 20
-12.65760851471891
 10
-13.19767840503152
 20
-12.09344414718705
 10
-13.71262576439335
 20
-11.50625922137446
 10
-14.20147036123774
 20
-10.89717147716109
 10
-14.66328165209086
 20
-10.26734034768616
 10
-15.09718055291273
 20
-9.617964752301923
 10
-15.50234111248449
 20
-8.95028081436228
 10
-15.8779920846531
 20
-8.265559508191842
 10
-16.22341839644253
 20
-7.565104239713918
 10
-16.53796250923563
 20
-6.850248365343219
 10
-16.82102567043592
 20
-6.122352653866294
 10
-17.07206905322789
 20
-5.382802696141155
 10
-17.29061478226424
 20
-4.633006267545312
 10
-17.47624684332811
 20
-3.874390648196353
 10
-17.62861187524084
 20
-3.108399906042614
 10
-17.7474198425042
 20
-2.336492147997838
 10
-17.8324445874
 20
-1.560136744351752
 10
-17.8835242604938
 20
-0.7808115317403903
 10
-17.90056162872463
 20
0.0
 10
-17.8835242604938
 20
0.780811531740305
 10
-17.8324445874
 20
1.560136744351666
 10
-17.7474198425042
 20
2.336492147997753
 10
-17.62861187524084
 20
3.108399906042528
 10
-17.47624684332811
 20
3.874390648196268
 10
-17.29061478226424
 20
4.633006267545227
 10
-17.07206905322789
 20
5.38280269614107
 10
-16.82102567043592
 20
6.122352653866209
 10
-16.53796250923563
 20
6.850248365343141
 10
-16.22341839644253
 20
7.56510423971384
 10
-7.786830816809584
 20
24.24854849709944
 10
-7.343537954689623
 20
24.83160700525114
 10
-6.720054556505261
 20
25.21596912321154
 10
-6.0
 20
25.35008556959529
  0
CIRCLE
  5
1A6
330
1F
100
AcDbEntity
  8
0
100
AcDbCircle
 10
-0.0000000000000142
 20
0.0000000000000431
 30
0.0
 40
11.85008556959523
  0
CIRCLE
  5
1A7
330
1F
100
AcDbEntity
  8
0
100
AcDbCircle
 10
-0.000000000000032
 20
-40.00000000000004
 30
0.0
 40
11.8500855695953
  0
LWPOLYLINE
  5
1D2
330
1F
100
AcDbEntity
  8
PVC12_Outline
100
AcDbPolyline
 90
      263
 70
     1
 43
0.0
 10
-7.859502715986309
 20
23.13637602435119
 10
-15.31840834677405
 20
7.138372764256815
 10
-15.6040423849031
 20
6.490289766269939
 10
-15.8622720523183
 20
5.830808292015945
 10
-16.09264383695154
 20
5.161086546167326
 10
-16.29475315173249
 20
4.482300717723319
 10
-16.46824504514007
 20
3.795642914345649
 10
-16.61281482457912
 20
3.102319068736278
 10
-16.72820859149374
 20
2.403546820736437
 10
-16.81422368727249
 20
1.700553378863901
 10
-16.87070904916391
 20
0.994573365046449
 10
-16.89756547557909
 20
0.2868466463352206
 10
-16.8947458003131
 20
-0.4213838425940821
 10
-16.86225497537907
 20
-1.128874282326365
 10
-16.80015006231224
 20
-1.834382153147544
 10
-16.70854013195571
 20
-2.536668417200644
 10
-16.58758607290679
 20
-3.234499694528608
 10
-16.43750030895876
 20
-3.926650429179517
 10
-16.25854642603485
 20
-4.611905041571163
 10
-16.05103870926837
 20
-5.289060063335
 10
-15.81534159104558
 20
-5.956926250889865
 10
-15.55186901097545
 20
-6.614330674033454
 10
-15.2610836889146
 20
-7.260118775883939
 10
-14.94349631232285
 20
-7.893156400553266
 10
-14.59966463937462
 20
-8.512331784992398
 10
-14.23019251940605
 20
-9.116557511508177
 10
-13.83572883241209
 20
-9.704772417525305
 10
-13.41696634946084
 20
-10.27594345923706
 10
-12.97464051602469
 20
-10.8290675258736
 10
-12.50952816036511
 20
-11.36317320140085
 10
-12.50952816036511
 20
-17.03682679859924
 10
-12.94494325074697
 20
-17.53545011356027
 10
-13.36049691070389
 20
-18.05074291076539
 10
-13.75555155612665
 20
-18.58191457631699
 10
-14.12950105455138
 20
-19.12815013336444
 10
-14.48177165514676
 20
-19.68861149252416
 10
-14.81182286902185
 20
-20.26243873775957
 10
-15.11914829849729
 20
-20.84875144575153
 10
-15.4032764140718
 20
-21.44665003673083
 10
-15.66377127788974
 20
-22.05521715470502
 10
-15.90023321260151
 20
-22.67351907495708
 10
-16.11229941458737
 20
-23.30060713666001
 10
-16.29964451060823
 20
-23.93551919840706
 10
-16.4619810570257
 20
-24.577281114426
 10
-16.59905998082604
 20
-25.224908229211
 10
-16.71067096177467
 20
-25.87740688827989
 10
-16.79664275510868
 20
-26.53377596273867
 10
-16.85684345427921
 20
-27.19300838531399
 10
-16.89118069333472
 20
-27.85409269549609
 10
-16.89960178863907
 20
-28.5160145914241
 10
-16.88209381970296
 20
-29.1777584861286
 10
-16.83868364900854
 20
-29.83830906574781
 10
-16.76943788079416
 20
-30.4966528473235
 10
-16.674462758863
 20
-31.15177973378843
 10
-16.55390400357464
 20
-31.80268456375848
 10
-16.30538088701405
 20
-32.43640026646131
 10
-15.85871156123358
 20
-32.95005953555301
 10
-15.26563812626136
 20
-33.28416016717085
 10
-14.59486210966043
 20
-33.40000000000009
 10
-11.20758671614885
 20
-33.4000000000002
 10
-10.61210220627868
 20
-33.20336678952083
 10
-10.25080175834159
 20
-32.69079639700954
 10
-10.26577270638836
 20
-32.06386554621872
 10
-10.47552695693389
 20
-31.41219769845009
 10
-10.64395857065483
 20
-30.7486476845578
 10
-10.77040313816838
 20
-30.07583299923681
 10
-10.85436187569326
 20
-29.39640768337756
 10
-10.89550359259533
 20
-28.71305185471465
 10
-10.89366599782852
 20
-28.02846113561111
 10
-10.84885634012267
 20
-27.34533601968178
 10
-10.76125137938811
 20
-26.66637121920098
 10
-10.63119668945592
 20
-25.994245035316
 10
-10.45920529489626
 20
-25.33160879299692
 10
-10.24595564730066
 20
-24.68107638239962
 10
-9.99228894900466
 20
-24.04521394789606
 10
-9.699205834810527
 20
-23.42652976544787
 10
-9.367862424800705
 20
-22.82746434825185
 10
-8.999565763809642
 20
-22.25038081968773
 10
-8.595768665545393
 20
-21.69755559154532
 10
-8.158063981700707
 20
-21.17116938430047
 10
-7.688178318656355
 20
-20.67329862486326
 10
-7.278167193634999
 20
-20.19541793502276
 10
-6.948229006831752
 20
-19.65911590327892
 10
-6.706539607468812
 20
-19.07768206301921
 10
-6.559088044910595
 20
-18.46552431124042
 10
-6.509528160365107
 20
-17.83781188169371
 10
-6.509528160365107
 20
-10.56218811830649
 10
-6.559088044910595
 20
-9.93447568875979
 10
-6.706539607468812
 20
-9.322317936981108
 10
-6.948229006831752
 20
-8.740884096721288
 10
-7.278167193634999
 20
-8.204582064977444
 10
-7.688178318656355
 20
-7.72670137513694
 10
-8.299760946223614
 20
-7.06568950885503
 10
-8.735408478360796
 20
-6.5194047823544
 10
-9.135160343321104
 20
-5.94633042319515
 10
-9.49737387494497
 20
-5.3488213168431
 10
-9.82056066013638
 20
-4.729332756381496
 10
-10.10339265507173
 20
-4.090410353185348
 10
-10.34470764241632
 20
-3.434679576457597
 10
-10.5435140071254
 20
-2.764834964613783
 10
-10.69899481120274
 20
-2.08362905284514
 10
-10.81051115067339
 20
-1.393861062361225
 10
-10.8776047809788
 20
-0.6983653977898712
 10
-10.90000000000009
 20
-0.0000000000001137
 10
-10.8776047809788
 20
0.6983653977896438
 10
-10.81051115067339
 20
1.393861062360997
 10
-10.69899481120274
 20
2.083629052844913
 10
-10.54351400712562
 20
2.764834964613556
 10
-10.34470764241632
 20
3.43467957645737
 10
-10.10339265507173
 20
4.090410353185121
 10
-9.82056066013638
 20
4.729332756381268
 10
-9.49737387494497
 20
5.348821316842873
 10
-9.135160343321104
 20
5.946330423194922
 10
-8.735408478360796
 20
6.519404782354172
 10
-8.299760946223614
 20
7.065689508854803
 10
-7.830007916065369
 20
7.582939801577936
 10
-7.328079703848516
 20
8.06903016812089
 10
-6.79603884026028
 20
8.521963158901485
 10
-6.236071595331623
 20
8.939877575106834
 10
-5.650478994584773
 20
9.3210561167582
 10
-5.041667363625038
 20
9.663932439465611
 10
-4.412138440034141
 20
9.9670975908723
 10
-3.764479093192222
 20
10.22930580034233
 10
-3.101350694278381
 20
10.44947959809963
 10
-2.425478180123946
 20
10.62671424278187
 10
-1.739638855863859
 20
10.76028143921747
 10
-1.046650982393658
 20
10.84963233114627
 10
-0.3493621955310573
 20
10.89439975658752
 10
0.0
 20
10.89999999999986
 10
0.3493621955310573
 20
10.89439975658752
 10
1.046650982393658
 20
10.84963233114627
 10
1.739638855863859
 20
10.76028143921747
 10
2.425478180123946
 20
10.62671424278187
 10
3.101350694278381
 20
10.44947959809963
 10
3.764479093192222
 20
10.22930580034233
 10
4.412138440034141
 20
9.9670975908723
 10
5.041667363625038
 20
9.663932439465611
 10
5.650478994584773
 20
9.3210561167582
 10
6.236071595331623
 20
8.939877575106834
 10
6.79603884026028
 20
8.521963158901485
 10
7.328079703848516
 20
8.06903016812089
 10
7.830007916065369
 20
7.582939801577936
 10
8.299760946223614
 20
7.065689508854803
 10
8.735408478360796
 20
6.519404782354172
 10
9.135160343321104
 20
5.946330423194922
 10
9.49737387494497
 20
5.348821316842873
 10
9.82056066013638
 20
4.729332756381268
 10
10.10339265507173
 20
4.090410353185121
 10
10.34470764241632
 20
3.43467957645737
 10
10.54351400712562
 20
2.764834964613556
 10
10.69899481120274
 20
2.083629052844913
 10
10.81051115067339
 20
1.393861062360997
 10
10.8776047809788
 20
0.6983653977896438
 10
10.90000000000009
 20
-0.0000000000001137
 10
10.8776047809788
 20
-0.6983653977898712
 10
10.81051115067339
 20
-1.393861062361225
 10
10.69899481120274
 20
-2.08362905284514
 10
10.5435140071254
 20
-2.764834964613783
 10
10.34470764241632
 20
-3.434679576457597
 10
10.10339265507173
 20
-4.090410353185348
 10
9.82056066013638
 20
-4.729332756381496
 10
9.49737387494497
 20
-5.3488213168431
 10
9.135160343321104
 20
-5.94633042319515
 10
8.735408478360796
 20
-6.5194047823544
 10
8.299760946223614
 20
-7.06568950885503
 10
7.688178318656355
 20
-7.72670137513694
 10
7.278167193634999
 20
-8.204582064977444
 10
6.948229006831752
 20
-8.740884096721288
 10
6.706539607468812
 20
-9.322317936981108
 10
6.559088044910595
 20
-9.93447568875979
 10
6.509528160365107
 20
-10.56218811830649
 10
6.509528160365107
 20
-17.83781188169371
 10
6.559088044910595
 20
-18.46552431124042
 10
6.706539607468812
 20
-19.07768206301921
 10
6.948229006831752
 20
-19.65911590327892
 10
7.278167193634999
 20
-20.19541793502276
 10
7.688178318656355
 20
-20.67329862486326
 10
8.158063981700707
 20
-21.17116938430047
 10
8.595768665545393
 20
-21.69755559154532
 10
8.999565763809642
 20
-22.25038081968773
 10
9.367862424800705
 20
-22.82746434825185
 10
9.699205834810527
 20
-23.42652976544787
 10
9.99228894900466
 20
-24.04521394789606
 10
10.24595564730066
 20
-24.68107638239962
 10
10.45920529489626
 20
-25.33160879299692
 10
10.63119668945592
 20
-25.994245035316
 10
10.76125137938811
 20
-26.66637121920098
 10
10.84885634012267
 20
-27.34533601968178
 10
10.89366599782852
 20
-28.02846113561111
 10
10.89550359259533
 20
-28.71305185471465
 10
10.85436187569326
 20
-29.39640768337756
 10
10.77040313816838
 20
-30.07583299923681
 10
10.64395857065483
 20
-30.7486476845578
 10
10.47552695693389
 20
-31.41219769845009
 10
10.26577270638836
 20
-32.06386554621872
 10
10.25080175834159
 20
-32.69079639700954
 10
10.61210220627868
 20
-33.20336678952083
 10
11.20758671614885
 20
-33.4000000000002
 10
14.59486210966043
 20
-33.40000000000009
 10
15.26563812626136
 20
-33.28416016717085
 10
15.85871156123358
 20
-32.95005953555301
 10
16.30538088701405
 20
-32.43640026646131
 10
16.55390400357464
 20
-31.80268456375848
 10
16.674462758863
 20
-31.15177973378843
 10
16.76943788079416
 20
-30.4966528473235
 10
16.83868364900854
 20
-29.83830906574781
 10
16.88209381970296
 20
-29.1777584861286
 10
16.89960178863907
 20
-28.5160145914241
 10
16.89118069333472
 20
-27.85409269549609
 10
16.85684345427921
 20
-27.19300838531399
 10
16.79664275510868
 20
-26.53377596273867
 10
16.71067096177467
 20
-25.87740688827989
 10
16.59905998082604
 20
-25.224908229211
 10
16.4619810570257
 20
-24.577281114426
 10
16.29964451060823
 20
-23.93551919840706
 10
16.11229941458737
 20
-23.30060713666001
 10
15.90023321260151
 20
-22.67351907495708
 10
15.66377127788974
 20
-22.05521715470502
 10
15.4032764140718
 20
-21.44665003673083
 10
15.11914829849729
 20
-20.84875144575153
 10
14.81182286902185
 20
-20.26243873775957
 10
14.48177165514676
 20
-19.68861149252416
 10
14.12950105455138
 20
-19.12815013336444
 10
13.75555155612665
 20
-18.58191457631699
 10
13.36049691070389
 20
-18.05074291076539
 10
12.94494325074697
 20
-17.53545011356027
 10
12.50952816036511
 20
-17.03682679859924
 10
12.50952816036511
 20
-11.36317320140085
 10
12.97464051602469
 20
-10.8290675258736
 10
13.41696634946084
 20
-10.27594345923706
 10
13.83572883241209
 20
-9.704772417525305
 10
14.23019251940605
 20
-9.116557511508177
 10
14.59966463937462
 20
-8.512331784992398
 10
14.94349631232285
 20
-7.893156400553266
 10
15.2610836889146
 20
-7.260118775883939
 10
15.55186901097545
 20
-6.614330674033454
 10
15.81534159104558
 20
-5.956926250889865
 10
16.05103870926837
 20
-5.289060063335
 10
16.25854642603485
 20
-4.611905041571163
 10
16.43750030895876
 20
-3.926650429179517
 10
16.58758607290679
 20
-3.234499694528608
 10
16.70854013195571
 20
-2.536668417200644
 10
16.80015006231224
 20
-1.834382153147544
 10
16.86225497537907
 20
-1.128874282326365
 10
16.8947458003131
 20
-0.4213838425940821
 10
16.89756547557909
 20
0.2868466463352206
 10
16.87070904916391
 20
0.994573365046449
 10
16.81422368727249
 20
1.700553378863901
 10
16.72820859149374
 20
2.403546820736437
 10
16.61281482457912
 20
3.102319068736278
 10
16.46824504514007
 20
3.795642914345649
 10
16.29475315173249
 20
4.482300717723319
 10
16.09264383695154
 20
5.161086546167326
 10
15.8622720523183
 20
5.830808292015945
 10
15.6040423849031
 20
6.490289766269939
 10
15.31840834677405
 20
7.138372764256815
 10
7.859502715986309
 20
23.13637602435119
 10
7.343537954689737
 20
23.88152143565571
 10
6.720054556505374
 20
24.26588355361605
 10
6.000000000000227
 20
24.39999999999986
 10
-5.999999999999773
 20
24.39999999999986
 10
-6.720054556505147
 20
24.26588355361605
 10
-7.343537954689509
 20
23.88152143565571
  0
LINE
  5
1D3
330
1F
100
AcDbEntity
  8
Holes
100
AcDbLine
 10
-14.5414274686284
 20
-14.20000000000005
 30
0.0
 11
0.0
 21
-14.20000000000005
 31
0.0
210
-1.0
220
6.123233995736766E-17
230
0.0
  0
LINE
  5
211
330
1F
100
AcDbEntity
  8
0
 62
     6
100
AcDbLine
 10
-11.51458322261996
 20
-15.14999523162842
 30
0.0
 11
11.51865230417064
 21
-15.14999523162842
 31
0.0
  0
LWPOLYLINE
  5
212
330
1F
100
AcDbEntity
  8
EMT34_V2_Outline
100
AcDbPolyline
 90
      295
 70
     1
 43
0.0
 10
-7.784796276034242
 20
24.24579496615366
 10
-7.341503413914281
 20
24.82885347430537
 10
-6.718020015729919
 20
25.21321559226576
 10
-5.997965459224658
 20
25.34733203864952
 10
6.002034540775342
 20
25.34733203864952
 10
6.722089097280603
 20
25.21321559226576
 10
7.345572495464965
 20
24.82885347430537
 10
7.788865357584926
 20
24.24579496615366
 10
15.44041818945585
 20
6.748540102111541
 10
15.70553655245756
 20
6.10654840157963
 10
15.94397152606042
 20
5.454175921078235
 10
16.15531796157588
 20
4.792531171875556
 10
16.33921673915701
 20
4.122738420678054
 10
16.4953553780153
 20
3.44593577927656
 10
16.62346856738772
 20
2.763273270666794
 10
16.72333861735281
 20
2.075910874930365
 10
16.79479582872945
 20
1.385016558196732
 10
16.83771878142956
 20
0.6917642880352408
 10
16.85203454077534
 20
-0.0026679613504756
 10
16.83888779810168
 20
-0.6681545436800251
 10
16.79946808483938
 20
-1.332602671309182
 10
16.73383691325274
 20
-1.994975509988251
 10
16.64209669712513
 20
-2.654239463840156
 10
16.52439059194786
 20
-3.30936578822925
 10
16.38090227153397
 20
-3.959332195059936
 10
16.21185564140576
 20
-4.603124448000194
 10
16.01751448940264
 20
-5.239737945140867
 10
15.79818207405459
 20
-5.868179286620887
 10
15.5542006513647
 20
-6.487467824772359
 10
15.28595094073718
 20
-7.096637194366579
 10
14.99385153088623
 20
-7.694736820573077
 10
14.67835822665201
 20
-8.280833402278624
 10
14.33996333774185
 20
-8.854012368451556
 10
13.97919491050915
 20
-9.41337930527893
 10
13.59661590396605
 20
-9.958061351849317
 10
13.19282331131753
 20
-10.48720856220364
 10
12.76844722838656
 20
-10.99999523162842
 10
11.52150683805
 20
-12.29999523162842
 10
11.51579777029129
 20
-17.99999523162842
 10
12.76384055726966
 20
-19.29999523162842
 10
13.18867541044354
 20
-19.812910930113
 10
13.59290900474379
 20
-20.34221459292134
 10
13.97590981308134
 20
-20.88707929817942
 10
14.33707947997824
 20
-21.44665381326816
 10
14.6758537563676
 20
-22.02006392468934
 10
14.99170338111038
 20
-22.60641380383407
 10
15.28413490785063
 20
-23.2047874065202
 10
15.55269147591811
 20
-23.81424990411215
 10
15.79695352407386
 20
-24.43384914398737
 10
16.01653944598344
 20
-25.06261713706775
 10
16.21110618639354
 20
-25.69957157009211
 10
16.38034977708163
 20
-26.343717340267
 10
16.52400581173988
 20
-26.99404810989847
 10
16.6418498590527
 20
-27.64954787857588
 10
16.7336978133218
 20
-28.30919257045158
 10
16.79940618209135
 20
-28.97195163413676
 10
16.83887231032362
 20
-29.63678965271388
 10
16.85203454077534
 20
-30.30266796135048
 10
16.84182201807097
 20
-30.88923229671127
 10
16.81119682926
 20
-31.47508561704625
 10
16.76019609724268
 20
-32.05951776919989
 10
16.68888164351871
 20
-32.64182032271248
 10
16.59733991324863
 20
-33.2212874285575
 10
16.48568187046784
 20
-33.79721667474977
 10
16.35404286357966
 20
-34.3689099377875
 10
16.20258246128982
 20
-34.93567422889574
 10
15.86713071069404
 20
-35.49212022322953
 10
15.17490236580558
 20
-36.03538448557294
 10
14.31650659613105
 20
-36.22896352062457
 10
11.86673362423274
 20
-36.22801371883818
 10
11.26191433617301
 20
-36.02423283741415
 10
10.90353493924802
 20
-35.49612562604251
 10
10.93757519509843
 20
-34.85880758940404
 10
11.13747250620561
 20
-34.35563592628485
 10
11.3542922364888
 20
-33.70131081061339
 10
11.53269952020203
 20
-33.03548576335509
 10
11.67209068357086
 20
-32.36041372570784
 10
11.77199407102167
 20
-31.6783789277581
 10
11.83207164111498
 20
-30.99168915936906
 10
11.85212011037068
 20
-30.30266796135044
 10
11.83207164111498
 20
-29.61364676333181
 10
11.77199407102167
 20
-28.9269569949428
 10
11.67209068357086
 20
-28.24492219699303
 10
11.53269952020203
 20
-27.5698501593458
 10
11.35429223648869
 20
-26.90402511208747
 10
11.13747250620561
 20
-26.24969999641603
 10
10.8829739786873
 20
-25.60908884140116
 10
10.59165779639109
 20
-24.98435927241076
 10
10.26450968106424
 20
-24.3776251765528
 10
9.902636598372581
 20
-23.79093954995054
 10
9.50726301227958
 20
-23.22628755105342
 10
9.079726741848233
 20
-22.68557978348935
 10
8.621474434484142
 20
-22.17064583118673
 10
8.134056670939074
 20
-21.68322806764169
 10
7.619122718636462
 20
-21.2249757602776
 10
7.119116352933461
 20
-20.82798345583529
 10
6.655783095270565
 20
-20.420409799903
 10
6.260652986725931
 20
-19.94642014812984
 10
5.94312997552801
 20
-19.41729527626465
 10
5.710770990126705
 20
-18.84562815759347
 10
5.569106087133393
 20
-18.2450242549035
 10
5.521506838050088
 20
-17.629777715577
 10
5.521506838050059
 20
-12.67555820712398
 10
5.569106087133364
 20
-12.06031166779747
 10
5.710770990126677
 20
-11.4597077651075
 10
5.94312997552801
 20
-10.88804064643632
 10
6.260652986725902
 20
-10.35891577457113
 10
6.655783095270537
 20
-9.884926122797971
 10
7.119116352933433
 20
-9.477352466865682
 10
7.619122718636491
 20
-9.080445732018589
 10
8.134056670939103
 20
-8.622193424654498
 10
8.62147443448417
 20
-8.134775661109458
 10
9.079726741848262
 20
-7.619841708806845
 10
9.507263012279608
 20
-7.079133941242773
 10
9.90263659837261
 20
-6.514481942345654
 10
10.26450968106427
 20
-5.927796315743379
 10
10.59165779639112
 20
-5.321062219885434
 10
10.88297397868733
 20
-4.69633265089503
 10
11.13747250620564
 20
-4.05572149588015
 10
11.35429223648872
 20
-3.401396380208709
 10
11.53269952020206
 20
-2.735571332950386
 10
11.67209068357089
 20
-2.06049929530316
 10
11.77199407102169
 20
-1.378464497353392
 10
11.83207164111501
 20
-0.6917747289643759
 10
11.85212011037071
 20
-0.0027535309457536
 10
11.83207164111501
 20
0.6862676670728687
 10
11.77199407102169
 20
1.372957435461913
 10
11.67209068357089
 20
2.054992233411653
 10
11.53269952020206
 20
2.730064271058907
 10
11.35429223648872
 20
3.395889318317202
 10
11.13747250620564
 20
4.050214433988671
 10
10.88297397868733
 20
4.690825589003524
 10
10.59165779639112
 20
5.315555157993927
 10
10.26450968106427
 20
5.922289253851901
 10
9.90263659837261
 20
6.508974880454176
 10
9.507263012279608
 20
7.073626879351266
 10
9.079726741848262
 20
7.614334646915339
 10
8.62147443448417
 20
8.129268599217951
 10
8.134056670939103
 20
8.61668636276302
 10
7.619122718636491
 20
9.07493867012711
 10
7.078414951072419
 20
9.502474940558486
 10
6.513762952175271
 20
9.89784852665143
 10
5.927077325572996
 20
10.25972160934315
 10
5.320343229715136
 20
10.58686972467005
 10
4.695613660724676
 20
10.87818590696612
 10
4.055002505709795
 20
11.13268443448452
 10
3.400677390038354
 20
11.34950416476762
 10
2.73485234278006
 20
11.52791144848091
 10
2.059780305132777
 20
11.66730261184976
 10
1.377745507183008
 20
11.76720599930054
 10
0.691055738794021
 20
11.82728356939386
 10
0.0020345407753419
 20
11.84733203864953
 10
-0.6869866572432803
 20
11.82728356939386
 10
-1.373676425632268
 20
11.76720599930054
 10
-2.055711223582036
 20
11.66730261184976
 10
-2.730783261229319
 20
11.52791144848091
 10
-3.396608308487614
 20
11.34950416476762
 10
-4.050933424159054
 20
11.13268443448452
 10
-4.691544579173935
 20
10.87818590696612
 10
-5.316274148164395
 20
10.58686972467005
 10
-5.923008244022255
 20
10.25972160934315
 10
-6.50969387062453
 20
9.89784852665143
 10
-7.074345869521678
 20
9.502474940558486
 10
-7.61505363708575
 20
9.07493867012711
 10
-8.129987589388364
 20
8.61668636276302
 10
-8.617405352933432
 20
8.129268599217951
 10
-9.075657660297523
 20
7.614334646915339
 10
-9.50319393072887
 20
7.073626879351266
 10
-9.89856751682187
 20
6.508974880454176
 10
-10.26044059951353
 20
5.922289253851901
 10
-10.58758871484038
 20
5.315555157993927
 10
-10.87890489713659
 20
4.690825589003524
 10
-11.1334034246549
 20
4.050214433988671
 10
-11.35022315493798
 20
3.395889318317202
 10
-11.52863043865132
 20
2.730064271058907
 10
-11.66802160202015
 20
2.054992233411653
 10
-11.76792498947096
 20
1.372957435461913
 10
-11.82800255956427
 20
0.6862676670728687
 10
-11.84805102881997
 20
-0.0027535309457536
 10
-11.82800255956427
 20
-0.6917747289643759
 10
-11.76792498947096
 20
-1.378464497353392
 10
-11.66802160202015
 20
-2.06049929530316
 10
-11.52863043865132
 20
-2.735571332950386
 10
-11.35022315493798
 20
-3.401396380208709
 10
-11.1334034246549
 20
-4.05572149588015
 10
-10.87890489713659
 20
-4.69633265089503
 10
-10.58758871484038
 20
-5.321062219885434
 10
-10.26044059951353
 20
-5.927796315743379
 10
-9.89856751682187
 20
-6.514481942345654
 10
-9.50319393072887
 20
-7.079133941242773
 10
-9.075657660297523
 20
-7.619841708806845
 10
-8.617405352933432
 20
-8.134775661109458
 10
-8.129987589388364
 20
-8.622193424654498
 10
-7.61505363708575
 20
-9.080445732018589
 10
-7.115047271382692
 20
-9.477352466865682
 10
-6.651714013719796
 20
-9.884926122797971
 10
-6.256583905175161
 20
-10.35891577457113
 10
-5.93906089397727
 20
-10.88804064643632
 10
-5.706701908575936
 20
-11.4597077651075
 10
-5.565037005582623
 20
-12.06031166779747
 10
-5.517437756499318
 20
-12.67555820712398
 10
-5.517437756499347
 20
-17.629777715577
 10
-5.565037005582652
 20
-18.2450242549035
 10
-5.706701908575964
 20
-18.84562815759347
 10
-5.93906089397727
 20
-19.41729527626465
 10
-6.25658390517519
 20
-19.94642014812984
 10
-6.651714013719825
 20
-20.420409799903
 10
-7.11504727138272
 20
-20.82798345583529
 10
-7.615053637085722
 20
-21.2249757602776
 10
-8.129987589388335
 20
-21.68322806764169
 10
-8.617405352933403
 20
-22.17064583118673
 10
-9.075657660297495
 20
-22.68557978348935
 10
-9.503193930728841
 20
-23.22628755105342
 10
-9.898567516821842
 20
-23.79093954995054
 10
-10.2604405995135
 20
-24.3776251765528
 10
-10.58758871484035
 20
-24.98435927241076
 10
-10.87890489713656
 20
-25.60908884140116
 10
-11.13340342465487
 20
-26.24969999641603
 10
-11.35022315493795
 20
-26.90402511208747
 10
-11.52863043865129
 20
-27.5698501593458
 10
-11.66802160202012
 20
-28.24492219699303
 10
-11.76792498947093
 20
-28.9269569949428
 10
-11.82800255956424
 20
-29.61364676333181
 10
-11.84805102881994
 20
-30.30266796135044
 10
-11.82800255956424
 20
-30.99168915936906
 10
-11.76792498947093
 20
-31.6783789277581
 10
-11.66802160202012
 20
-32.36041372570784
 10
-11.52863043865129
 20
-33.03548576335509
 10
-11.35022315493806
 20
-33.70131081061339
 10
-11.13340342465487
 20
-34.35563592628485
 10
-10.93350611354769
 20
-34.85880758940404
 10
-10.89946585769728
 20
-35.49612562604251
 10
-11.25784525462227
 20
-36.02423283741415
 10
-11.862664542682
 20
-36.22801371883818
 10
-14.31243751458037
 20
-36.22896352062457
 10
-15.1708332842549
 20
-36.03538448557294
 10
-15.86306162914336
 20
-35.49212022322953
 10
-16.19851337973914
 20
-34.93567422889574
 10
-16.34997378202898
 20
-34.3689099377875
 10
-16.48161278891719
 20
-33.79721667474977
 10
-16.59327083169795
 20
-33.2212874285575
 10
-16.68481256196803
 20
-32.64182032271248
 10
-16.756127015692
 20
-32.05951776919989
 10
-16.80712774770929
 20
-31.47508561704625
 10
-16.83775293652032
 20
-30.88923229671127
 10
-16.84796545922468
 20
-30.30266796135048
 10
-16.83480322877294
 20
-29.63678965271388
 10
-16.79533710054066
 20
-28.97195163413676
 10
-16.72962873177114
 20
-28.30919257045158
 10
-16.63778077750202
 20
-27.64954787857588
 10
-16.5199367301892
 20
-26.99404810989847
 10
-16.37628069553095
 20
-26.343717340267
 10
-16.20703710484288
 20
-25.69957157009211
 10
-16.01247036443276
 20
-25.06261713706775
 10
-15.7928844425232
 20
-24.43384914398737
 10
-15.54862239436743
 20
-23.81424990411215
 10
-15.28006582629995
 20
-23.2047874065202
 10
-14.9876342995597
 20
-22.60641380383407
 10
-14.67178467481692
 20
-22.02006392468934
 10
-14.33301039842753
 20
-21.44665381326816
 10
-13.97184073153066
 20
-20.88707929817942
 10
-13.58883992319308
 20
-20.34221459292134
 10
-13.18460632889285
 20
-19.812910930113
 10
-12.75977147571898
 20
-19.29999523162842
 10
-11.5117286887406
 20
-17.99999523162842
 10
-11.51743775649932
 20
-12.29999523162842
 10
-12.76437814683588
 20
-10.99999523162842
 10
-13.18875422976687
 20
-10.48720856220364
 10
-13.5925468224154
 20
-9.958061351849317
 10
-13.97512582895847
 20
-9.41337930527893
 10
-14.33589425619117
 20
-8.854012368451556
 10
-14.6742891451013
 20
-8.280833402278624
 10
-14.98978244933558
 20
-7.694736820573077
 10
-15.28188185918647
 20
-7.096637194366579
 10
-15.55013156981401
 20
-6.487467824772359
 10
-15.79411299250394
 20
-5.868179286620887
 10
-16.01344540785193
 20
-5.239737945140867
 10
-16.20778655985508
 20
-4.603124448000194
 10
-16.37683318998326
 20
-3.959332195059936
 10
-16.52032151039715
 20
-3.30936578822925
 10
-16.63802761557447
 20
-2.654239463840156
 10
-16.72976783170209
 20
-1.994975509988251
 10
-16.79539900328869
 20
-1.332602671309182
 10
-16.834818716551
 20
-0.6681545436800251
 10
-16.84796545922468
 20
-0.0026679613504756
 10
-16.8336496998789
 20
0.6917642880352408
 10
-16.79072674717874
 20
1.385016558196732
 10
-16.71926953580213
 20
2.075910874930365
 10
-16.61939948583701
 20
2.763273270666794
 10
-16.49128629646462
 20
3.44593577927656
 10
-16.33514765760633
 20
4.122738420678054
 10
-16.15124888002516
 20
4.792531171875556
 10
-15.93990244450974
 20
5.454175921078235
 10
-15.70146747090688
 20
6.10654840157963
 10
-15.43634910790517
 20
6.748540102111541
  0
ENDSEC
  0
SECTION
  2
OBJECTS
  0
DICTIONARY
  5
C
330
0
100
AcDbDictionary
281
     1
  3
ACAD_COLOR
350
73
  3
ACAD_DETAILVIEWSTYLE
350
122
  3
ACAD_GROUP
350
D
  3
ACAD_IMAGE_VARS
350
DC
  3
ACAD_LAYOUT
350
1A
  3
ACAD_MATERIAL
350
72
  3
ACAD_MLEADERSTYLE
350
B5
  3
ACAD_MLINESTYLE
350
17
  3
ACAD_PLOTSETTINGS
350
19
  3
ACAD_PLOTSTYLENAME
350
E
  3
ACAD_SCALELIST
350
B6
  3
ACAD_SECTIONVIEWSTYLE
350
123
  3
ACAD_TABLESTYLE
350
86
  3
ACAD_VISUALSTYLE
350
99
  3
ACDB_RECOMPOSE_DATA
350
218
  3
AcDbVariableDictionary
350
66
  3
APPDATA
350
E1
  3
DimOffsetDictionary
350
129
  0
SUN
  5
ED
330
94
100
AcDbSun
 90
        1
290
     0
 63
     7
421
 16777215
 40
1.0
291
     1
 91
  2455826
 92
 54000000
292
     0
 70
     2
 71
   256
280
     1
  0
DICTIONARY
  5
15E
330
2
100
AcDbDictionary
280
     1
281
     1
  3
ACAD_LAYERSTATES
360
15F
  3
ACLYDICTIONARY
360
1DC
  0
DICTIONARY
  5
164
330
163
100
AcDbDictionary
280
     1
281
     1
  3
TC_EXTENDED_DATA
360
165
  0
DICTIONARY
  5
73
102
{ACAD_REACTORS
330
C
102
}
330
C
100
AcDbDictionary
281
     1
  0
DICTIONARY
  5
122
102
{ACAD_REACTORS
330
C
102
}
330
C
100
AcDbDictionary
281
     1
  0
DICTIONARY
  5
D
102
{ACAD_REACTORS
330
C
102
}
330
C
100
AcDbDictionary
281
     1
  0
RASTERVARIABLES
  5
DC
102
{ACAD_REACTORS
330
C
102
}
330
C
100
AcDbRasterVariables
 90
        0
 70
     1
 71
     1
 72
     5
  0
DICTIONARY
  5
1A
102
{ACAD_REACTORS
330
C
102
}
330
C
100
AcDbDictionary
281
     1
  3
Model
350
22
  3
Sheet1
350
59
  3
Sheet2
350
5E
  0
DICTIONARY
  5
72
102
{ACAD_REACTORS
330
C
102
}
330
C
100
AcDbDictionary
281
     1
  3
ByBlock
350
1E7
  3
ByLayer
350
96
  3
Global
350
98
  0
DICTIONARY
  5
B5
102
{ACAD_REACTORS
330
C
102
}
330
C
100
AcDbDictionary
281
     1
  3
Standard
350
124
  0
DICTIONARY
  5
17
102
{ACAD_REACTORS
330
C
102
}
330
C
100
AcDbDictionary
281
     1
  3
Standard
350
18
  0
DICTIONARY
  5
19
102
{ACAD_REACTORS
330
C
102
}
330
C
100
AcDbDictionary
281
     1
  0
ACDBDICTIONARYWDFLT
  5
E
102
{ACAD_REACTORS
330
C
102
}
330
C
100
AcDbDictionary
281
     1
  3
Normal
350
F
100
AcDbDictionaryWithDefault
340
F
  0
DICTIONARY
  5
B6
102
{ACAD_REACTORS
330
C
102
}
330
C
100
AcDbDictionary
281
     1
  3
A0
350
B7
  3
A1
350
B8
  3
A2
350
B9
  3
A3
350
BA
  3
A4
350
BB
  3
A5
350
BC
  3
A6
350
BD
  3
A7
350
BE
  3
A8
350
BF
  3
A9
350
C0
  3
B0
350
C1
  3
B1
350
C2
  3
B2
350
C3
  3
B3
350
C4
  3
B4
350
C5
  3
B5
350
C6
  3
B6
350
C7
  3
B7
350
C8
  3
B8
350
C9
  3
B9
350
CA
  3
C0
350
CB
  3
C1
350
CC
  3
C2
350
CD
  3
C3
350
CE
  3
C4
350
CF
  3
C5
350
D0
  3
C6
350
D1
  3
C7
350
D2
  3
C8
350
D3
  3
C9
350
D4
  3
D0
350
D5
  3
D1
350
D6
  3
D2
350
D7
  0
DICTIONARY
  5
123
102
{ACAD_REACTORS
330
C
102
}
330
C
100
AcDbDictionary
281
     1
  0
DICTIONARY
  5
86
102
{ACAD_REACTORS
330
C
102
}
330
C
100
AcDbDictionary
281
     1
  3
Standard
350
87
  0
DICTIONARY
  5
99
102
{ACAD_REACTORS
330
C
102
}
330
C
100
AcDbDictionary
281
     1
  3
2dWireframe
350
9F
  3
3D Hidden
350
A1
  3
3dWireframe
350
A0
  3
Basic
350
9E
  3
Brighten
350
A5
  3
ColorChange
350
A9
  3
Conceptual
350
A2
  3
Dim
350
A4
  3
EdgeColorOff
350
E7
  3
Facepattern
350
A8
  3
Flat
350
9A
  3
FlatWithEdges
350
9B
  3
Gouraud
350
9C
  3
GouraudWithEdges
350
9D
  3
Hidden
350
E4
  3
JitterOff
350
E5
  3
Linepattern
350
A7
  3
OverhangOff
350
E6
  3
Realistic
350
A3
  3
Shaded
350
EC
  3
Shaded with edges
350
EB
  3
Shades of Gray
350
E8
  3
Sketchy
350
E9
  3
Thicken
350
A6
  3
Wireframe
350
E3
  3
X-Ray
350
EA
  0
XRECORD
  5
218
102
{ACAD_REACTORS
330
C
102
}
330
C
100
AcDbXrecord
280
     1
 90
        1
330
87
  0
DICTIONARY
  5
66
102
{ACAD_REACTORS
330
C
102
}
330
C
100
AcDbDictionary
281
     1
  3
CANNOSCALE
350
D8
  3
CMLEADERSTYLE
350
128
  3
CTABLESTYLE
350
89
  3
DIMASSOC
350
67
  3
HIDETEXT
350
6B
  3
HPTRANSPARENCY
350
12D
  3
LIGHTSINBLOCKS
350
DF
  3
XCLIPFRAME
350
E0
  0
DICTIONARY
  5
E1
102
{ACAD_REACTORS
330
C
102
}
330
C
100
AcDbDictionary
281
     1
  0
DICTIONARY
  5
129
102
{ACAD_REACTORS
330
C
102
}
330
C
100
AcDbDictionary
281
     1
  3
DIMRAILANGLE
350
130
  3
DIMRAILFIRSTOFFSET
350
12E
  3
DIMRAILOFFSET
350
12F
  3
DIMRAILSENABLED
350
131
  0
DICTIONARY
  5
15F
102
{ACAD_REACTORS
330
15E
102
}
330
15E
100
AcDbDictionary
281
     1
  0
DICTIONARY
  5
1DC
102
{ACAD_REACTORS
330
15E
102
}
330
15E
100
AcDbDictionary
281
     1
1001
ACAD
1000
<All
  0
ACAD_PROXY_OBJECT
  5
165
102
{ACAD_REACTORS
330
164
102
}
330
164
100
AcDbProxyObject
 90
      499
 91
      513
 95
  1638427
 70
     0
 96
      234
311
4393C01C0019401B8014C010C01040110017C013401BC0190019401B0000
 93
       20
310
409010
  0
LAYOUT
  5
22
102
{ACAD_REACTORS
330
1A
102
}
330
1A
100
AcDbPlotSettings
  1

  2
none_device
  4
ANSI_A_(8.50_x_11.00_Inches)
  6

 40
6.35
 41
19.05
 42
6.35
 43
19.05
 44
215.9
 45
279.4
 46
11.11250000000003
 47
0.0000000000000142
 48
0.0
 49
0.0
140
0.0
141
0.0
142
1.0
143
1.263157894736842
 70
 11444
 72
     0
 73
     1
 74
     1
  7
monochrome.ctb
 75
     0
 76
     0
 77
     2
 78
   300
147
0.7916666666666665
148
-702.8076765758875
149
-496.2830551296954
100
AcDbLayout
  1
Model
 70
     1
 71
     0
 10
0.0
 20
0.0
 11
12.0
 21
9.0
 12
0.0
 22
0.0
 32
0.0
 14
-17.90056162872463
 24
-51.85008556959534
 34
0.0
 15
17.90056162872463
 25
25.35008556959528
 35
0.0000000000000009
146
0.0
 13
0.0
 23
0.0
 33
0.0
 16
1.0
 26
0.0
 36
0.0
 17
0.0
 27
1.0
 37
0.0
 76
     0
330
1F
331
94
  0
LAYOUT
  5
59
102
{ACAD_REACTORS
330
1A
102
}
330
1A
100
AcDbPlotSettings
  1

  2
None
  4

  6

 40
0.0
 41
0.0
 42
0.0
 43
0.0
 44
0.0
 45
0.0
 46
0.0
 47
0.0
 48
0.0
 49
0.0
140
0.0
141
0.0
142
1.0
143
1.0
 70
   688
 72
     0
 73
     0
 74
     5
  7

 75
    16
 76
     0
 77
     2
 78
   300
147
1.0
148
0.0
149
0.0
100
AcDbLayout
  1
Sheet1
 70
     1
 71
     1
 10
0.0
 20
0.0
 11
12.0
 21
9.0
 12
0.0
 22
0.0
 32
0.0
 14
0.0
 24
0.0
 34
0.0
 15
0.0
 25
0.0
 35
0.0
146
0.0
 13
0.0
 23
0.0
 33
0.0
 16
1.0
 26
0.0
 36
0.0
 17
0.0
 27
1.0
 37
0.0
 76
     0
330
58
  0
LAYOUT
  5
5E
102
{ACAD_REACTORS
330
1A
102
}
330
1A
100
AcDbPlotSettings
  1

  2
None
  4

  6

 40
0.0
 41
0.0
 42
0.0
 43
0.0
 44
0.0
 45
0.0
 46
0.0
 47
0.0
 48
0.0
 49
0.0
140
0.0
141
0.0
142
1.0
143
1.0
 70
   688
 72
     0
 73
     0
 74
     5
  7

 75
    16
 76
     0
 77
     2
 78
   300
147
1.0
148
0.0
149
0.0
100
AcDbLayout
  1
Sheet2
 70
     1
 71
     2
 10
0.0
 20
0.0
 11
12.0
 21
9.0
 12
0.0
 22
0.0
 32
0.0
 14
0.0
 24
0.0
 34
0.0
 15
0.0
 25
0.0
 35
0.0
146
0.0
 13
0.0
 23
0.0
 33
0.0
 16
1.0
 26
0.0
 36
0.0
 17
0.0
 27
1.0
 37
0.0
 76
     0
330
5D
  0
MATERIAL
  5
1E7
102
{ACAD_REACTORS
330
72
102
}
330
72
100
AcDbMaterial
  1
ByBlock
 72
     1
 94
      127
  0
MATERIAL
  5
96
102
{ACAD_REACTORS
330
72
102
}
330
72
100
AcDbMaterial
  1
ByLayer
 72
     1
 94
       63
  0
MATERIAL
  5
98
102
{ACAD_REACTORS
330
72
102
}
330
72
100
AcDbMaterial
  1
Global
 72
     1
 94
       63
  0
MLEADERSTYLE
  5
124
102
{ACAD_REACTORS
330
B5
102
}
330
B5
100
AcDbMLeaderStyle
170
     2
171
     1
172
     0
 90
        2
 40
0.0
 41
0.0
173
     1
 91
-1056964608
340
14
 92
       -2
290
     1
 42
0.09
291
     1
 43
0.36
  3
Standard
341
0
 44
0.18
300

342
11
174
     1
178
     6
175
     1
176
     0
 93
-1056964608
 45
0.18
292
     0
297
     0
 46
0.18
343
0
 94
-1056964608
 47
1.0
 49
1.0
140
1.0
293
     1
141
0.0
294
     1
177
     0
142
1.0
295
     0
296
     0
143
0.125
1001
ACAD_MLEADERVER
1070
     2
  0
MLINESTYLE
  5
18
102
{ACAD_REACTORS
330
17
102
}
330
17
100
AcDbMlineStyle
  2
STANDARD
 70
     0
  3

 62
   256
 51
90.0
 52
90.0
 71
     2
 49
0.5
 62
   256
  6
BYLAYER
 49
-0.5
 62
   256
  6
BYLAYER
  0
ACDBPLACEHOLDER
  5
F
102
{ACAD_REACTORS
330
E
102
}
330
E
  0
SCALE
  5
B7
102
{ACAD_REACTORS
330
B6
102
}
330
B6
100
AcDbScale
 70
     0
300
1:1
140
1.0
141
1.0
290
     1
  0
SCALE
  5
B8
102
{ACAD_REACTORS
330
B6
102
}
330
B6
100
AcDbScale
 70
     0
300
1:2
140
1.0
141
2.0
290
     0
  0
SCALE
  5
B9
102
{ACAD_REACTORS
330
B6
102
}
330
B6
100
AcDbScale
 70
     0
300
1:4
140
1.0
141
4.0
290
     0
  0
SCALE
  5
BA
102
{ACAD_REACTORS
330
B6
102
}
330
B6
100
AcDbScale
 70
     0
300
1:5
140
1.0
141
5.0
290
     0
  0
SCALE
  5
BB
102
{ACAD_REACTORS
330
B6
102
}
330
B6
100
AcDbScale
 70
     0
300
1:8
140
1.0
141
8.0
290
     0
  0
SCALE
  5
BC
102
{ACAD_REACTORS
330
B6
102
}
330
B6
100
AcDbScale
 70
     0
300
1:10
140
1.0
141
10.0
290
     0
  0
SCALE
  5
BD
102
{ACAD_REACTORS
330
B6
102
}
330
B6
100
AcDbScale
 70
     0
300
1:16
140
1.0
141
16.0
290
     0
  0
SCALE
  5
BE
102
{ACAD_REACTORS
330
B6
102
}
330
B6
100
AcDbScale
 70
     0
300
1:20
140
1.0
141
20.0
290
     0
  0
SCALE
  5
BF
102
{ACAD_REACTORS
330
B6
102
}
330
B6
100
AcDbScale
 70
     0
300
1:30
140
1.0
141
30.0
290
     0
  0
SCALE
  5
C0
102
{ACAD_REACTORS
330
B6
102
}
330
B6
100
AcDbScale
 70
     0
300
1:40
140
1.0
141
40.0
290
     0
  0
SCALE
  5
C1
102
{ACAD_REACTORS
330
B6
102
}
330
B6
100
AcDbScale
 70
     0
300
1:50
140
1.0
141
50.0
290
     0
  0
SCALE
  5
C2
102
{ACAD_REACTORS
330
B6
102
}
330
B6
100
AcDbScale
 70
     0
300
1:100
140
1.0
141
100.0
290
     0
  0
SCALE
  5
C3
102
{ACAD_REACTORS
330
B6
102
}
330
B6
100
AcDbScale
 70
     0
300
2:1
140
2.0
141
1.0
290
     0
  0
SCALE
  5
C4
102
{ACAD_REACTORS
330
B6
102
}
330
B6
100
AcDbScale
 70
     0
300
4:1
140
4.0
141
1.0
290
     0
  0
SCALE
  5
C5
102
{ACAD_REACTORS
330
B6
102
}
330
B6
100
AcDbScale
 70
     0
300
8:1
140
8.0
141
1.0
290
     0
  0
SCALE
  5
C6
102
{ACAD_REACTORS
330
B6
102
}
330
B6
100
AcDbScale
 70
     0
300
10:1
140
10.0
141
1.0
290
     0
  0
SCALE
  5
C7
102
{ACAD_REACTORS
330
B6
102
}
330
B6
100
AcDbScale
 70
     0
300
100:1
140
100.0
141
1.0
290
     0
  0
SCALE
  5
C8
102
{ACAD_REACTORS
330
B6
102
}
330
B6
100
AcDbScale
 70
     0
300
1/128" = 1'-0"
140
0.0078125
141
12.0
290
     0
  0
SCALE
  5
C9
102
{ACAD_REACTORS
330
B6
102
}
330
B6
100
AcDbScale
 70
     0
300
1/64" = 1'-0"
140
0.015625
141
12.0
290
     0
  0
SCALE
  5
CA
102
{ACAD_REACTORS
330
B6
102
}
330
B6
100
AcDbScale
 70
     0
300
1/32" = 1'-0"
140
0.03125
141
12.0
290
     0
  0
SCALE
  5
CB
102
{ACAD_REACTORS
330
B6
102
}
330
B6
100
AcDbScale
 70
     0
300
1/16" = 1'-0"
140
0.0625
141
12.0
290
     0
  0
SCALE
  5
CC
102
{ACAD_REACTORS
330
B6
102
}
330
B6
100
AcDbScale
 70
     0
300
3/32" = 1'-0"
140
0.09375
141
12.0
290
     0
  0
SCALE
  5
CD
102
{ACAD_REACTORS
330
B6
102
}
330
B6
100
AcDbScale
 70
     0
300
1/8" = 1'-0"
140
0.125
141
12.0
290
     0
  0
SCALE
  5
CE
102
{ACAD_REACTORS
330
B6
102
}
330
B6
100
AcDbScale
 70
     0
300
3/16" = 1'-0"
140
0.1875
141
12.0
290
     0
  0
SCALE
  5
CF
102
{ACAD_REACTORS
330
B6
102
}
330
B6
100
AcDbScale
 70
     0
300
1/4" = 1'-0"
140
0.25
141
12.0
290
     0
  0
SCALE
  5
D0
102
{ACAD_REACTORS
330
B6
102
}
330
B6
100
AcDbScale
 70
     0
300
3/8" = 1'-0"
140
0.375
141
12.0
290
     0
  0
SCALE
  5
D1
102
{ACAD_REACTORS
330
B6
102
}
330
B6
100
AcDbScale
 70
     0
300
1/2" = 1'-0"
140
0.5
141
12.0
290
     0
  0
SCALE
  5
D2
102
{ACAD_REACTORS
330
B6
102
}
330
B6
100
AcDbScale
 70
     0
300
3/4" = 1'-0"
140
0.75
141
12.0
290
     0
  0
SCALE
  5
D3
102
{ACAD_REACTORS
330
B6
102
}
330
B6
100
AcDbScale
 70
     0
300
1" = 1'-0"
140
1.0
141
12.0
290
     0
  0
SCALE
  5
D4
102
{ACAD_REACTORS
330
B6
102
}
330
B6
100
AcDbScale
 70
     0
300
1-1/2" = 1'-0"
140
1.5
141
12.0
290
     0
  0
SCALE
  5
D5
102
{ACAD_REACTORS
330
B6
102
}
330
B6
100
AcDbScale
 70
     0
300
3" = 1'-0"
140
3.0
141
12.0
290
     0
  0
SCALE
  5
D6
102
{ACAD_REACTORS
330
B6
102
}
330
B6
100
AcDbScale
 70
     0
300
6" = 1'-0"
140
6.0
141
12.0
290
     0
  0
SCALE
  5
D7
102
{ACAD_REACTORS
330
B6
102
}
330
B6
100
AcDbScale
 70
     0
300
1'-0" = 1'-0"
140
12.0
141
12.0
290
     0
  0
TABLESTYLE
  5
87
102
{ACAD_REACTORS
330
86
102
}
102
{ACAD_XDICTIONARY
360
216
102
}
330
86
100
AcDbTableStyle
  3
Standard
 70
     0
 71
     0
 40
0.06
 41
0.06
280
     0
281
     0
  7
Standard
140
0.18
170
     2
 62
     0
 63
   257
283
     0
 90
      512
 91
        0
  1

274
    -2
284
     1
 64
     0
275
    -2
285
     1
 65
     0
276
    -2
286
     1
 66
     0
277
    -2
287
     1
 67
     0
278
    -2
288
     1
 68
     0
279
    -2
289
     1
 69
     0
  7
Standard
140
0.25
170
     5
 62
     0
 63
   257
283
     0
 90
      512
 91
        0
  1

274
    -2
284
     1
 64
     0
275
    -2
285
     1
 65
     0
276
    -2
286
     1
 66
     0
277
    -2
287
     1
 67
     0
278
    -2
288
     1
 68
     0
279
    -2
289
     1
 69
     0
  7
Standard
140
0.18
170
     5
 62
     0
 63
   257
283
     0
 90
      512
 91
        0
  1

274
    -2
284
     1
 64
     0
275
    -2
285
     1
 65
     0
276
    -2
286
     1
 66
     0
277
    -2
287
     1
 67
     0
278
    -2
288
     1
 68
     0
279
    -2
289
     1
 69
     0
  0
VISUALSTYLE
  5
9F
102
{ACAD_REACTORS
330
99
102
}
330
99
100
AcDbVisualStyle
  2
2dWireframe
 70
     4
 71
     0
 72
     2
 73
     1
 90
        0
 40
-0.6
 41
-30.0
 62
     5
 63
     7
421
 16777215
 74
     1
 91
        4
 64
     7
 65
   257
 75
     1
175
     1
 42
1.0
 92
        0
 66
   257
 43
1.0
 76
     1
 77
     6
 78
     2
 67
     7
 79
     5
170
     0
171
     0
290
     0
174
     0
 93
        1
 44
0.0
173
     0
291
     0
 45
0.0
  0
VISUALSTYLE
  5
A1
102
{ACAD_REACTORS
330
99
102
}
330
99
100
AcDbVisualStyle
  2
3D Hidden
 70
     6
 71
     1
 72
     2
 73
     2
 90
        0
 40
-0.6
 41
-30.0
 62
     5
 63
     7
421
 16777215
 74
     2
 91
        2
 64
     7
 65
   257
 75
     2
175
     1
 42
40.0
 92
        0
 66
   257
 43
1.0
 76
     1
 77
     6
 78
     2
 67
     7
 79
     3
170
     0
171
     0
290
     0
174
     0
 93
        1
 44
0.0
173
     0
291
     0
 45
0.0
  0
VISUALSTYLE
  5
A0
102
{ACAD_REACTORS
330
99
102
}
330
99
100
AcDbVisualStyle
  2
3dWireframe
 70
     5
 71
     0
 72
     2
 73
     1
 90
        0
 40
-0.6
 41
-30.0
 62
     5
 63
     7
421
 16777215
 74
     1
 91
        4
 64
     7
 65
   257
 75
     1
175
     1
 42
1.0
 92
        0
 66
   257
 43
1.0
 76
     1
 77
     6
 78
     2
 67
     7
 79
     5
170
     0
171
     0
290
     0
174
     0
 93
        1
 44
0.0
173
     0
291
     0
 45
0.0
  0
VISUALSTYLE
  5
9E
102
{ACAD_REACTORS
330
99
102
}
330
99
100
AcDbVisualStyle
  2
Basic
 70
     7
 71
     1
 72
     0
 73
     1
 90
        0
 40
-0.6
 41
-30.0
 62
     5
 63
     7
421
 16777215
 74
     0
 91
        4
 64
     7
 65
   257
 75
     1
175
     1
 42
1.0
 92
        8
 66
     7
 43
1.0
 76
     1
 77
     6
 78
     2
 67
     7
 79
     5
170
     0
171
     0
290
     0
174
     0
 93
        1
 44
0.0
173
     0
291
     1
 45
0.0
  0
VISUALSTYLE
  5
A5
102
{ACAD_REACTORS
330
99
102
}
330
99
100
AcDbVisualStyle
  2
Brighten
 70
    12
 71
     2
 72
     2
 73
     1
 90
        0
 40
-0.6
 41
-30.0
 62
     5
 63
     7
421
 16777215
 74
     1
 91
        4
 64
     7
 65
   257
 75
     1
175
     1
 42
1.0
 92
        8
 66
     7
 43
1.0
 76
     1
 77
     6
 78
     2
 67
     7
 79
     5
170
     0
171
     0
290
     0
174
     0
 93
        1
 44
50.0
173
     0
291
     1
 45
0.0
  0
VISUALSTYLE
  5
A9
102
{ACAD_REACTORS
330
99
102
}
330
99
100
AcDbVisualStyle
  2
ColorChange
 70
    16
 71
     2
 72
     2
 73
     3
 90
        0
 40
-0.6
 41
-30.0
 62
     5
 63
     8
421
  8421504
 74
     1
 91
        4
 64
     7
 65
   257
 75
     1
175
     1
 42
1.0
 92
        8
 66
     8
424
  8421504
 43
1.0
 76
     1
 77
     6
 78
     2
 67
     7
 79
     5
170
     0
171
     0
290
     0
174
     0
 93
        1
 44
0.0
173
     0
291
     1
 45
0.0
  0
VISUALSTYLE
  5
A2
102
{ACAD_REACTORS
330
99
102
}
330
99
100
AcDbVisualStyle
  2
Conceptual
 70
     9
 71
     3
 72
     2
 73
     1
 90
        0
 40
-0.6
 41
-30.0
 62
     5
 63
     7
421
 16777215
 74
     2
 91
        2
 64
     7
 65
   257
 75
     1
175
     1
 42
40.0
 92
        8
 66
     7
 43
1.0
 76
     1
 77
     6
 78
     2
 67
     7
 79
     3
170
     0
171
     0
290
     0
174
     0
 93
        1
 44
0.0
173
     0
291
     0
 45
0.0
  0
VISUALSTYLE
  5
A4
102
{ACAD_REACTORS
330
99
102
}
330
99
100
AcDbVisualStyle
  2
Dim
 70
    11
 71
     2
 72
     2
 73
     1
 90
        0
 40
-0.6
 41
-30.0
 62
     5
 63
     7
421
 16777215
 74
     1
 91
        4
 64
     7
 65
   257
 75
     1
175
     1
 42
1.0
 92
        8
 66
     7
 43
1.0
 76
     1
 77
     6
 78
     2
 67
     7
 79
     5
170
     0
171
     0
290
     0
174
     0
 93
        1
 44
-50.0
173
     0
291
     1
 45
0.0
  0
VISUALSTYLE
  5
E7
102
{ACAD_REACTORS
330
99
102
}
330
99
100
AcDbVisualStyle
  2
EdgeColorOff
 70
    22
 71
     2
 72
     2
 73
     0
 90
        0
 40
0.6
 41
30.0
 62
     5
 63
     7
421
 16777215
 74
     1
 91
        4
 64
     7
 65
   257
 75
     1
175
     1
 42
1.0
 92
        8
 66
     7
 43
1.0
 76
     1
 77
     6
 78
     2
 67
     7
 79
     5
170
     0
171
     0
290
     0
174
     0
 93
        1
 44
0.0
173
     0
291
     1
 45
0.0
  0
VISUALSTYLE
  5
A8
102
{ACAD_REACTORS
330
99
102
}
330
99
100
AcDbVisualStyle
  2
Facepattern
 70
    15
 71
     2
 72
     2
 73
     1
 90
        0
 40
-0.6
 41
-30.0
 62
     5
 63
     7
421
 16777215
 74
     1
 91
        4
 64
     7
 65
   257
 75
     1
175
     1
 42
1.0
 92
        8
 66
     7
 43
1.0
 76
     1
 77
     6
 78
     2
 67
     7
 79
     5
170
     0
171
     0
290
     0
174
     0
 93
        1
 44
0.0
173
     0
291
     1
 45
0.0
  0
VISUALSTYLE
  5
9A
102
{ACAD_REACTORS
330
99
102
}
330
99
100
AcDbVisualStyle
  2
Flat
 70
     0
 71
     2
 72
     1
 73
     1
 90
        2
 40
-0.6
 41
30.0
 62
     5
 63
     7
421
 16777215
 74
     0
 91
        4
 64
     7
 65
   257
 75
     1
175
     1
 42
1.0
 92
        8
 66
     7
 43
1.0
 76
     1
 77
     6
 78
     2
 67
     7
 79
     5
170
     0
171
     0
290
     0
174
     0
 93
        1
 44
0.0
173
     0
291
     1
 45
0.0
  0
VISUALSTYLE
  5
9B
102
{ACAD_REACTORS
330
99
102
}
330
99
100
AcDbVisualStyle
  2
FlatWithEdges
 70
     1
 71
     2
 72
     1
 73
     1
 90
        2
 40
-0.6
 41
30.0
 62
     5
 63
     7
421
 16777215
 74
     1
 91
        4
 64
     7
 65
   257
 75
     1
175
     1
 42
1.0
 92
        0
 66
   257
 43
1.0
 76
     1
 77
     6
 78
     2
 67
     7
 79
     5
170
     0
171
     0
290
     0
174
     0
 93
        1
 44
0.0
173
     0
291
     1
 45
0.0
  0
VISUALSTYLE
  5
9C
102
{ACAD_REACTORS
330
99
102
}
330
99
100
AcDbVisualStyle
  2
Gouraud
 70
     2
 71
     2
 72
     2
 73
     1
 90
        2
 40
-0.6
 41
30.0
 62
     5
 63
     7
421
 16777215
 74
     0
 91
        4
 64
     7
 65
   257
 75
     1
175
     1
 42
1.0
 92
        0
 66
     7
 43
1.0
 76
     1
 77
     6
 78
     2
 67
     7
 79
     5
170
     0
171
     0
290
     0
174
     0
 93
        1
 44
0.0
173
     0
291
     1
 45
0.0
  0
VISUALSTYLE
  5
9D
102
{ACAD_REACTORS
330
99
102
}
330
99
100
AcDbVisualStyle
  2
GouraudWithEdges
 70
     3
 71
     2
 72
     2
 73
     1
 90
        2
 40
-0.6
 41
30.0
 62
     5
 63
     7
421
 16777215
 74
     1
 91
        4
 64
     7
 65
   257
 75
     1
175
     1
 42
1.0
 92
        0
 66
   257
 43
1.0
 76
     1
 77
     6
 78
     2
 67
     7
 79
     5
170
     0
171
     0
290
     0
174
     0
 93
        1
 44
0.0
173
     0
291
     1
 45
0.0
  0
VISUALSTYLE
  5
E4
102
{ACAD_REACTORS
330
99
102
}
330
99
100
AcDbVisualStyle
  2
Hidden
 70
     6
 71
     1
 72
     2
 73
     2
 90
        0
 40
0.6
 41
30.0
 62
     5
 63
     7
421
 16777215
 74
     2
 91
        2
 64
     7
 65
   257
 75
     2
175
     1
 42
40.0
 92
        0
 66
   257
 43
1.0
 76
     1
 77
     6
 78
     2
 67
     7
 79
     3
170
     0
171
     0
290
     0
174
     0
 93
        1
 44
0.0
173
     0
291
     0
 45
0.0
  0
VISUALSTYLE
  5
E5
102
{ACAD_REACTORS
330
99
102
}
330
99
100
AcDbVisualStyle
  2
JitterOff
 70
    20
 71
     2
 72
     2
 73
     0
 90
        0
 40
0.6
 41
30.0
 62
     5
 63
     7
421
 16777215
 74
     1
 91
        4
 64
     7
 65
   257
 75
     1
175
     1
 42
1.0
 92
       10
 66
     7
 43
1.0
 76
     1
 77
     6
 78
     2
 67
     7
 79
     5
170
     0
171
     0
290
     0
174
     0
 93
        1
 44
0.0
173
     0
291
     1
 45
0.0
  0
VISUALSTYLE
  5
A7
102
{ACAD_REACTORS
330
99
102
}
330
99
100
AcDbVisualStyle
  2
Linepattern
 70
    14
 71
     2
 72
     2
 73
     1
 90
        0
 40
-0.6
 41
-30.0
 62
     5
 63
     7
421
 16777215
 74
     1
 91
        4
 64
     7
 65
   257
 75
     7
175
     7
 42
1.0
 92
        8
 66
     7
 43
1.0
 76
     1
 77
     6
 78
     2
 67
     7
 79
     5
170
     0
171
     0
290
     0
174
     0
 93
        1
 44
0.0
173
     0
291
     1
 45
0.0
  0
VISUALSTYLE
  5
E6
102
{ACAD_REACTORS
330
99
102
}
330
99
100
AcDbVisualStyle
  2
OverhangOff
 70
    21
 71
     2
 72
     2
 73
     0
 90
        0
 40
0.6
 41
30.0
 62
     5
 63
     7
421
 16777215
 74
     1
 91
        4
 64
     7
 65
   257
 75
     1
175
     1
 42
1.0
 92
        9
 66
     7
 43
1.0
 76
     1
 77
     6
 78
     2
 67
     7
 79
     5
170
     0
171
     0
290
     0
174
     0
 93
        1
 44
0.0
173
     0
291
     1
 45
0.0
  0
VISUALSTYLE
  5
A3
102
{ACAD_REACTORS
330
99
102
}
330
99
100
AcDbVisualStyle
  2
Realistic
 70
     8
 71
     2
 72
     2
 73
     1
 90
        0
 40
-0.6
 41
-30.0
 62
     5
 63
     7
421
 16777215
 74
     1
 91
        0
 64
     7
 65
   257
 75
     1
175
     1
 42
1.0
 92
        8
 66
     8
424
  7895160
 43
1.0
 76
     1
 77
     6
 78
     2
 67
     7
 79
     5
170
     0
171
     0
290
     0
174
     0
 93
       13
 44
0.0
173
     0
291
     0
 45
0.0
  0
VISUALSTYLE
  5
EC
102
{ACAD_REACTORS
330
99
102
}
330
99
100
AcDbVisualStyle
  2
Shaded
 70
    27
 71
     2
 72
     2
 73
     1
 90
        2
 40
0.6
 41
30.0
 62
     5
 63
     7
421
 16777215
 74
     0
 91
        4
 64
     7
 65
   257
 75
     1
175
     1
 42
1.0
 92
        8
 66
   257
 43
1.0
 76
     1
 77
     6
 78
     2
 67
     8
425
  7895160
 79
     3
170
     0
171
     0
290
     0
174
     0
 93
        5
 44
0.0
173
     0
291
     0
 45
0.0
  0
VISUALSTYLE
  5
EB
102
{ACAD_REACTORS
330
99
102
}
330
99
100
AcDbVisualStyle
  2
Shaded with edges
 70
    26
 71
     2
 72
     2
 73
     1
 90
        2
 40
0.6
 41
30.0
 62
     5
 63
     7
421
 16777215
 74
     1
 91
       10
 64
     7
 65
   257
 75
     2
175
     1
 42
1.0
 92
        8
 66
   257
 43
1.0
 76
     1
 77
     6
 78
     2
 67
     7
 79
     3
170
     0
171
     0
290
     0
174
     0
 93
        5
 44
0.0
173
     0
291
     0
 45
0.0
  0
VISUALSTYLE
  5
E8
102
{ACAD_REACTORS
330
99
102
}
330
99
100
AcDbVisualStyle
  2
Shades of Gray
 70
    23
 71
     2
 72
     2
 73
     3
 90
        0
 40
0.6
 41
30.0
 62
     5
 63
     7
421
 16777215
 74
     2
 91
        2
 64
     7
 65
     7
 75
     1
175
     1
 42
40.0
 92
        8
 66
     7
 43
1.0
 76
     1
 77
     6
 78
     2
 67
     7
 79
     3
170
     0
171
     0
290
     0
174
     0
 93
        1
 44
0.0
173
     0
291
     0
 45
0.0
  0
VISUALSTYLE
  5
E9
102
{ACAD_REACTORS
330
99
102
}
330
99
100
AcDbVisualStyle
  2
Sketchy
 70
    24
 71
     1
 72
     2
 73
     2
 90
        0
 40
0.6
 41
30.0
 62
     5
 63
     7
421
 16777215
 74
     2
 91
        2
 64
     7
 65
     7
 75
     1
175
     1
 42
40.0
 92
       11
 66
     7
 43
1.0
 76
     1
 77
     6
 78
     2
 67
     7
 79
     6
170
     0
171
     0
290
     0
174
     0
 93
        1
 44
0.0
173
     0
291
     0
 45
0.0
  0
VISUALSTYLE
  5
A6
102
{ACAD_REACTORS
330
99
102
}
330
99
100
AcDbVisualStyle
  2
Thicken
 70
    13
 71
     2
 72
     2
 73
     1
 90
        0
 40
-0.6
 41
-30.0
 62
     5
 63
     7
421
 16777215
 74
     1
 91
        4
 64
     7
 65
   257
 75
     1
175
     1
 42
1.0
 92
       12
 66
     7
 43
1.0
 76
     1
 77
     6
 78
     2
 67
     7
 79
     5
170
     0
171
     0
290
     0
174
     0
 93
        1
 44
0.0
173
     0
291
     1
 45
0.0
  0
VISUALSTYLE
  5
E3
102
{ACAD_REACTORS
330
99
102
}
330
99
100
AcDbVisualStyle
  2
Wireframe
 70
     5
 71
     0
 72
     2
 73
     0
 90
        0
 40
0.6
 41
30.0
 62
     5
 63
     7
421
 16777215
 74
     1
 91
        4
 64
     7
 65
   257
 75
     1
175
     1
 42
1.0
 92
        0
 66
   257
 43
1.0
 76
     1
 77
     6
 78
     2
 67
     7
 79
     3
170
     0
171
     0
290
     0
174
     0
 93
        1
 44
0.0
173
     0
291
     0
 45
0.0
  0
VISUALSTYLE
  5
EA
102
{ACAD_REACTORS
330
99
102
}
330
99
100
AcDbVisualStyle
  2
X-Ray
 70
    25
 71
     2
 72
     2
 73
     1
 90
        1
 40
0.5
 41
30.0
 62
     5
 63
     7
421
 16777215
 74
     1
 91
        0
 64
     7
 65
   257
 75
     1
175
     1
 42
1.0
 92
        8
 66
     7
 43
1.0
 76
     1
 77
     6
 78
     2
 67
     7
 79
     3
170
     0
171
     0
290
     0
174
     0
 93
       13
 44
0.0
173
     0
291
     0
 45
0.0
  0
DICTIONARYVAR
  5
D8
102
{ACAD_REACTORS
330
66
102
}
330
66
100
DictionaryVariables
280
     0
  1
1:1
  0
DICTIONARYVAR
  5
128
102
{ACAD_REACTORS
330
66
102
}
330
66
100
DictionaryVariables
280
     0
  1
Standard
  0
DICTIONARYVAR
  5
89
102
{ACAD_REACTORS
330
66
102
}
330
66
100
DictionaryVariables
280
     0
  1
Standard
  0
DICTIONARYVAR
  5
67
102
{ACAD_REACTORS
330
66
102
}
330
66
100
DictionaryVariables
280
     0
  1
2
  0
DICTIONARYVAR
  5
6B
102
{ACAD_REACTORS
330
66
102
}
330
66
100
DictionaryVariables
280
     0
  1
1
  0
DICTIONARYVAR
  5
12D
102
{ACAD_REACTORS
330
66
102
}
330
66
100
DictionaryVariables
280
     0
  1
ByLayer
  0
DICTIONARYVAR
  5
DF
102
{ACAD_REACTORS
330
66
102
}
330
66
100
DictionaryVariables
280
     0
  1
0
  0
DICTIONARYVAR
  5
E0
102
{ACAD_REACTORS
330
66
102
}
330
66
100
DictionaryVariables
280
     0
  1
0
  0
DICTIONARYVAR
  5
130
102
{ACAD_REACTORS
330
129
102
}
330
129
100
DictionaryVariables
280
     0
  1
0.261799
  0
DICTIONARYVAR
  5
12E
102
{ACAD_REACTORS
330
129
102
}
330
129
100
DictionaryVariables
280
     0
  1
0.400000
  0
DICTIONARYVAR
  5
12F
102
{ACAD_REACTORS
330
129
102
}
330
129
100
DictionaryVariables
280
     0
  1
0.250000
  0
DICTIONARYVAR
  5
131
102
{ACAD_REACTORS
330
129
102
}
330
129
100
DictionaryVariables
280
     0
  1
1
  0
DICTIONARY
  5
216
330
87
100
AcDbDictionary
280
     1
281
     1
  3
ACAD_ROUNDTRIP_2008_TABLESTYLE_CELLSTYLEMAP
360
217
  0
CELLSTYLEMAP
  5
217
102
{ACAD_REACTORS
330
216
102
}
330
216
100
AcDbCellStyleMap
 90
        3
300
CELLSTYLE
  1
TABLEFORMAT_BEGIN
 90
        5
170
     1
 91
        0
 92
    32768
 62
   257
 93
        1
300
CONTENTFORMAT
  1
CONTENTFORMAT_BEGIN
 90
        0
 91
        0
 92
      512
 93
        0
300

 40
0.0
140
1.0
 94
        5
 62
     0
340
11
144
0.25
309
CONTENTFORMAT_END
171
     0
 94
        6
 95
        1
302
GRIDFORMAT
  1
GRIDFORMAT_BEGIN
 90
        0
 91
        1
 62
     0
 92
       -2
340
0
 93
        0
 40
0.045
309
GRIDFORMAT_END
 95
        2
302
GRIDFORMAT
  1
GRIDFORMAT_BEGIN
 90
        0
 91
        1
 62
     0
 92
       -2
340
0
 93
        0
 40
0.045
309
GRIDFORMAT_END
 95
        4
302
GRIDFORMAT
  1
GRIDFORMAT_BEGIN
 90
        0
 91
        1
 62
     0
 92
       -2
340
0
 93
        0
 40
0.045
309
GRIDFORMAT_END
 95
        8
302
GRIDFORMAT
  1
GRIDFORMAT_BEGIN
 90
        0
 91
        1
 62
     0
 92
       -2
340
0
 93
        0
 40
0.045
309
GRIDFORMAT_END
 95
       16
302
GRIDFORMAT
  1
GRIDFORMAT_BEGIN
 90
        0
 91
        1
 62
     0
 92
       -2
340
0
 93
        0
 40
0.045
309
GRIDFORMAT_END
 95
       32
302
GRIDFORMAT
  1
GRIDFORMAT_BEGIN
 90
        0
 91
        1
 62
     0
 92
       -2
340
0
 93
        0
 40
0.045
309
GRIDFORMAT_END
309
TABLEFORMAT_END
  1
CELLSTYLE_BEGIN
 90
        1
 91
        1
300
_TITLE
309
CELLSTYLE_END
300
CELLSTYLE
  1
TABLEFORMAT_BEGIN
 90
        5
170
     1
 91
        0
 92
        0
 62
   257
 93
        1
300
CONTENTFORMAT
  1
CONTENTFORMAT_BEGIN
 90
        0
 91
        0
 92
      512
 93
        0
300

 40
0.0
140
1.0
 94
        5
 62
     0
340
11
144
0.18
309
CONTENTFORMAT_END
171
     0
 94
        6
 95
        1
302
GRIDFORMAT
  1
GRIDFORMAT_BEGIN
 90
        0
 91
        1
 62
     0
 92
       -2
340
0
 93
        0
 40
0.045
309
GRIDFORMAT_END
 95
        2
302
GRIDFORMAT
  1
GRIDFORMAT_BEGIN
 90
        0
 91
        1
 62
     0
 92
       -2
340
0
 93
        0
 40
0.045
309
GRIDFORMAT_END
 95
        4
302
GRIDFORMAT
  1
GRIDFORMAT_BEGIN
 90
        0
 91
        1
 62
     0
 92
       -2
340
0
 93
        0
 40
0.045
309
GRIDFORMAT_END
 95
        8
302
GRIDFORMAT
  1
GRIDFORMAT_BEGIN
 90
        0
 91
        1
 62
     0
 92
       -2
340
0
 93
        0
 40
0.045
309
GRIDFORMAT_END
 95
       16
302
GRIDFORMAT
  1
GRIDFORMAT_BEGIN
 90
        0
 91
        1
 62
     0
 92
       -2
340
0
 93
        0
 40
0.045
309
GRIDFORMAT_END
 95
       32
302
GRIDFORMAT
  1
GRIDFORMAT_BEGIN
 90
        0
 91
        1
 62
     0
 92
       -2
340
0
 93
        0
 40
0.045
309
GRIDFORMAT_END
309
TABLEFORMAT_END
  1
CELLSTYLE_BEGIN
 90
        2
 91
        1
300
_HEADER
309
CELLSTYLE_END
300
CELLSTYLE
  1
TABLEFORMAT_BEGIN
 90
        5
170
     1
 91
        0
 92
        0
 62
   257
 93
        1
300
CONTENTFORMAT
  1
CONTENTFORMAT_BEGIN
 90
        0
 91
        0
 92
      512
 93
        0
300

 40
0.0
140
1.0
 94
        2
 62
     0
340
11
144
0.18
309
CONTENTFORMAT_END
171
     0
 94
        6
 95
        1
302
GRIDFORMAT
  1
GRIDFORMAT_BEGIN
 90
        0
 91
        1
 62
     0
 92
       -2
340
0
 93
        0
 40
0.045
309
GRIDFORMAT_END
 95
        2
302
GRIDFORMAT
  1
GRIDFORMAT_BEGIN
 90
        0
 91
        1
 62
     0
 92
       -2
340
0
 93
        0
 40
0.045
309
GRIDFORMAT_END
 95
        4
302
GRIDFORMAT
  1
GRIDFORMAT_BEGIN
 90
        0
 91
        1
 62
     0
 92
       -2
340
0
 93
        0
 40
0.045
309
GRIDFORMAT_END
 95
        8
302
GRIDFORMAT
  1
GRIDFORMAT_BEGIN
 90
        0
 91
        1
 62
     0
 92
       -2
340
0
 93
        0
 40
0.045
309
GRIDFORMAT_END
 95
       16
302
GRIDFORMAT
  1
GRIDFORMAT_BEGIN
 90
        0
 91
        1
 62
     0
 92
       -2
340
0
 93
        0
 40
0.045
309
GRIDFORMAT_END
 95
       32
302
GRIDFORMAT
  1
GRIDFORMAT_BEGIN
 90
        0
 91
        1
 62
     0
 92
       -2
340
0
 93
        0
 40
0.045
309
GRIDFORMAT_END
309
TABLEFORMAT_END
  1
CELLSTYLE_BEGIN
 90
        3
 91
        2
300
_DATA
309
CELLSTYLE_END
  0
ENDSEC
  0
EOF
