  0
SECTION
  2
HEADER
  9
$ACADVER
  1
AC1021
  9
$ACADMAINTVER
 70
    25
  9
$DWGCODEPAGE
  3
ANSI_1252
  9
$LASTSAVEDBY
  1
DDB
  9
$INSBASE
 10
0.0
 20
0.0
 30
0.0
  9
$EXTMIN
 10
-17.90056162872463
 20
-45.92629555927414
 30
0.0
  9
$EXTMAX
 10
18.90056162872463
 20
70.60000000000008
 30
0.0
  9
$LIMMIN
 10
0.0
 20
0.0
  9
$LIMMAX
 10
12.0
 20
9.0
  9
$ORTHOMODE
 70
     1
  9
$REGENMODE
 70
     1
  9
$FILLMODE
 70
     1
  9
$QTEXTMODE
 70
     0
  9
$MIRRTEXT
 70
     0
  9
$LTSCALE
 40
1.0
  9
$ATTMODE
 70
     1
  9
$TEXTSIZE
 40
0.2
  9
$TRACEWID
 40
0.05
  9
$TEXTSTYLE
  7
STANDARD
  9
$CLAYER
  8
0
  9
$CELTYPE
  6
BYLAYER
  9
$CECOLOR
 62
   256
  9
$CELTSCALE
 40
1.0
  9
$DISPSILH
 70
     0
  9
$DIMSCALE
 40
1.0
  9
$DIMASZ
 40
2.0
  9
$DIMEXO
 40
1.0
  9
$DIMDLI
 40
0.38
  9
$DIMRND
 40
0.0
  9
$DIMDLE
 40
0.0
  9
$DIMEXE
 40
1.0
  9
$DIMTP
 40
0.0
  9
$DIMTM
 40
0.0
  9
$DIMTXT
 40
2.0
  9
$DIMCEN
 40
0.09
  9
$DIMTSZ
 40
0.0
  9
$DIMTOL
 70
     0
  9
$DIMLIM
 70
     0
  9
$DIMTIH
 70
     1
  9
$DIMTOH
 70
     1
  9
$DIMSE1
 70
     0
  9
$DIMSE2
 70
     0
  9
$DIMTAD
 70
     1
  9
$DIMZIN
 70
     0
  9
$DIMBLK
  1

  9
$DIMASO
 70
     1
  9
$DIMSHO
 70
     1
  9
$DIMPOST
  1

  9
$DIMAPOST
  1

  9
$DIMALT
 70
     0
  9
$DIMALTD
 70
     2
  9
$DIMALTF
 40
25.4
  9
$DIMLFAC
 40
1.0
  9
$DIMTOFL
 70
     0
  9
$DIMTVP
 40
0.0
  9
$DIMTIX
 70
     0
  9
$DIMSOXD
 70
     0
  9
$DIMSAH
 70
     0
  9
$DIMBLK1
  1

  9
$DIMBLK2
  1

  9
$DIMSTYLE
  2
STANDARD
  9
$DIMCLRD
 70
     0
  9
$DIMCLRE
 70
     0
  9
$DIMCLRT
 70
     0
  9
$DIMTFAC
 40
1.0
  9
$DIMGAP
 40
1.0
  9
$DIMJUST
 70
     0
  9
$DIMSD1
 70
     0
  9
$DIMSD2
 70
     0
  9
$DIMTOLJ
 70
     1
  9
$DIMTZIN
 70
     0
  9
$DIMALTZ
 70
     0
  9
$DIMALTTZ
 70
     0
  9
$DIMUPT
 70
     0
  9
$DIMDEC
 70
     2
  9
$DIMTDEC
 70
     4
  9
$DIMALTU
 70
     2
  9
$DIMALTTD
 70
     2
  9
$DIMTXSTY
  7
STANDARD
  9
$DIMAUNIT
 70
     0
  9
$DIMADEC
 70
     0
  9
$DIMALTRND
 40
0.0
  9
$DIMAZIN
 70
     0
  9
$DIMDSEP
 70
    46
  9
$DIMATFIT
 70
     3
  9
$DIMFRAC
 70
     0
  9
$DIMLDRBLK
  1

  9
$DIMLUNIT
 70
     2
  9
$DIMLWD
 70
    -2
  9
$DIMLWE
 70
    -2
  9
$DIMTMOVE
 70
     2
  9
$DIMFXL
 40
1.0
  9
$DIMFXLON
 70
     0
  9
$DIMJOGANG
 40
0.7853981633974483
  9
$DIMTFILL
 70
     0
  9
$DIMTFILLCLR
 70
     0
  9
$DIMARCSYM
 70
     0
  9
$DIMLTYPE
  6

  9
$DIMLTEX1
  6

  9
$DIMLTEX2
  6

  9
$LUNITS
 70
     2
  9
$LUPREC
 70
     4
  9
$SKETCHINC
 40
0.1
  9
$FILLETRAD
 40
0.0
  9
$AUNITS
 70
     0
  9
$AUPREC
 70
     0
  9
$MENU
  1
.
  9
$ELEVATION
 40
0.0
  9
$PELEVATION
 40
0.0
  9
$THICKNESS
 40
0.0
  9
$LIMCHECK
 70
     0
  9
$CHAMFERA
 40
0.0
  9
$CHAMFERB
 40
0.0
  9
$CHAMFERC
 40
0.0
  9
$CHAMFERD
 40
0.0
  9
$SKPOLY
 70
     0
  9
$TDCREATE
 40
2452642.896717558
  9
$TDUCREATE
 40
2452643.063384225
  9
$TDUPDATE
 40
2457696.08465919
  9
$TDUUPDATE
 40
2457696.251325856
  9
$TDINDWG
 40
0.0067283912
  9
$TDUSRTIMER
 40
2457696.250630567
  9
$USRTIMER
 70
     1
  9
$ANGBASE
 50
0.0
  9
$ANGDIR
 70
     0
  9
$PDMODE
 70
     0
  9
$PDSIZE
 40
0.0
  9
$PLINEWID
 40
0.0
  9
$SPLFRAME
 70
     0
  9
$SPLINETYPE
 70
     6
  9
$SPLINESEGS
 70
     8
  9
$HANDSEED
  5
2EA
  9
$SURFTAB1
 70
     6
  9
$SURFTAB2
 70
     6
  9
$SURFTYPE
 70
     6
  9
$SURFU
 70
     6
  9
$SURFV
 70
     6
  9
$UCSBASE
  2

  9
$UCSNAME
  2

  9
$UCSORG
 10
0.0
 20
0.0
 30
0.0
  9
$UCSXDIR
 10
1.0
 20
0.0
 30
0.0
  9
$UCSYDIR
 10
0.0
 20
1.0
 30
0.0
  9
$UCSORTHOREF
  2

  9
$UCSORTHOVIEW
 70
     0
  9
$UCSORGTOP
 10
0.0
 20
0.0
 30
0.0
  9
$UCSORGBOTTOM
 10
0.0
 20
0.0
 30
0.0
  9
$UCSORGLEFT
 10
0.0
 20
0.0
 30
0.0
  9
$UCSORGRIGHT
 10
0.0
 20
0.0
 30
0.0
  9
$UCSORGFRONT
 10
0.0
 20
0.0
 30
0.0
  9
$UCSORGBACK
 10
0.0
 20
0.0
 30
0.0
  9
$PUCSBASE
  2

  9
$PUCSNAME
  2

  9
$PUCSORG
 10
0.0
 20
0.0
 30
0.0
  9
$PUCSXDIR
 10
1.0
 20
0.0
 30
0.0
  9
$PUCSYDIR
 10
0.0
 20
1.0
 30
0.0
  9
$PUCSORTHOREF
  2

  9
$PUCSORTHOVIEW
 70
     0
  9
$PUCSORGTOP
 10
0.0
 20
0.0
 30
0.0
  9
$PUCSORGBOTTOM
 10
0.0
 20
0.0
 30
0.0
  9
$PUCSORGLEFT
 10
0.0
 20
0.0
 30
0.0
  9
$PUCSORGRIGHT
 10
0.0
 20
0.0
 30
0.0
  9
$PUCSORGFRONT
 10
0.0
 20
0.0
 30
0.0
  9
$PUCSORGBACK
 10
0.0
 20
0.0
 30
0.0
  9
$USERI1
 70
     0
  9
$USERI2
 70
     0
  9
$USERI3
 70
     0
  9
$USERI4
 70
     0
  9
$USERI5
 70
     0
  9
$USERR1
 40
0.0
  9
$USERR2
 40
0.0
  9
$USERR3
 40
0.0
  9
$USERR4
 40
0.0
  9
$USERR5
 40
0.0
  9
$WORLDVIEW
 70
     1
  9
$SHADEDGE
 70
     3
  9
$SHADEDIF
 70
    70
  9
$TILEMODE
 70
     1
  9
$MAXACTVP
 70
    64
  9
$PINSBASE
 10
0.0
 20
0.0
 30
0.0
  9
$PLIMCHECK
 70
     0
  9
$PEXTMIN
 10
0.0
 20
0.0
 30
0.0
  9
$PEXTMAX
 10
0.0
 20
0.0
 30
0.0
  9
$PLIMMIN
 10
0.0
 20
0.0
  9
$PLIMMAX
 10
0.0
 20
0.0
  9
$UNITMODE
 70
     0
  9
$VISRETAIN
 70
     1
  9
$PLINEGEN
 70
     0
  9
$PSLTSCALE
 70
     1
  9
$TREEDEPTH
 70
  3020
  9
$CMLSTYLE
  2
STANDARD
  9
$CMLJUST
 70
     0
  9
$CMLSCALE
 40
1.0
  9
$PROXYGRAPHICS
 70
     1
  9
$MEASUREMENT
 70
     0
  9
$CELWEIGHT
370
    -1
  9
$ENDCAPS
280
     0
  9
$JOINSTYLE
280
     0
  9
$LWDISPLAY
290
     0
  9
$INSUNITS
 70
     0
  9
$HYPERLINKBASE
  1

  9
$STYLESHEET
  1

  9
$XEDIT
290
     1
  9
$CEPSNTYPE
380
     0
  9
$PSTYLEMODE
290
     1
  9
$FINGERPRINTGUID
  2
{E7D72DC9-C8A5-48A1-9786-112C595B3BCF}
  9
$VERSIONGUID
  2
{FAEB1C32-E019-11D5-929B-00C0DF256EC4}
  9
$EXTNAMES
290
     1
  9
$PSVPSCALE
 40
0.0
  9
$OLESTARTUP
290
     0
  9
$SORTENTS
280
   127
  9
$INDEXCTL
280
     0
  9
$HIDETEXT
280
     1
  9
$XCLIPFRAME
290
     0
  9
$HALOGAP
280
     0
  9
$OBSCOLOR
 70
   257
  9
$OBSLTYPE
280
     0
  9
$INTERSECTIONDISPLAY
280
     0
  9
$INTERSECTIONCOLOR
 70
   257
  9
$DIMASSOC
280
     2
  9
$PROJECTNAME
  1

  9
$CAMERADISPLAY
290
     0
  9
$LENSLENGTH
 40
50.0
  9
$CAMERAHEIGHT
 40
0.0
  9
$STEPSPERSEC
 40
2.0
  9
$STEPSIZE
 40
6.0
  9
$3DDWFPREC
 40
2.0
  9
$PSOLWIDTH
 40
0.25
  9
$PSOLHEIGHT
 40
4.0
  9
$LOFTANG1
 40
1.570796326794897
  9
$LOFTANG2
 40
1.570796326794897
  9
$LOFTMAG1
 40
0.0
  9
$LOFTMAG2
 40
0.0
  9
$LOFTPARAM
 70
     7
  9
$LOFTNORMALS
280
     1
  9
$LATITUDE
 40
37.795
  9
$LONGITUDE
 40
-122.394
  9
$NORTHDIRECTION
 40
0.0
  9
$TIMEZONE
 70
 -8000
  9
$LIGHTGLYPHDISPLAY
280
     1
  9
$TILEMODELIGHTSYNCH
280
     1
  9
$SOLIDHIST
280
     0
  9
$SHOWHIST
280
     1
  9
$DWFFRAME
280
     2
  9
$DGNFRAME
280
     2
  9
$REALWORLDSCALE
290
     1
  9
$INTERFERECOLOR
 62
   256
  9
$CSHADOW
280
     0
  9
$SHADOWPLANELOCATION
 40
0.0
  0
ENDSEC
  0
SECTION
  2
CLASSES
  0
CLASS
  1
ACDBDICTIONARYWDFLT
  2
AcDbDictionaryWithDefault
  3
ObjectDBX Classes
 90
        0
 91
        5
280
     0
281
     0
  0
CLASS
  1
ACDBPLACEHOLDER
  2
AcDbPlaceHolder
  3
ObjectDBX Classes
 90
        0
 91
        1
280
     0
281
     0
  0
CLASS
  1
LAYOUT
  2
AcDbLayout
  3
ObjectDBX Classes
 90
        0
 91
        1
280
     0
281
     0
  0
CLASS
  1
DICTIONARYVAR
  2
AcDbDictionaryVar
  3
ObjectDBX Classes
 90
        0
 91
        5
280
     0
281
     0
  0
CLASS
  1
TABLESTYLE
  2
AcDbTableStyle
  3
ObjectDBX Classes
 90
     4095
 91
        5
280
     0
281
     0
  0
CLASS
  1
MATERIAL
  2
AcDbMaterial
  3
ObjectDBX Classes
 90
     1153
 91
        5
280
     0
281
     0
  0
CLASS
  1
VISUALSTYLE
  2
AcDbVisualStyle
  3
ObjectDBX Classes
 90
     4095
 91
        5
280
     0
281
     0
  0
CLASS
  1
SCALE
  2
AcDbScale
  3
ObjectDBX Classes
 90
     1153
 91
        5
280
     0
281
     0
  0
CLASS
  1
CELLSTYLEMAP
  2
AcDbCellStyleMap
  3
ObjectDBX Classes
 90
     1152
 91
        5
280
     0
281
     0
  0
CLASS
  1
RASTERVARIABLES
  2
AcDbRasterVariables
  3
ISM
 90
        0
 91
        5
280
     0
281
     0
  0
CLASS
  1
SUN
  2
AcDbSun
  3
SCENEOE
 90
     1153
 91
        5
280
     0
281
     0
  0
CLASS
  1
MLEADERSTYLE
  2
AcDbMLeaderStyle
  3
ACDB_MLEADERSTYLE_CLASS
 90
     4095
 91
        5
280
     0
281
     0
  0
CLASS
  1
XRECORD
  2
AcDbXrecord
  3
ObjectDBX Classes
 90
        0
 91
        1
280
     0
281
     0
  0
CLASS
  1
LWPOLYLINE
  2
AcDbPolyline
  3
ObjectDBX Classes
 90
        0
 91
        1
280
     0
281
     1
  0
CLASS
  1
HATCH
  2
AcDbHatch
  3
ObjectDBX Classes
 90
        0
 91
        1
280
     0
281
     1
  0
ENDSEC
  0
SECTION
  2
TABLES
  0
TABLE
  2
VPORT
  5
8
330
0
100
AcDbSymbolTable
 70
     1
  0
VPORT
  5
94
330
8
100
AcDbSymbolTableRecord
100
AcDbViewportTableRecord
  2
*ACTIVE
 70
     0
 10
0.0
 20
0.0
 11
1.0
 21
1.0
 12
22.27374908329221
 22
38.32202149213105
 13
0.0
 23
0.0
 14
0.5
 24
0.5
 15
0.5
 25
0.5
 16
0.0
 26
0.0
 36
1.0
 17
-27.66959356597982
 27
-19.53870295786203
 37
0.0
 40
148.5710268380746
 41
2.01813784764208
 42
50.0
 43
0.0
 44
0.0
 50
0.0
 51
0.0
 71
    16
 72
  1000
 73
     1
 74
     3
 75
     0
 76
     0
 77
     0
 78
     0
281
     0
 65
     1
110
0.0
120
0.0
130
0.0
111
1.0
121
0.0
131
0.0
112
0.0
122
1.0
132
0.0
 79
     0
146
0.0
348
27D
 60
     3
 61
     5
292
     1
282
     1
141
0.0
142
0.0
 63
   250
361
291
  0
ENDTAB
  0
TABLE
  2
LTYPE
  5
5
330
0
100
AcDbSymbolTable
 70
     1
  0
LTYPE
  5
14
330
5
100
AcDbSymbolTableRecord
100
AcDbLinetypeTableRecord
  2
BYBLOCK
 70
     0
  3

 72
    65
 73
     0
 40
0.0
  0
LTYPE
  5
15
330
5
100
AcDbSymbolTableRecord
100
AcDbLinetypeTableRecord
  2
BYLAYER
 70
     0
  3

 72
    65
 73
     0
 40
0.0
  0
LTYPE
  5
16
330
5
100
AcDbSymbolTableRecord
100
AcDbLinetypeTableRecord
  2
CONTINUOUS
 70
     0
  3
Solid line
 72
    65
 73
     0
 40
0.0
  0
ENDTAB
  0
TABLE
  2
LAYER
  5
2
102
{ACAD_XDICTIONARY
360
15D
102
}
330
0
100
AcDbSymbolTable
 70
     7
  0
LAYER
  5
10
330
2
100
AcDbSymbolTableRecord
100
AcDbLayerTableRecord
  2
0
 70
     0
 62
     7
  6
CONTINUOUS
370
    -3
390
2A7
347
26A
  0
LAYER
  5
133
330
2
100
AcDbSymbolTableRecord
100
AcDbLayerTableRecord
  2
EMT34_PS_Bracket_Outline
 70
     0
 62
     3
  6
CONTINUOUS
370
    -3
390
2A7
347
26A
1001
ACAECLAYERSTANDARD
1000

1000

  0
LAYER
  5
136
330
2
100
AcDbSymbolTableRecord
100
AcDbLayerTableRecord
  2
EMT12_PS_Bracket_Outline
 70
     0
 62
     4
  6
CONTINUOUS
370
    -3
390
2A7
347
26A
1001
ACAECLAYERSTANDARD
1000

1000

  0
LAYER
  5
137
330
2
100
AcDbSymbolTableRecord
100
AcDbLayerTableRecord
  2
EMT12_PS_Bracket_Cutout
 70
     0
 62
     6
  6
CONTINUOUS
370
    -3
390
2A7
347
26A
1001
ACAECLAYERSTANDARD
1000

1000

  0
LAYER
  5
138
330
2
100
AcDbSymbolTableRecord
100
AcDbLayerTableRecord
  2
EMT34_PS_Bracket_Cutout
 70
     0
 62
     1
  6
CONTINUOUS
370
    -3
390
2A7
347
26A
1001
ACAECLAYERSTANDARD
1000

1000

  0
LAYER
  5
2B1
330
2
100
AcDbSymbolTableRecord
100
AcDbLayerTableRecord
  2
PVC12_PS_Bracket_Outline
 70
     0
 62
   142
  6
CONTINUOUS
370
    -3
390
2A7
347
26A
1001
ACAECLAYERSTANDARD
1000

1000

  0
LAYER
  5
2B2
330
2
100
AcDbSymbolTableRecord
100
AcDbLayerTableRecord
  2
PVC12_PS_Bracket_Cutout
 70
     0
 62
     2
  6
CONTINUOUS
370
    -3
390
2A7
347
26A
1001
ACAECLAYERSTANDARD
1000

1000

  0
ENDTAB
  0
TABLE
  2
STYLE
  5
3
330
0
100
AcDbSymbolTable
 70
     1
  0
STYLE
  5
11
330
3
100
AcDbSymbolTableRecord
100
AcDbTextStyleTableRecord
  2
STANDARD
 70
     0
 40
0.0
 41
1.0
 50
0.0
 71
     0
 42
0.2
  3
arial.ttf
  4

1001
ACAD
1000
Arial
1071
        0
  0
ENDTAB
  0
TABLE
  2
VIEW
  5
6
330
0
100
AcDbSymbolTable
 70
     0
  0
ENDTAB
  0
TABLE
  2
UCS
  5
7
330
0
100
AcDbSymbolTable
 70
     0
  0
ENDTAB
  0
TABLE
  2
APPID
  5
9
330
0
100
AcDbSymbolTable
 70
     4
  0
APPID
  5
12
330
9
100
AcDbSymbolTableRecord
100
AcDbRegAppTableRecord
  2
ACAD
 70
     0
  0
APPID
  5
126
330
9
100
AcDbSymbolTableRecord
100
AcDbRegAppTableRecord
  2
ACADANNOTATIVE
 70
     0
  0
APPID
  5
135
330
9
100
AcDbSymbolTableRecord
100
AcDbRegAppTableRecord
  2
ACAECLAYERSTANDARD
 70
     0
  0
APPID
  5
172
330
9
100
AcDbSymbolTableRecord
100
AcDbRegAppTableRecord
  2
ACAD_MLEADERVER
 70
     0
  0
ENDTAB
  0
TABLE
  2
DIMSTYLE
  5
A
330
0
100
AcDbSymbolTable
 70
     1
100
AcDbDimStyleTable
  0
DIMSTYLE
105
27
330
A
100
AcDbSymbolTableRecord
100
AcDbDimStyleTableRecord
  2
STANDARD
 70
     0
 41
2.0
 42
1.0
 44
1.0
 77
     1
140
2.0
147
1.0
178
     0
271
     2
340
11
  0
ENDTAB
  0
TABLE
  2
BLOCK_RECORD
  5
1
330
0
100
AcDbSymbolTable
 70
     0
  0
BLOCK_RECORD
  5
1F
330
1
100
AcDbSymbolTableRecord
100
AcDbBlockTableRecord
  2
*MODEL_SPACE
340
229
 70
     0
280
     1
281
     0
  0
BLOCK_RECORD
  5
58
330
1
100
AcDbSymbolTableRecord
100
AcDbBlockTableRecord
  2
*PAPER_SPACE
340
22A
 70
     0
280
     1
281
     0
  0
ENDTAB
  0
ENDSEC
  0
SECTION
  2
BLOCKS
  0
BLOCK
  5
20
330
1F
100
AcDbEntity
  8
0
100
AcDbBlockBegin
  2
*MODEL_SPACE
 70
     0
 10
0.0
 20
0.0
 30
0.0
  3
*MODEL_SPACE
  1
*MODEL_SPACE
  0
ENDBLK
  5
21
330
1F
100
AcDbEntity
  8
0
100
AcDbBlockEnd
  0
BLOCK
  5
5A
330
58
100
AcDbEntity
 67
     1
  8
0
100
AcDbBlockBegin
  2
*PAPER_SPACE
 70
     0
 10
0.0
 20
0.0
 30
0.0
  3
*PAPER_SPACE
  1
*PAPER_SPACE
  0
ENDBLK
  5
5B
330
58
100
AcDbEntity
 67
     1
  8
0
100
AcDbBlockEnd
  0
ENDSEC
  0
SECTION
  2
ENTITIES
  0
LWPOLYLINE
  5
162
330
1F
100
AcDbEntity
  8
EMT34_PS_Bracket_Outline
100
AcDbPolyline
 90
      358
 70
     1
 43
0.0
 10
11.96781314731332
 20
50.13273055746112
 10
12.16698326493512
 20
50.78930644368251
 10
12.49041798566571
 20
51.39441024597329
 10
12.9256878945717
 20
51.92478816455761
 10
13.45606581315601
 20
52.36005807346362
 10
14.0611696154468
 20
52.68349279419422
 10
14.71774550166817
 20
52.88266291181603
 10
15.40056162872462
 20
52.94991443040473
 10
16.08337775578107
 20
52.88266291181603
 10
16.73995364200244
 20
52.68349279419422
 10
17.34505744429324
 20
52.36005807346365
 10
17.87543536287756
 20
51.92478816455764
 10
18.31070527178356
 20
51.39441024597335
 10
18.63413999251416
 20
50.78930644368256
 10
18.83331011013597
 20
50.13273055746117
 10
18.90056162872463
 20
49.44991443040468
 10
18.90056162872463
 20
4.945278077940543
 10
18.88944112237719
 20
4.128512067883037
 10
18.85608784771228
 20
3.312351581265489
 10
18.80052653175009
 20
2.497401692612698
 10
18.72279836582174
 20
1.684266578951949
 10
18.62296097503139
 20
0.8735490718961074
 10
18.50108837553492
 20
0.0658502107240508
 10
18.35727091966674
 20
-0.7382312032100486
 10
18.19161522895558
 20
-1.538099050408377
 10
18.00424411507877
 20
-2.333160335172778
 10
17.79529648881373
 20
-3.122825625232352
 10
17.56492725705406
 20
-3.906509488729057
 10
17.31330720796671
 20
-4.683630928237662
 10
16.95347010941652
 20
-5.745429302749159
 10
16.82102567043592
 20
-6.122352653866301
 10
16.53796250923563
 20
-6.850248365343219
 10
16.22341839644253
 20
-7.565104239713918
 10
15.8779920846531
 20
-8.265559508191842
 10
15.50234111248449
 20
-8.950280814362287
 10
15.09718055291273
 20
-9.61796475230193
 10
14.66328165209086
 20
-10.26734034768616
 10
14.20147036123774
 20
-10.89717147716109
 10
13.71262576439335
 20
-11.50625922137446
 10
13.19767840503152
 20
-12.09344414718706
 10
12.65760851471885
 20
-12.65760851471892
 10
12.09344414718691
 20
-13.19767840503155
 10
11.50625922137453
 20
-13.71262576439331
 10
10.89717147716112
 20
-14.20147036123777
 10
10.26734034768617
 20
-14.66328165209084
 10
9.617964752301873
 20
-15.09718055291272
 10
8.950280814362372
 20
-15.50234111248447
 10
8.309029657091514
 20
-15.85414354430932
 10
7.0
 20
-17.16317320140077
 10
7.0
 20
-22.83682679859923
 10
8.309029657091514
 20
-24.14585645569068
 10
8.950280814362372
 20
-24.49765888751555
 10
9.617964752301987
 20
-24.9028194470873
 10
10.26734034768617
 20
-25.33671834790913
 10
10.89717147716112
 20
-25.79852963876224
 10
11.50625922137453
 20
-26.2873742356067
 10
12.09344414718703
 20
-26.80232159496845
 10
12.65760851471885
 20
-27.34239148528109
 10
13.19767840503152
 20
-27.90655585281294
 10
13.71262576439324
 20
-28.49374077862552
 10
14.20147036123774
 20
-29.10282852283891
 10
14.66328165209086
 20
-29.73265965231382
 10
15.09718055291273
 20
-30.38203524769808
 10
15.50234111248449
 20
-31.04971918563772
 10
15.8779920846531
 20
-31.73444049180817
 10
16.22341839644253
 20
-32.43489576028607
 10
16.53796250923563
 20
-33.14975163465677
 10
16.82102567043592
 20
-33.87764734613371
 10
17.07206905322789
 20
-34.61719730385884
 10
17.29061478226424
 20
-35.36699373245469
 10
17.47624684332811
 20
-36.12560935180365
 10
17.62861187524084
 20
-36.89160009395739
 10
17.7474198425042
 20
-37.66350785200216
 10
17.8324445874
 20
-38.43986325564825
 10
17.8835242604938
 20
-39.21918846825961
 10
17.90056162872463
 20
-39.99999999999991
 10
17.8835242604938
 20
-40.78081153174031
 10
17.83244458740012
 20
-41.56013674435187
 10
17.7474198425042
 20
-42.33649214799781
 10
17.62861187524084
 20
-43.10839990604264
 10
17.47624684332811
 20
-43.87439064819641
 10
17.29061478226424
 20
-44.6330062675453
 10
16.95516303166846
 20
-45.18945226187909
 10
16.26293468678
 20
-45.7327165242225
 10
15.40453891710547
 20
-45.92629555927414
 10
11.86469908345737
 20
-45.92534575748774
 10
11.25987979539764
 20
-45.72156487606372
 10
10.90150039847265
 20
-45.19345766469207
 10
10.93554065432306
 20
-44.5561396280536
 10
11.13543796543024
 20
-44.05296796493442
 10
11.35225769571343
 20
-43.39864284926296
 10
11.53066497942666
 20
-42.73281780200466
 10
11.67005614279549
 20
-42.05774576435741
 10
11.7699595302463
 20
-41.37571096640767
 10
11.83003710033961
 20
-40.68902119801862
 10
11.85008556959531
 20
-40.0
 10
11.83003710033961
 20
-39.31097880198138
 10
11.7699595302463
 20
-38.62428903359236
 10
11.67005614279549
 20
-37.94225423564259
 10
11.53066497942666
 20
-37.26718219799537
 10
11.35225769571332
 20
-36.60135715073704
 10
11.13543796543024
 20
-35.9470320350656
 10
10.88093943791193
 20
-35.30642088005072
 10
10.58962325561572
 20
-34.68169131106032
 10
10.26247514028887
 20
-34.07495721520237
 10
9.900602057597212
 20
-33.4882715886001
 10
9.50522847150421
 20
-32.92361958970298
 10
9.077692201072864
 20
-32.38291182213891
 10
8.619439893708773
 20
-31.8679778698363
 10
8.132022130163705
 20
-31.38056010629126
 10
7.617088177861092
 20
-30.92230779892716
 10
7.07638041029702
 20
-30.49477152849579
 10
6.511728411399872
 20
-30.09939794240285
 10
5.925042784797597
 20
-29.73752485971113
 10
5.318308688939737
 20
-29.41037674438422
 10
4.693579119949277
 20
-29.11906056208812
 10
4.052967964934396
 20
-28.86456203456976
 10
3.264465043529754
 20
-28.60846564759876
 10
2.506040792565159
 20
-28.13191610586116
 10
1.872674070127914
 20
-27.49854938342403
 10
1.396124528390374
 20
-26.74012513245932
 10
1.100288351272752
 20
-25.89467391181434
 10
1.0
 20
-25.00459017598907
 10
1.0
 20
-14.99540982401093
 10
1.100288351272752
 20
-14.10532608818566
 10
1.396124528390374
 20
-13.25987486754067
 10
1.872674070127914
 20
-12.50145061657597
 10
2.506040792565159
 20
-11.86808389413883
 10
3.264465043529754
 20
-11.39153435240124
 10
4.052967964934396
 20
-11.13543796543024
 10
4.693579119949277
 20
-10.88093943791188
 10
5.318308688939737
 20
-10.58962325561578
 10
5.925042784797597
 20
-10.26247514028887
 10
6.511728411399872
 20
-9.900602057597155
 10
7.07638041029702
 20
-9.50522847150421
 10
7.617088177861092
 20
-9.077692201072836
 10
8.132022130163705
 20
-8.619439893708744
 10
8.619439893708773
 20
-8.132022130163705
 10
9.077692201072864
 20
-7.617088177861092
 10
9.50522847150421
 20
-7.07638041029702
 10
9.900602057597212
 20
-6.511728411399901
 10
10.26247514028887
 20
-5.925042784797625
 10
10.58962325561572
 20
-5.31830868893968
 10
10.88093943791193
 20
-4.693579119949277
 10
11.13543796543024
 20
-4.052967964934396
 10
11.35225769571332
 20
-3.398642849262956
 10
11.53066497942666
 20
-2.732817802004632
 10
11.67005614279549
 20
-2.057745764357406
 10
11.7699595302463
 20
-1.375710966407638
 10
11.83003710033961
 20
-0.6890211980186223
 10
11.85008556959531
 20
0.0
 10
11.83003710033961
 20
0.6890211980186223
 10
11.7699595302463
 20
1.375710966407667
 10
11.67005614279549
 20
2.057745764357406
 10
11.53066497942666
 20
2.732817802004661
 10
11.35225769571332
 20
3.398642849262956
 10
11.13543796543024
 20
4.052967964934425
 10
10.88093943791193
 20
4.693579119949277
 10
10.58962325561572
 20
5.31830868893968
 10
10.26247514028887
 20
5.925042784797654
 10
9.900602057597212
 20
6.511728411399929
 10
9.50522847150421
 20
7.07638041029702
 10
9.077692201072864
 20
7.617088177861092
 10
8.619439893708773
 20
8.132022130163705
 10
8.132022130163705
 20
8.619439893708773
 10
7.617088177861092
 20
9.077692201072864
 10
7.07638041029702
 20
9.505228471504239
 10
6.511728411399872
 20
9.900602057597183
 10
5.925042784797597
 20
10.26247514028891
 10
5.318308688939737
 20
10.58962325561581
 10
4.693579119949277
 20
10.88093943791188
 10
4.052967964934396
 20
11.13543796543028
 10
3.398642849262956
 20
11.35225769571338
 10
2.732817802004661
 20
11.53066497942667
 10
2.057745764357378
 20
11.67005614279552
 10
1.37571096640761
 20
11.7699595302463
 10
0.6890211980186223
 20
11.83003710033962
 10
0.0
 20
11.85008556959529
 10
-0.6890211980186223
 20
11.83003710033962
 10
-1.37571096640761
 20
11.7699595302463
 10
-2.057745764357378
 20
11.67005614279552
 10
-2.732817802004661
 20
11.53066497942667
 10
-3.398642849262956
 20
11.35225769571338
 10
-4.052967964934396
 20
11.13543796543028
 10
-4.693579119949277
 20
10.88093943791188
 10
-5.318308688939737
 20
10.58962325561581
 10
-5.925042784797597
 20
10.26247514028891
 10
-6.511728411399872
 20
9.900602057597183
 10
-7.07638041029702
 20
9.505228471504239
 10
-7.617088177861092
 20
9.077692201072864
 10
-8.132022130163705
 20
8.619439893708773
 10
-8.619439893708773
 20
8.132022130163705
 10
-9.077692201072864
 20
7.617088177861092
 10
-9.50522847150421
 20
7.07638041029702
 10
-9.900602057597212
 20
6.511728411399929
 10
-10.26247514028887
 20
5.925042784797654
 10
-10.58962325561572
 20
5.31830868893968
 10
-10.88093943791193
 20
4.693579119949277
 10
-11.13543796543024
 20
4.052967964934425
 10
-11.35225769571332
 20
3.398642849262956
 10
-11.53066497942666
 20
2.732817802004661
 10
-11.67005614279549
 20
2.057745764357406
 10
-11.7699595302463
 20
1.375710966407667
 10
-11.83003710033961
 20
0.6890211980186223
 10
-11.85008556959531
 20
0.0
 10
-11.83003710033961
 20
-0.6890211980186223
 10
-11.7699595302463
 20
-1.375710966407638
 10
-11.67005614279549
 20
-2.057745764357406
 10
-11.53066497942666
 20
-2.732817802004632
 10
-11.35225769571332
 20
-3.398642849262956
 10
-11.13543796543024
 20
-4.052967964934396
 10
-10.88093943791193
 20
-4.693579119949277
 10
-10.58962325561572
 20
-5.31830868893968
 10
-10.26247514028887
 20
-5.925042784797625
 10
-9.900602057597212
 20
-6.511728411399901
 10
-9.50522847150421
 20
-7.07638041029702
 10
-9.077692201072864
 20
-7.617088177861092
 10
-8.619439893708773
 20
-8.132022130163705
 10
-8.132022130163705
 20
-8.619439893708744
 10
-7.617088177861092
 20
-9.077692201072836
 10
-7.07638041029702
 20
-9.50522847150421
 10
-6.511728411399872
 20
-9.900602057597155
 10
-5.925042784797597
 20
-10.26247514028887
 10
-5.318308688939737
 20
-10.58962325561578
 10
-4.693579119949277
 20
-10.88093943791188
 10
-4.052967964934396
 20
-11.13543796543024
 10
-3.264465043529754
 20
-11.39153435240124
 10
-2.506040792565159
 20
-11.86808389413883
 10
-1.872674070127914
 20
-12.50145061657597
 10
-1.396124528390374
 20
-13.25987486754067
 10
-1.100288351272752
 20
-14.10532608818566
 10
-1.0
 20
-14.99540982401093
 10
-1.0
 20
-25.00459017598907
 10
-1.100288351272752
 20
-25.89467391181434
 10
-1.396124528390374
 20
-26.74012513245932
 10
-1.872674070127914
 20
-27.49854938342403
 10
-2.506040792565159
 20
-28.13191610586116
 10
-3.264465043529754
 20
-28.60846564759876
 10
-4.052967964934396
 20
-28.86456203456976
 10
-4.693579119949277
 20
-29.11906056208812
 10
-5.318308688939737
 20
-29.41037674438422
 10
-5.925042784797597
 20
-29.73752485971113
 10
-6.511728411399872
 20
-30.09939794240285
 10
-7.07638041029702
 20
-30.49477152849579
 10
-7.617088177861092
 20
-30.92230779892716
 10
-8.132022130163705
 20
-31.38056010629126
 10
-8.619439893708773
 20
-31.8679778698363
 10
-9.077692201072864
 20
-32.38291182213891
 10
-9.50522847150421
 20
-32.92361958970298
 10
-9.900602057597212
 20
-33.4882715886001
 10
-10.26247514028887
 20
-34.07495721520237
 10
-10.58962325561572
 20
-34.68169131106032
 10
-10.88093943791193
 20
-35.30642088005072
 10
-11.13543796543024
 20
-35.9470320350656
 10
-11.35225769571332
 20
-36.60135715073704
 10
-11.53066497942666
 20
-37.26718219799537
 10
-11.67005614279549
 20
-37.94225423564259
 10
-11.7699595302463
 20
-38.62428903359236
 10
-11.83003710033961
 20
-39.31097880198138
 10
-11.85008556959531
 20
-40.0
 10
-11.83003710033961
 20
-40.68902119801862
 10
-11.7699595302463
 20
-41.37571096640767
 10
-11.67005614279549
 20
-42.05774576435741
 10
-11.53066497942666
 20
-42.73281780200466
 10
-11.35225769571343
 20
-43.39864284926296
 10
-11.13543796543024
 20
-44.05296796493442
 10
-10.93554065432306
 20
-44.5561396280536
 10
-10.90150039847265
 20
-45.19345766469207
 10
-11.25987979539764
 20
-45.72156487606372
 10
-11.86469908345737
 20
-45.92534575748774
 10
-15.40453891710547
 20
-45.92629555927414
 10
-16.26293468678
 20
-45.7327165242225
 10
-16.95516303166846
 20
-45.18945226187909
 10
-17.29061478226424
 20
-44.6330062675453
 10
-17.47624684332811
 20
-43.87439064819641
 10
-17.62861187524084
 20
-43.10839990604264
 10
-17.7474198425042
 20
-42.33649214799781
 10
-17.83244458740012
 20
-41.56013674435187
 10
-17.8835242604938
 20
-40.78081153174031
 10
-17.90056162872463
 20
-39.99999999999991
 10
-17.8835242604938
 20
-39.21918846825961
 10
-17.8324445874
 20
-38.43986325564825
 10
-17.7474198425042
 20
-37.66350785200216
 10
-17.62861187524084
 20
-36.89160009395739
 10
-17.47624684332811
 20
-36.12560935180365
 10
-17.29061478226424
 20
-35.36699373245469
 10
-17.07206905322789
 20
-34.61719730385884
 10
-16.82102567043592
 20
-33.87764734613371
 10
-16.53796250923563
 20
-33.14975163465677
 10
-16.22341839644253
 20
-32.43489576028607
 10
-15.8779920846531
 20
-31.73444049180817
 10
-15.50234111248449
 20
-31.04971918563772
 10
-15.09718055291273
 20
-30.38203524769808
 10
-14.66328165209086
 20
-29.73265965231382
 10
-14.20147036123774
 20
-29.10282852283891
 10
-13.71262576439324
 20
-28.49374077862552
 10
-13.19767840503152
 20
-27.90655585281294
 10
-12.65760851471885
 20
-27.34239148528109
 10
-12.09344414718703
 20
-26.80232159496845
 10
-11.50625922137453
 20
-26.2873742356067
 10
-10.89717147716112
 20
-25.79852963876224
 10
-10.26734034768617
 20
-25.33671834790913
 10
-9.617964752301987
 20
-24.9028194470873
 10
-8.950280814362372
 20
-24.49765888751555
 10
-8.309029657091514
 20
-24.14585645569068
 10
-7.0
 20
-22.83682679859923
 10
-7.0
 20
-17.16317320140077
 10
-8.309029657091514
 20
-15.85414354430932
 10
-8.950280814362372
 20
-15.50234111248447
 10
-9.617964752301873
 20
-15.09718055291272
 10
-10.26734034768617
 20
-14.66328165209084
 10
-10.89717147716112
 20
-14.20147036123777
 10
-11.50625922137453
 20
-13.71262576439331
 10
-12.09344414718691
 20
-13.19767840503155
 10
-12.65760851471885
 20
-12.65760851471892
 10
-13.19767840503152
 20
-12.09344414718706
 10
-13.71262576439335
 20
-11.50625922137446
 10
-14.20147036123774
 20
-10.89717147716109
 10
-14.66328165209086
 20
-10.26734034768616
 10
-15.09718055291273
 20
-9.61796475230193
 10
-15.50234111248449
 20
-8.950280814362287
 10
-15.8779920846531
 20
-8.265559508191842
 10
-16.22341839644253
 20
-7.565104239713918
 10
-16.53796250923563
 20
-6.850248365343219
 10
-16.82102567043592
 20
-6.122352653866301
 10
-17.07206905322789
 20
-5.382802696141155
 10
-17.29061478226424
 20
-4.633006267545312
 10
-17.47624684332811
 20
-3.874390648196353
 10
-17.62861187524084
 20
-3.108399906042621
 10
-17.7474198425042
 20
-2.336492147997845
 10
-17.8324445874
 20
-1.560136744351752
 10
-17.8835242604938
 20
-0.7808115317403974
 10
-17.90056162872463
 20
0.0
 10
-17.8835242604938
 20
0.7808115317403121
 10
-17.8324445874
 20
1.560136744351666
 10
-17.7474198425042
 20
2.33649214799776
 10
-17.62861187524084
 20
3.108399906042521
 10
-17.47624684332811
 20
3.874390648196268
 10
-17.29061478226424
 20
4.633006267545227
 10
-17.07206905322789
 20
5.38280269614107
 10
-16.82102567043592
 20
6.122352653866216
 10
-16.53796250923563
 20
6.850248365343134
 10
-16.22341839644253
 20
7.565104239713833
 10
-15.92897651194406
 20
8.166872957607481
 10
-15.61222315050679
 20
8.757202459835327
 10
-15.27360198378242
 20
9.335265880775097
 10
-14.9135873133274
 20
9.900253535719472
 10
-14.53268340625591
 20
10.45137405498912
 10
-14.13142378892052
 20
10.98785549239236
 10
-13.71037049960988
 20
11.50894640647843
 10
-13.27011330131016
 20
12.01391691307032
 10
-12.81126885563296
 20
12.50205970760237
 10
-12.3344798590667
 20
12.97269105583123
 10
-11.84041414276133
 20
13.42515175153201
 10
-11.32976373710733
 20
13.85880803983854
 10
9.698128645480153
 20
31.04939556361306
 10
11.90056162872463
 20
35.69466033036754
 10
11.90056162872463
 20
49.44991443040468
  0
LWPOLYLINE
  5
163
330
1F
100
AcDbEntity
  8
EMT12_PS_Bracket_Outline
100
AcDbPolyline
 90
      228
 70
     1
 43
0.0
 10
16.13272735884087
 20
67.78281612705649
 10
15.93355724121912
 20
68.43939201327788
 10
15.61012252048843
 20
69.04449581556872
 10
15.17485261158245
 20
69.57487373415296
 10
14.64447469299822
 20
70.010143643059
 10
14.03937089070737
 20
70.33357836378957
 10
13.38279500448598
 20
70.53274848141137
 10
12.69997887742957
 20
70.60000000000008
 10
12.01716275037316
 20
70.53274848141137
 10
11.36058686415177
 20
70.33357836378957
 10
10.75548306186093
 20
70.010143643059
 10
10.22510514327669
 20
69.57487373415296
 10
9.789835234370713
 20
69.04449581556872
 10
9.466400513640025
 20
68.43939201327788
 10
9.267230396018277
 20
67.78281612705649
 10
9.199978877429572
 20
67.10000000000008
 10
9.199978877429572
 20
50.50000000000006
 10
-13.60589544808838
 20
6.776400892485809
 10
-13.90336448729599
 20
6.143000564332622
 10
-14.17136567494398
 20
5.496580292055397
 10
-14.40933098886612
 20
4.838510148102953
 10
-14.61675606721857
 20
4.170184896550891
 10
-14.79320127746323
 20
3.49302103693236
 10
-14.93829264815824
 20
2.808453802001052
 10
-15.05172266158158
 20
2.117934115788953
 10
-15.13325090550799
 20
1.422925518407621
 10
-15.18270458275614
 20
0.7249010641094151
 10
-15.19997887742929
 20
0.0253401991839701
 10
-15.18503717706923
 20
-0.6742743736931538
 10
-15.13791115025558
 20
-1.372459838013642
 10
-15.05870067948555
 20
-2.067736406231008
 10
-14.94757364947495
 20
-2.75863045613494
 10
-14.80476559133032
 20
-3.443677654159048
 10
-14.63057918334684
 20
-4.121426059000727
 10
-14.42538360948853
 20
-4.7904391989768
 10
-14.1896137769115
 20
-5.449299116590796
 10
-13.92376939418884
 20
-6.096609373860419
 10
-13.62841391218998
 20
-6.730998012034947
 10
-13.30417332986005
 20
-7.351120459429014
 10
-13.08417547690621
 20
-7.735913138700996
 10
-11.73299125030482
 20
-9.663173201400811
 10
-11.73299125030482
 20
-15.33682679859919
 10
-12.6983575962042
 20
-16.64585645569082
 10
-13.06182154586733
 20
-17.22640251209805
 10
-13.3987627293096
 20
-17.82273329716225
 10
-13.70849696843172
 20
-18.43363792755088
 10
-13.99039533037111
 20
-19.05787592691548
 10
-14.2438854045856
 20
-19.69417974474891
 10
-14.46845246516565
 20
-20.34125733021859
 10
-14.66364051601383
 20
-20.99779475574804
 10
-14.82905321677103
 20
-21.66245888502158
 10
-14.96435468760794
 20
-22.33390007999265
 10
-15.06927019124791
 20
-23.01075494140003
 10
-15.14358669083637
 20
-23.691649077227
 10
-15.18715328252446
 20
-24.37519989348243
 10
-15.19988150188757
 20
-25.06001940163526
 10
-15.18174550355761
 20
-25.74471703700386
 10
-15.13278211370331
 20
-26.42790248237634
 10
-15.05309075525255
 20
-27.10818849112775
 10
-14.9428332460088
 20
-27.78419370410336
 10
-14.80223347007038
 20
-28.4545454545455
 10
-14.54411638779695
 20
-29.07025088725596
 10
-14.09773429239303
 20
-29.56669890360127
 10
-13.51282727381633
 20
-29.88857059799239
 10
-12.85457117137682
 20
-30.0
 10
-9.382963284591796
 20
-29.99999999999978
 10
-8.771487927888614
 20
-29.79126347580587
 10
-8.415287052362345
 20
-29.25219577628934
 10
-8.463064923357337
 20
-28.60784313725469
 10
-8.72216652815868
 20
-27.92639899109225
 10
-8.926496990848904
 20
-27.22657842268461
 10
-9.07477321132032
 20
-26.51277597915248
 10
-9.166064083991017
 20
-25.78947400727862
 10
-9.199796344713235
 20
-25.06121450645742
 10
-9.175758170605462
 20
-24.3325706070558
 10
-9.094100510201855
 20
-23.6081178532844
 10
-8.955336135565034
 20
-22.89240547091186
 10
-8.760336422317067
 20
-22.1899278002469
 10
-8.510325877806025
 20
-21.50509607377467
 10
-8.206874451770744
 20
-20.84221071567208
 10
-7.851887677787744
 20
-20.2054343371475
 10
-7.447594707408228
 20
-19.59876559718203
 10
-6.99653431212468
 20
-19.02601409281363
 10
-6.783599962333682
 20
-18.78527783798598
 10
-6.336017243223722
 20
-18.19523031004792
 10
-6.004884146700846
 20
-17.53278238903158
 10
-5.801552047263812
 20
-16.82064305364111
 10
-5.732991250304821
 20
-16.0832247240669
 10
-5.732991250304821
 20
-8.916775275932993
 10
-5.801552047263812
 20
-8.179356946358782
 10
-6.004884146700846
 20
-7.467217610968307
 10
-6.336017243223722
 20
-6.80476968995197
 10
-6.783599962333682
 20
-6.214722162013915
 10
-6.995734883520271
 20
-5.974922044637767
 10
-7.442956348249567
 20
-5.407624321090795
 10
-7.844289512057657
 20
-4.806986795386708
 10
-8.197260022532959
 20
-4.176712597603798
 10
-8.499691699103863
 20
-3.520687577758852
 10
-8.749719949915374
 20
-2.842956348249575
 10
-8.945803267658647
 20
-2.147697347474379
 10
-9.086732733475259
 20
-1.439197078370173
 10
-9.171639470344843
 20
-0.7218236806961635
 10
-9.200000000000017
 20
-0.0000000000000022
 10
-9.171639470344843
 20
0.7218236806961591
 10
-9.086732733475259
 20
1.439197078370169
 10
-8.945803267658647
 20
2.147697347474375
 10
-8.749719949915374
 20
2.84295634824957
 10
-8.499691699103863
 20
3.520687577758847
 10
-8.197260022532959
 20
4.176712597603794
 10
-7.844289512057657
 20
4.806986795386704
 10
-7.442956348249567
 20
5.407624321090791
 10
-6.995734883520271
 20
5.974922044637763
 10
-6.505382386916239
 20
6.505382386916265
 10
-5.974922044637736
 20
6.995734883520297
 10
-5.407624321090765
 20
7.442956348249593
 10
-4.806986795386678
 20
7.844289512057683
 10
-4.176712597603768
 20
8.197260022532985
 10
-3.520687577758821
 20
8.49969169910389
 10
-2.842956348249544
 20
8.7497199499154
 10
-2.147697347474349
 20
8.945803267658674
 10
-1.439197078370142
 20
9.086732733475285
 10
-0.7218236806961329
 20
9.17163947034487
 10
0.0000000000000284
 20
9.200000000000044
 10
0.7218236806961897
 20
9.17163947034487
 10
1.439197078370199
 20
9.086732733475285
 10
2.147697347474406
 20
8.945803267658674
 10
2.842956348249601
 20
8.7497199499154
 10
3.520687577758878
 20
8.49969169910389
 10
4.176712597603824
 20
8.197260022532985
 10
4.806986795386734
 20
7.844289512057683
 10
5.407624321090822
 20
7.442956348249593
 10
5.974922044637793
 20
6.995734883520297
 10
6.505382386916295
 20
6.505382386916265
 10
6.995734883520328
 20
5.974922044637763
 10
7.442956348249623
 20
5.407624321090791
 10
7.844289512057713
 20
4.806986795386704
 10
8.197260022533015
 20
4.176712597603794
 10
8.49969169910392
 20
3.520687577758847
 10
8.74971994991543
 20
2.84295634824957
 10
8.945803267658704
 20
2.147697347474375
 10
9.086732733475316
 20
1.439197078370169
 10
9.1716394703449
 20
0.7218236806961591
 10
9.200000000000074
 20
-0.0000000000000022
 10
9.1716394703449
 20
-0.7218236806961635
 10
9.086732733475316
 20
-1.439197078370173
 10
8.945803267658704
 20
-2.147697347474379
 10
8.74971994991543
 20
-2.842956348249575
 10
8.49969169910392
 20
-3.520687577758852
 10
8.197260022533015
 20
-4.176712597603798
 10
7.844289512057713
 20
-4.806986795386708
 10
7.442956348249623
 20
-5.407624321090795
 10
6.995734883520328
 20
-5.974922044637767
 10
6.783599962333739
 20
-6.214722162013915
 10
6.336017243223779
 20
-6.80476968995197
 10
6.004884146700903
 20
-7.467217610968307
 10
5.801552047263868
 20
-8.179356946358782
 10
5.732991250304877
 20
-8.916775275932993
 10
5.732991250304877
 20
-16.0832247240669
 10
5.801552047263868
 20
-16.82064305364111
 10
6.004884146700903
 20
-17.53278238903158
 10
6.336017243223779
 20
-18.19523031004792
 10
6.783599962333739
 20
-18.78527783798598
 10
6.996534312124737
 20
-19.02601409281363
 10
7.447594707408285
 20
-19.59876559718203
 10
7.851887677787801
 20
-20.2054343371475
 10
8.206874451770801
 20
-20.84221071567208
 10
8.510325877806082
 20
-21.50509607377467
 10
8.760336422317124
 20
-22.1899278002469
 10
8.95533613556509
 20
-22.89240547091186
 10
9.094100510201912
 20
-23.6081178532844
 10
9.17575817060552
 20
-24.3325706070558
 10
9.199796344713292
 20
-25.06121450645742
 10
9.166064083991074
 20
-25.78947400727862
 10
9.074773211320377
 20
-26.51277597915248
 10
8.92649699084896
 20
-27.22657842268461
 10
8.722166528158738
 20
-27.92639899109225
 10
8.463064923357393
 20
-28.60784313725469
 10
8.415287052362402
 20
-29.25219577628934
 10
8.771487927888671
 20
-29.79126347580587
 10
9.382963284591852
 20
-29.99999999999978
 10
12.85457117137688
 20
-30.0
 10
13.51282727381638
 20
-29.88857059799239
 10
14.09773429239308
 20
-29.56669890360127
 10
14.544116387797
 20
-29.07025088725596
 10
14.80223347007043
 20
-28.4545454545455
 10
14.94283324600886
 20
-27.78419370410336
 10
15.05309075525261
 20
-27.10818849112775
 10
15.13278211370337
 20
-26.42790248237634
 10
15.18174550355766
 20
-25.74471703700386
 10
15.19988150188763
 20
-25.06001940163526
 10
15.18715328252452
 20
-24.37519989348243
 10
15.14358669083643
 20
-23.691649077227
 10
15.06927019124797
 20
-23.01075494140003
 10
14.96435468760799
 20
-22.33390007999265
 10
14.82905321677109
 20
-21.66245888502158
 10
14.66364051601388
 20
-20.99779475574804
 10
14.46845246516571
 20
-20.34125733021859
 10
14.24388540458565
 20
-19.69417974474891
 10
13.99039533037117
 20
-19.05787592691548
 10
13.70849696843177
 20
-18.43363792755088
 10
13.39876272930965
 20
-17.82273329716225
 10
13.06182154586739
 20
-17.22640251209805
 10
12.69835759620426
 20
-16.64585645569082
 10
11.73299125030488
 20
-15.33682679859919
 10
11.73299125030488
 20
-9.663173201400811
 10
12.11330399825775
 20
-9.279851967402807
 10
12.47931862781255
 20
-8.882855436383752
 10
12.83054374770032
 20
-8.472716594222847
 10
13.16650782224079
 20
-8.049986070948991
 10
13.48675980440058
 20
-7.615231401495011
 10
13.79086974134387
 20
-7.169036263756427
 10
14.07842935166414
 20
-6.711999694976955
 10
14.34905257352025
 20
-6.244735287514262
 10
14.60237608294202
 20
-5.767870365063944
 10
14.83805978160891
 20
-5.282045140449243
 10
15.05578725344802
 20
-4.787911856106037
 10
15.25526618943675
 20
-4.286133908417982
 10
15.43622878004081
 20
-3.777384957076409
 10
15.59843207476095
 20
-3.262348020661934
 10
15.74165830830466
 20
-2.741714559660667
 10
15.8657151929464
 20
-2.216183548147344
 10
15.97043617668251
 20
-1.686460535380692
 10
16.05568066683466
 20
-1.15325669857157
 10
16.1213342188021
 20
-0.6172878880953214
 10
16.16730868970834
 20
-0.0792736664300002
 10
16.19354235673759
 20
0.460063657888893
 10
16.20000000000007
 20
1.000000000000396
 10
16.19997887742957
 20
67.10000000000008
  0
LWPOLYLINE
  5
164
330
1F
100
AcDbEntity
  8
EMT34_PS_Bracket_Cutout
100
AcDbPolyline
 90
       12
 70
     1
 43
0.0
 10
4.671046692028036
 20
19.18986044922451
 10
4.328214066017242
 20
18.63449096834846
 10
4.401025606661928
 20
17.98590176916693
 10
4.858465820602289
 20
17.52037204893826
 10
11.44663341437847
 20
14.24196319482067
 10
12.1061623665579
 20
14.16041157560926
 10
12.67117374957368
 20
14.51025617314008
 10
12.89214209182695
 20
15.13699543079093
 10
12.89426848269234
 20
23.80305909543999
 10
12.62467581882838
 20
24.48631630069495
 10
11.96101335751621
 20
24.80107454186927
 10
11.2613406766696
 20
24.57751525975598
  0
LWPOLYLINE
  5
165
330
1F
100
AcDbEntity
  8
EMT12_PS_Bracket_Cutout
100
AcDbPolyline
 90
       15
 70
     0
 43
0.0
 10
7.313365526441913
 20
33.91079352804681
 10
-1.372058557764461
 20
17.26122882747364
 10
-1.4779011516857
 20
16.6761156752288
 10
-1.232850966526797
 20
16.13434961651768
 10
-0.7235479593814205
 20
15.82747748919001
 10
8.961876124824954
 20
13.4530631261324
 10
9.555362210502068
 20
13.489582449793
 10
10.0231991799831
 20
13.85658103954492
 10
10.19997887742957
 20
14.42430309606882
 10
10.19997887742957
 20
35.36523688052301
 10
9.986777326959015
 20
35.98244689325622
 10
9.438082477793301
 20
36.33647664262804
 10
8.787859515087263
 20
36.27636674568083
 10
8.313365526441913
 20
35.82774824887025
 10
-1.372058557764461
 20
17.26122882747364
  0
CIRCLE
  5
166
330
1F
100
AcDbEntity
  8
0
100
AcDbCircle
 10
0.0000000000000142
 20
0.000000000000032
 30
0.0
 40
11.85008556959525
  0
CIRCLE
  5
167
330
1F
100
AcDbEntity
  8
0
100
AcDbCircle
 10
0.0000000000000266
 20
-0.0000000000000018
 30
0.0
 40
9.199999999999989
  0
LWPOLYLINE
  5
2DD
330
1F
100
AcDbEntity
  8
PVC12_PS_Bracket_Outline
100
AcDbPolyline
 90
      260
 70
     1
 43
0.0
 10
10.8975654755791
 20
62.00000054342727
 10
10.8975654755791
 20
48.24474644339013
 10
-14.22022366699095
 20
9.132099367656739
 10
-14.61603070534953
 20
8.48419981025258
 10
-14.98233870097589
 20
7.819176877987164
 10
-15.31840834677404
 20
7.138372764257074
 10
-15.60404238490308
 20
6.490289766270198
 10
-15.86227205231829
 20
5.830808292016204
 10
-16.09264383695152
 20
5.161086546167585
 10
-16.29475315173248
 20
4.482300717723579
 10
-16.46824504514005
 20
3.795642914345908
 10
-16.6128148245791
 20
3.102319068736538
 10
-16.72820859149373
 20
2.403546820736697
 10
-16.81422368727247
 20
1.700553378864161
 10
-16.87070904916389
 20
0.9945733650467083
 10
-16.89756547557907
 20
0.28684664633548
 10
-16.89474580031309
 20
-0.4213838425938228
 10
-16.86225497537906
 20
-1.128874282326105
 10
-16.80015006231223
 20
-1.834382153147285
 10
-16.7085401319557
 20
-2.536668417200385
 10
-16.58758607290677
 20
-3.234499694528349
 10
-16.43750030895875
 20
-3.926650429179258
 10
-16.25854642603484
 20
-4.611905041570903
 10
-16.05103870926835
 20
-5.289060063334741
 10
-15.81534159104557
 20
-5.956926250889605
 10
-15.55186901097544
 20
-6.614330674033194
 10
-15.26108368891458
 20
-7.260118775883679
 10
-14.94349631232284
 20
-7.893156400553007
 10
-14.59966463937461
 20
-8.512331784992138
 10
-14.23019251940603
 20
-9.116557511507917
 10
-13.83572883241207
 20
-9.704772417525046
 10
-13.41696634946082
 20
-10.2759434592368
 10
-12.97464051602468
 20
-10.82906752587334
 10
-12.50952816036509
 20
-11.3631732014006
 10
-12.50952816036509
 20
-17.03682679859898
 10
-12.94494325074696
 20
-17.53545011356001
 10
-13.36049691070387
 20
-18.05074291076513
 10
-13.75555155612663
 20
-18.58191457631673
 10
-14.12950105455137
 20
-19.12815013336418
 10
-14.48177165514674
 20
-19.6886114925239
 10
-14.81182286902184
 20
-20.26243873775931
 10
-15.11914829849728
 20
-20.84875144575127
 10
-15.40327641407178
 20
-21.44665003673057
 10
-15.66377127788972
 20
-22.05521715470476
 10
-15.90023321260149
 20
-22.67351907495683
 10
-16.11229941458735
 20
-23.30060713665975
 10
-16.29964451060822
 20
-23.9355191984068
 10
-16.46198105702568
 20
-24.57728111442574
 10
-16.59905998082603
 20
-25.22490822921074
 10
-16.71067096177465
 20
-25.87740688827963
 10
-16.79664275510866
 20
-26.53377596273841
 10
-16.8568434542792
 20
-27.19300838531373
 10
-16.8911806933347
 20
-27.85409269549583
 10
-16.89960178863906
 20
-28.51601459142384
 10
-16.88209381970294
 20
-29.17775848612834
 10
-16.83868364900853
 20
-29.83830906574755
 10
-16.76943788079414
 20
-30.49665284732324
 10
-16.67446275886299
 20
-31.15177973378817
 10
-16.55390400357463
 20
-31.80268456375822
 10
-16.30538088701404
 20
-32.43640026646104
 10
-15.85871156123356
 20
-32.95005953555275
 10
-15.26563812626135
 20
-33.28416016717059
 10
-14.59486210966041
 20
-33.39999999999983
 10
-11.20758671614884
 20
-33.39999999999994
 10
-10.61210220627866
 20
-33.20336678952057
 10
-10.25080175834158
 20
-32.69079639700927
 10
-10.26577270638835
 20
-32.06386554621846
 10
-10.47552695693388
 20
-31.41219769844983
 10
-10.64395857065482
 20
-30.74864768455754
 10
-10.77040313816836
 20
-30.07583299923655
 10
-10.85436187569324
 20
-29.3964076833773
 10
-10.89550359259532
 20
-28.71305185471439
 10
-10.89366599782851
 20
-28.02846113561085
 10
-10.84885634012265
 20
-27.34533601968152
 10
-10.7612513793881
 20
-26.66637121920072
 10
-10.6311966894559
 20
-25.99424503531574
 10
-10.45920529489625
 20
-25.33160879299666
 10
-10.24595564730065
 20
-24.68107638239936
 10
-9.992288949004646
 20
-24.0452139478958
 10
-9.699205834810513
 20
-23.42652976544761
 10
-9.367862424800691
 20
-22.82746434825159
 10
-8.999565763809628
 20
-22.25038081968748
 10
-8.595768665545378
 20
-21.69755559154506
 10
-8.158063981700693
 20
-21.17116938430021
 10
-7.688178318656341
 20
-20.673298624863
 10
-7.278167193634985
 20
-20.1954179350225
 10
-6.948229006831738
 20
-19.65911590327866
 10
-6.706539607468798
 20
-19.07768206301895
 10
-6.559088044910581
 20
-18.46552431124016
 10
-6.509528160365093
 20
-17.83781188169345
 10
-6.509528160365093
 20
-10.56218811830623
 10
-6.559088044910581
 20
-9.93447568875953
 10
-6.706539607468798
 20
-9.322317936980848
 10
-6.948229006831738
 20
-8.740884096721029
 10
-7.278167193634985
 20
-8.204582064977185
 10
-7.688178318656341
 20
-7.726701375136681
 10
-8.2997609462236
 20
-7.065689508854771
 10
-8.735408478360782
 20
-6.51940478235414
 10
-9.13516034332109
 20
-5.94633042319489
 10
-9.497373874944955
 20
-5.348821316842841
 10
-9.820560660136366
 20
-4.729332756381236
 10
-10.10339265507172
 20
-4.090410353185089
 10
-10.34470764241631
 20
-3.434679576457338
 10
-10.54351400712538
 20
-2.764834964613524
 10
-10.69899481120272
 20
-2.083629052844881
 10
-10.81051115067338
 20
-1.393861062360966
 10
-10.87760478097879
 20
-0.6983653977896118
 10
-10.90000000000008
 20
0.0000000000001457
 10
-10.87760478097879
 20
0.6983653977899031
 10
-10.81051115067338
 20
1.393861062361257
 10
-10.69899481120272
 20
2.083629052845172
 10
-10.54351400712561
 20
2.764834964613815
 10
-10.34470764241631
 20
3.434679576457629
 10
-10.10339265507172
 20
4.09041035318538
 10
-9.820560660136366
 20
4.729332756381528
 10
-9.497373874944955
 20
5.348821316843132
 10
-9.13516034332109
 20
5.946330423195182
 10
-8.735408478360782
 20
6.519404782354432
 10
-8.2997609462236
 20
7.065689508855062
 10
-7.830007916065355
 20
7.582939801578195
 10
-7.328079703848502
 20
8.069030168121149
 10
-6.796038840260266
 20
8.521963158901745
 10
-6.236071595331609
 20
8.939877575107094
 10
-5.650478994584759
 20
9.32105611675846
 10
-5.041667363625024
 20
9.66393243946587
 10
-4.412138440034127
 20
9.967097590872559
 10
-3.764479093192207
 20
10.22930580034259
 10
-3.101350694278366
 20
10.44947959809989
 10
-2.425478180123932
 20
10.62671424278213
 10
-1.739638855863845
 20
10.76028143921772
 10
-1.046650982393643
 20
10.84963233114653
 10
-0.3493621955310431
 20
10.89439975658778
 10
0.0000000000000142
 20
10.90000000000012
 10
0.3493621955310715
 20
10.89439975658778
 10
1.046650982393672
 20
10.84963233114653
 10
1.739638855863873
 20
10.76028143921772
 10
2.42547818012396
 20
10.62671424278213
 10
3.101350694278395
 20
10.44947959809989
 10
3.764479093192236
 20
10.22930580034259
 10
4.412138440034155
 20
9.967097590872559
 10
5.041667363625052
 20
9.66393243946587
 10
5.650478994584788
 20
9.32105611675846
 10
6.236071595331637
 20
8.939877575107094
 10
6.796038840260294
 20
8.521963158901745
 10
7.32807970384853
 20
8.069030168121149
 10
7.830007916065384
 20
7.582939801578195
 10
8.299760946223628
 20
7.065689508855062
 10
8.73540847836081
 20
6.519404782354432
 10
9.135160343321118
 20
5.946330423195182
 10
9.497373874944984
 20
5.348821316843132
 10
9.820560660136394
 20
4.729332756381528
 10
10.10339265507174
 20
4.09041035318538
 10
10.34470764241634
 20
3.434679576457629
 10
10.54351400712564
 20
2.764834964613815
 10
10.69899481120275
 20
2.083629052845172
 10
10.81051115067341
 20
1.393861062361257
 10
10.87760478097881
 20
0.6983653977899031
 10
10.90000000000011
 20
0.0000000000001457
 10
10.87760478097881
 20
-0.6983653977896118
 10
10.81051115067341
 20
-1.393861062360966
 10
10.69899481120275
 20
-2.083629052844881
 10
10.54351400712541
 20
-2.764834964613524
 10
10.34470764241634
 20
-3.434679576457338
 10
10.10339265507174
 20
-4.090410353185089
 10
9.820560660136394
 20
-4.729332756381236
 10
9.497373874944984
 20
-5.348821316842841
 10
9.135160343321118
 20
-5.94633042319489
 10
8.73540847836081
 20
-6.51940478235414
 10
8.299760946223628
 20
-7.065689508854771
 10
7.688178318656369
 20
-7.726701375136681
 10
7.278167193635014
 20
-8.204582064977185
 10
6.948229006831767
 20
-8.740884096721029
 10
6.706539607468827
 20
-9.322317936980848
 10
6.559088044910609
 20
-9.93447568875953
 10
6.509528160365122
 20
-10.56218811830623
 10
6.509528160365122
 20
-17.83781188169345
 10
6.559088044910609
 20
-18.46552431124016
 10
6.706539607468827
 20
-19.07768206301895
 10
6.948229006831767
 20
-19.65911590327866
 10
7.278167193635014
 20
-20.1954179350225
 10
7.688178318656369
 20
-20.673298624863
 10
8.158063981700721
 20
-21.17116938430021
 10
8.595768665545407
 20
-21.69755559154506
 10
8.999565763809656
 20
-22.25038081968748
 10
9.36786242480072
 20
-22.82746434825159
 10
9.699205834810542
 20
-23.42652976544761
 10
9.992288949004674
 20
-24.0452139478958
 10
10.24595564730068
 20
-24.68107638239936
 10
10.45920529489628
 20
-25.33160879299666
 10
10.63119668945593
 20
-25.99424503531574
 10
10.76125137938813
 20
-26.66637121920072
 10
10.84885634012268
 20
-27.34533601968152
 10
10.89366599782853
 20
-28.02846113561085
 10
10.89550359259535
 20
-28.71305185471439
 10
10.85436187569327
 20
-29.3964076833773
 10
10.77040313816839
 20
-30.07583299923655
 10
10.64395857065485
 20
-30.74864768455754
 10
10.4755269569339
 20
-31.41219769844983
 10
10.26577270638838
 20
-32.06386554621846
 10
10.25080175834161
 20
-32.69079639700927
 10
10.61210220627869
 20
-33.20336678952057
 10
11.20758671614887
 20
-33.39999999999994
 10
14.59486210966044
 20
-33.39999999999983
 10
15.26563812626138
 20
-33.28416016717059
 10
15.85871156123359
 20
-32.95005953555275
 10
16.30538088701407
 20
-32.43640026646104
 10
16.55390400357466
 20
-31.80268456375822
 10
16.67446275886302
 20
-31.15177973378817
 10
16.76943788079417
 20
-30.49665284732324
 10
16.83868364900856
 20
-29.83830906574755
 10
16.88209381970297
 20
-29.17775848612834
 10
16.89960178863909
 20
-28.51601459142384
 10
16.89118069333473
 20
-27.85409269549583
 10
16.85684345427923
 20
-27.19300838531373
 10
16.79664275510869
 20
-26.53377596273841
 10
16.71067096177468
 20
-25.87740688827963
 10
16.59905998082606
 20
-25.22490822921074
 10
16.46198105702571
 20
-24.57728111442574
 10
16.29964451060825
 20
-23.9355191984068
 10
16.11229941458738
 20
-23.30060713665975
 10
15.90023321260152
 20
-22.67351907495683
 10
15.66377127788975
 20
-22.05521715470476
 10
15.40327641407181
 20
-21.44665003673057
 10
15.11914829849731
 20
-20.84875144575127
 10
14.81182286902187
 20
-20.26243873775931
 10
14.48177165514677
 20
-19.6886114925239
 10
14.1295010545514
 20
-19.12815013336418
 10
13.75555155612666
 20
-18.58191457631673
 10
13.3604969107039
 20
-18.05074291076513
 10
12.94494325074699
 20
-17.53545011356001
 10
12.50952816036512
 20
-17.03682679859898
 10
12.50952816036512
 20
-11.3631732014006
 10
12.97464051602471
 20
-10.82906752587334
 10
13.41696634946085
 20
-10.2759434592368
 10
13.8357288324121
 20
-9.704772417525046
 10
14.23019251940606
 20
-9.116557511507917
 10
14.59966463937464
 20
-8.512331784992138
 10
14.94349631232286
 20
-7.893156400553007
 10
15.26108368891461
 20
-7.260118775883679
 10
15.55186901097547
 20
-6.614330674033194
 10
15.81534159104559
 20
-5.956926250889605
 10
16.04318579459336
 20
-5.312832536430331
 10
16.37659351331884
 20
-4.306039655196823
 42
0.0801186849048303
 10
17.8975654755791
 20
5.125024018940582
 10
17.8975654755791
 20
62.00000054342727
 10
17.83031395699045
 20
62.68281667048377
 10
17.63114383936862
 20
63.33939255670516
 10
17.30770911863802
 20
63.94449635899594
 10
16.87243920973204
 20
64.47487427758023
 10
16.34206129114771
 20
64.91014418648624
 10
15.7369574888569
 20
65.23357890721681
 10
15.08038160263554
 20
65.43274902483861
 10
14.3975654755791
 20
65.50000054342732
 10
13.71474934852263
 20
65.43274902483861
 10
13.05817346230127
 20
65.23357890721681
 10
12.45306966001048
 20
64.9101441864862
 10
11.92269174142616
 20
64.4748742775802
 10
11.48742183252018
 20
63.94449635899588
 10
11.16398711178958
 20
63.3393925567051
 10
10.96481699416778
 20
62.68281667048371
  0
LWPOLYLINE
  5
2DE
330
1F
100
AcDbEntity
  8
PVC12_PS_Bracket_Cutout
100
AcDbPolyline
 90
       12
 70
     1
 43
0.0
 10
-0.6238079312141878
 20
19.20032893136336
 10
-0.7814243702513721
 20
18.61638462063198
 10
-0.5735545276550482
 20
18.0483845956062
 10
-0.0762442386118067
 20
17.70412252057899
 10
10.6036958151051
 20
14.42063125270258
 10
11.21663760078498
 20
14.4287463183714
 10
11.70968373211748
 20
14.79298387725473
 10
11.8975654755791
 20
15.37647675415818
 10
11.8975654755791
 20
35.29044149802443
 10
11.55234239491777
 20
36.0462636900123
 10
10.75503110377637
 20
36.28023135089968
 10
10.05613212250272
 20
35.83080240735321
  0
CIRCLE
  5
2DF
330
1F
100
AcDbEntity
  8
0
100
AcDbCircle
 10
-0.0000000000001208
 20
0.0000000000000937
 30
0.0
 40
10.90000000000015
  0
ENDSEC
  0
SECTION
  2
OBJECTS
  0
DICTIONARY
  5
C
330
0
100
AcDbDictionary
281
     1
  3
ACAD_COLOR
350
2B9
  3
ACAD_DETAILVIEWSTYLE
350
122
  3
ACAD_GROUP
350
D
  3
ACAD_IMAGE_VARS
350
DC
  3
ACAD_LAYOUT
350
228
  3
ACAD_MATERIAL
350
267
  3
ACAD_MLEADERSTYLE
350
26D
  3
ACAD_MLINESTYLE
350
17
  3
ACAD_PLOTSETTINGS
350
2B5
  3
ACAD_PLOTSTYLENAME
350
2A6
  3
ACAD_SCALELIST
350
206
  3
ACAD_SECTIONVIEWSTYLE
350
123
  3
ACAD_TABLESTYLE
350
26B
  3
ACAD_VISUALSTYLE
350
278
  3
ACDB_RECOMPOSE_DATA
350
2E9
  3
ACDBVARIABLEDICTIONARY
350
66
  3
APPDATA
350
E1
  3
DIMOFFSETDICTIONARY
350
129
  0
SUN
  5
291
330
94
100
AcDbSun
 90
        1
290
     0
 63
     7
421
 16777215
 40
1.0
291
     1
 91
  2455826
 92
 54000000
292
     0
 70
     2
 71
   256
280
     1
  0
DICTIONARY
  5
15D
330
2
100
AcDbDictionary
280
     1
281
     1
  3
ACAD_LAYERSTATES
360
15E
  3
ACLYDICTIONARY
360
2B3
  0
DICTIONARY
  5
2B9
102
{ACAD_REACTORS
330
C
102
}
330
C
100
AcDbDictionary
281
     1
  0
DICTIONARY
  5
122
102
{ACAD_REACTORS
330
C
102
}
330
C
100
AcDbDictionary
281
     1
  0
DICTIONARY
  5
D
102
{ACAD_REACTORS
330
C
102
}
330
C
100
AcDbDictionary
281
     1
  0
RASTERVARIABLES
  5
DC
102
{ACAD_REACTORS
330
C
102
}
330
C
100
AcDbRasterVariables
 90
        0
 70
     1
 71
     1
 72
     5
  0
DICTIONARY
  5
228
102
{ACAD_REACTORS
330
C
102
}
330
C
100
AcDbDictionary
281
     1
  3
Model
350
229
  3
Sheet 1
350
22A
  0
DICTIONARY
  5
267
102
{ACAD_REACTORS
330
C
102
}
330
C
100
AcDbDictionary
281
     1
  3
ByBlock
350
2E4
  3
ByLayer
350
2E3
  3
Global
350
26A
  0
DICTIONARY
  5
26D
102
{ACAD_REACTORS
330
C
102
}
330
C
100
AcDbDictionary
281
     1
  3
Standard
350
26E
  0
DICTIONARY
  5
17
102
{ACAD_REACTORS
330
C
102
}
330
C
100
AcDbDictionary
281
     1
  3
STANDARD
350
18
  0
DICTIONARY
  5
2B5
102
{ACAD_REACTORS
330
C
102
}
330
C
100
AcDbDictionary
281
     1
  0
ACDBDICTIONARYWDFLT
  5
2A6
102
{ACAD_REACTORS
330
C
102
}
330
C
100
AcDbDictionary
281
     1
  3
Normal
350
2A7
100
AcDbDictionaryWithDefault
340
2A7
  0
DICTIONARY
  5
206
102
{ACAD_REACTORS
330
C
102
}
330
C
100
AcDbDictionary
281
     1
  3
A0
350
207
  3
A1
350
208
  3
A2
350
209
  3
A3
350
20A
  3
A4
350
20B
  3
A5
350
20C
  3
A6
350
20D
  3
A7
350
20E
  3
A8
350
20F
  3
A9
350
210
  3
B0
350
211
  3
B1
350
212
  3
B2
350
213
  3
B3
350
214
  3
B4
350
215
  3
B5
350
216
  3
B6
350
217
  3
B7
350
218
  3
B8
350
219
  3
B9
350
21A
  3
C0
350
21B
  3
C1
350
21C
  3
C2
350
21D
  3
C3
350
21E
  3
C4
350
21F
  3
C5
350
220
  3
C6
350
221
  3
C7
350
222
  3
C8
350
223
  3
C9
350
224
  3
D0
350
225
  3
D1
350
226
  3
D2
350
227
  0
DICTIONARY
  5
123
102
{ACAD_REACTORS
330
C
102
}
330
C
100
AcDbDictionary
281
     1
  0
DICTIONARY
  5
26B
102
{ACAD_REACTORS
330
C
102
}
330
C
100
AcDbDictionary
281
     1
  3
Standard
350
26C
  0
DICTIONARY
  5
278
102
{ACAD_REACTORS
330
C
102
}
330
C
100
AcDbDictionary
281
     1
  3
2dWireframe
350
27D
  3
Basic
350
280
  3
Brighten
350
284
  3
ColorChange
350
288
  3
Conceptual
350
282
  3
Dim
350
283
  3
EdgeColorOff
350
28B
  3
Facepattern
350
287
  3
Flat
350
279
  3
FlatWithEdges
350
27A
  3
Gouraud
350
27B
  3
GouraudWithEdges
350
27C
  3
Hidden
350
27F
  3
JitterOff
350
289
  3
Linepattern
350
286
  3
OverhangOff
350
28A
  3
Realistic
350
281
  3
Shaded
350
290
  3
Shaded with edges
350
28F
  3
Shades of Gray
350
28C
  3
Sketchy
350
28D
  3
Thicken
350
285
  3
Wireframe
350
27E
  3
X-Ray
350
28E
  0
XRECORD
  5
2E9
102
{ACAD_REACTORS
330
C
102
}
330
C
100
AcDbXrecord
280
     1
 90
        1
330
26C
  0
DICTIONARY
  5
66
102
{ACAD_REACTORS
330
C
102
}
330
C
100
AcDbDictionary
281
     1
  3
CANNOSCALE
350
270
  3
CMLEADERSTYLE
350
276
  3
CTABLESTYLE
350
275
  3
DIMASSOC
350
67
  3
HIDETEXT
350
6B
  3
HPTRANSPARENCY
350
12D
  3
MSLTSCALE
350
277
  3
XCLIPFRAME
350
296
  0
DICTIONARY
  5
E1
102
{ACAD_REACTORS
330
C
102
}
330
C
100
AcDbDictionary
281
     1
  0
DICTIONARY
  5
129
102
{ACAD_REACTORS
330
C
102
}
330
C
100
AcDbDictionary
281
     1
  3
DIMRAILANGLE
350
130
  3
DIMRAILFIRSTOFFSET
350
12E
  3
DIMRAILOFFSET
350
12F
  3
DIMRAILSENABLED
350
131
  0
DICTIONARY
  5
15E
102
{ACAD_REACTORS
330
15D
102
}
330
15D
100
AcDbDictionary
281
     1
  0
DICTIONARY
  5
2B3
102
{ACAD_REACTORS
330
15D
102
}
330
15D
100
AcDbDictionary
281
     1
1001
ACAD
1000
<All
  0
LAYOUT
  5
229
102
{ACAD_REACTORS
330
228
102
}
330
228
100
AcDbPlotSettings
  1

  2
none_device
  4
Letter_(8.50_x_11.00_Inches)
  6

 40
6.35
 41
6.35
 42
6.35
 43
6.35
 44
215.9
 45
279.4
 46
0.0
 47
0.0
 48
0.0
 49
0.0
140
0.0
141
0.0
142
1.0
143
29.98368123249656
 70
  1712
 72
     0
 73
     0
 74
     0
  7

 75
     0
 76
     0
 77
     2
 78
   300
147
0.0333514751656375
148
2330.834336645763
149
699.8425311479233
100
AcDbLayout
  1
Model
 70
     1
 71
     0
 10
0.0
 20
0.0
 11
12.0
 21
9.0
 12
0.0
 22
0.0
 32
0.0
 14
-17.90056162872463
 24
-45.92629555927414
 34
0.0
 15
18.90056162872463
 25
70.60000000000008
 35
0.0
146
0.0
 13
0.0
 23
0.0
 33
0.0
 16
1.0
 26
0.0
 36
0.0
 17
0.0
 27
1.0
 37
0.0
 76
     0
330
1F
331
94
  0
LAYOUT
  5
22A
102
{ACAD_REACTORS
330
228
102
}
330
228
100
AcDbPlotSettings
  1

  2
none_device
  4

  6

 40
0.0
 41
0.0
 42
0.0
 43
0.0
 44
0.0
 45
0.0
 46
0.0
 47
0.0
 48
0.0
 49
0.0
140
0.0
141
0.0
142
1.0
143
1.0
 70
   688
 72
     0
 73
     0
 74
     5
  7

 75
    16
 76
     0
 77
     2
 78
   300
147
1.0
148
0.0
149
0.0
100
AcDbLayout
  1
Sheet 1
 70
     1
 71
     1
 10
0.0
 20
0.0
 11
0.0
 21
0.0
 12
0.0
 22
0.0
 32
0.0
 14
0.0
 24
0.0
 34
0.0
 15
0.0
 25
0.0
 35
0.0
146
0.0
 13
0.0
 23
0.0
 33
0.0
 16
1.0
 26
0.0
 36
0.0
 17
0.0
 27
1.0
 37
0.0
 76
     0
330
58
  0
MATERIAL
  5
2E4
102
{ACAD_REACTORS
330
267
102
}
330
267
100
AcDbMaterial
  1
ByBlock
 72
     1
 94
      127
  0
MATERIAL
  5
2E3
102
{ACAD_REACTORS
330
267
102
}
330
267
100
AcDbMaterial
  1
ByLayer
 72
     1
 94
      127
  0
MATERIAL
  5
26A
102
{ACAD_REACTORS
330
267
102
}
330
267
100
AcDbMaterial
  1
Global
 72
     1
 94
      127
  0
MLEADERSTYLE
  5
26E
102
{ACAD_REACTORS
330
26D
102
}
330
26D
100
AcDbMLeaderStyle
170
     2
171
     1
172
     0
 90
        2
 40
0.0
 41
0.0
173
     1
 91
-1056964608
340
14
 92
       -2
290
     1
 42
0.09
291
     1
 43
0.36
  3
Standard
341
0
 44
0.18
300

342
11
174
     1
178
     6
175
     1
176
     0
 93
-1056964608
 45
0.18
292
     0
297
     0
 46
0.18
343
0
 94
-1056964608
 47
1.0
 49
1.0
140
1.0
293
     1
141
0.0
294
     1
177
     0
142
1.0
295
     0
296
     0
143
0.125
1001
ACAD_MLEADERVER
1070
     2
  0
MLINESTYLE
  5
18
102
{ACAD_REACTORS
330
17
102
}
330
17
100
AcDbMlineStyle
  2
STANDARD
 70
     0
  3

 62
   256
 51
90.0
 52
90.0
 71
     2
 49
0.5
 62
   256
  6
BYLAYER
 49
-0.5
 62
   256
  6
BYLAYER
  0
ACDBPLACEHOLDER
  5
2A7
102
{ACAD_REACTORS
330
2A6
102
}
330
2A6
  0
SCALE
  5
207
102
{ACAD_REACTORS
330
206
102
}
330
206
100
AcDbScale
 70
     0
300
1:1
140
1.0
141
1.0
290
     1
  0
SCALE
  5
208
102
{ACAD_REACTORS
330
206
102
}
330
206
100
AcDbScale
 70
     0
300
1:2
140
1.0
141
2.0
290
     0
  0
SCALE
  5
209
102
{ACAD_REACTORS
330
206
102
}
330
206
100
AcDbScale
 70
     0
300
1:4
140
1.0
141
4.0
290
     0
  0
SCALE
  5
20A
102
{ACAD_REACTORS
330
206
102
}
330
206
100
AcDbScale
 70
     0
300
1:5
140
1.0
141
5.0
290
     0
  0
SCALE
  5
20B
102
{ACAD_REACTORS
330
206
102
}
330
206
100
AcDbScale
 70
     0
300
1:8
140
1.0
141
8.0
290
     0
  0
SCALE
  5
20C
102
{ACAD_REACTORS
330
206
102
}
330
206
100
AcDbScale
 70
     0
300
1:10
140
1.0
141
10.0
290
     0
  0
SCALE
  5
20D
102
{ACAD_REACTORS
330
206
102
}
330
206
100
AcDbScale
 70
     0
300
1:16
140
1.0
141
16.0
290
     0
  0
SCALE
  5
20E
102
{ACAD_REACTORS
330
206
102
}
330
206
100
AcDbScale
 70
     0
300
1:20
140
1.0
141
20.0
290
     0
  0
SCALE
  5
20F
102
{ACAD_REACTORS
330
206
102
}
330
206
100
AcDbScale
 70
     0
300
1:30
140
1.0
141
30.0
290
     0
  0
SCALE
  5
210
102
{ACAD_REACTORS
330
206
102
}
330
206
100
AcDbScale
 70
     0
300
1:40
140
1.0
141
40.0
290
     0
  0
SCALE
  5
211
102
{ACAD_REACTORS
330
206
102
}
330
206
100
AcDbScale
 70
     0
300
1:50
140
1.0
141
50.0
290
     0
  0
SCALE
  5
212
102
{ACAD_REACTORS
330
206
102
}
330
206
100
AcDbScale
 70
     0
300
1:100
140
1.0
141
100.0
290
     0
  0
SCALE
  5
213
102
{ACAD_REACTORS
330
206
102
}
330
206
100
AcDbScale
 70
     0
300
2:1
140
2.0
141
1.0
290
     0
  0
SCALE
  5
214
102
{ACAD_REACTORS
330
206
102
}
330
206
100
AcDbScale
 70
     0
300
4:1
140
4.0
141
1.0
290
     0
  0
SCALE
  5
215
102
{ACAD_REACTORS
330
206
102
}
330
206
100
AcDbScale
 70
     0
300
8:1
140
8.0
141
1.0
290
     0
  0
SCALE
  5
216
102
{ACAD_REACTORS
330
206
102
}
330
206
100
AcDbScale
 70
     0
300
10:1
140
10.0
141
1.0
290
     0
  0
SCALE
  5
217
102
{ACAD_REACTORS
330
206
102
}
330
206
100
AcDbScale
 70
     0
300
100:1
140
100.0
141
1.0
290
     0
  0
SCALE
  5
218
102
{ACAD_REACTORS
330
206
102
}
330
206
100
AcDbScale
 70
     0
300
1/128" = 1'-0"
140
0.0078125
141
12.0
290
     0
  0
SCALE
  5
219
102
{ACAD_REACTORS
330
206
102
}
330
206
100
AcDbScale
 70
     0
300
1/64" = 1'-0"
140
0.015625
141
12.0
290
     0
  0
SCALE
  5
21A
102
{ACAD_REACTORS
330
206
102
}
330
206
100
AcDbScale
 70
     0
300
1/32" = 1'-0"
140
0.03125
141
12.0
290
     0
  0
SCALE
  5
21B
102
{ACAD_REACTORS
330
206
102
}
330
206
100
AcDbScale
 70
     0
300
1/16" = 1'-0"
140
0.0625
141
12.0
290
     0
  0
SCALE
  5
21C
102
{ACAD_REACTORS
330
206
102
}
330
206
100
AcDbScale
 70
     0
300
3/32" = 1'-0"
140
0.09375
141
12.0
290
     0
  0
SCALE
  5
21D
102
{ACAD_REACTORS
330
206
102
}
330
206
100
AcDbScale
 70
     0
300
1/8" = 1'-0"
140
0.125
141
12.0
290
     0
  0
SCALE
  5
21E
102
{ACAD_REACTORS
330
206
102
}
330
206
100
AcDbScale
 70
     0
300
3/16" = 1'-0"
140
0.1875
141
12.0
290
     0
  0
SCALE
  5
21F
102
{ACAD_REACTORS
330
206
102
}
330
206
100
AcDbScale
 70
     0
300
1/4" = 1'-0"
140
0.25
141
12.0
290
     0
  0
SCALE
  5
220
102
{ACAD_REACTORS
330
206
102
}
330
206
100
AcDbScale
 70
     0
300
3/8" = 1'-0"
140
0.375
141
12.0
290
     0
  0
SCALE
  5
221
102
{ACAD_REACTORS
330
206
102
}
330
206
100
AcDbScale
 70
     0
300
1/2" = 1'-0"
140
0.5
141
12.0
290
     0
  0
SCALE
  5
222
102
{ACAD_REACTORS
330
206
102
}
330
206
100
AcDbScale
 70
     0
300
3/4" = 1'-0"
140
0.75
141
12.0
290
     0
  0
SCALE
  5
223
102
{ACAD_REACTORS
330
206
102
}
330
206
100
AcDbScale
 70
     0
300
1" = 1'-0"
140
1.0
141
12.0
290
     0
  0
SCALE
  5
224
102
{ACAD_REACTORS
330
206
102
}
330
206
100
AcDbScale
 70
     0
300
1-1/2" = 1'-0"
140
1.5
141
12.0
290
     0
  0
SCALE
  5
225
102
{ACAD_REACTORS
330
206
102
}
330
206
100
AcDbScale
 70
     0
300
3" = 1'-0"
140
3.0
141
12.0
290
     0
  0
SCALE
  5
226
102
{ACAD_REACTORS
330
206
102
}
330
206
100
AcDbScale
 70
     0
300
6" = 1'-0"
140
6.0
141
12.0
290
     0
  0
SCALE
  5
227
102
{ACAD_REACTORS
330
206
102
}
330
206
100
AcDbScale
 70
     0
300
1'-0" = 1'-0"
140
12.0
141
12.0
290
     0
  0
TABLESTYLE
  5
26C
102
{ACAD_REACTORS
330
26B
102
}
102
{ACAD_XDICTIONARY
360
2E7
102
}
330
26B
100
AcDbTableStyle
  3
Standard
 70
     0
 71
     0
 40
0.06
 41
0.06
280
     0
281
     0
  7
STANDARD
140
0.18
170
     2
 62
     0
 63
   257
283
     0
 90
        4
 91
        0
  1

274
    -2
284
     1
 64
     0
275
    -2
285
     1
 65
     0
276
    -2
286
     1
 66
     0
277
    -2
287
     1
 67
     0
278
    -2
288
     1
 68
     0
279
    -2
289
     1
 69
     0
  7
STANDARD
140
0.25
170
     5
 62
     0
 63
   257
283
     0
 90
        4
 91
        0
  1

274
    -2
284
     1
 64
     0
275
    -2
285
     1
 65
     0
276
    -2
286
     1
 66
     0
277
    -2
287
     1
 67
     0
278
    -2
288
     1
 68
     0
279
    -2
289
     1
 69
     0
  7
STANDARD
140
0.18
170
     5
 62
     0
 63
   257
283
     0
 90
        4
 91
        0
  1

274
    -2
284
     1
 64
     0
275
    -2
285
     1
 65
     0
276
    -2
286
     1
 66
     0
277
    -2
287
     1
 67
     0
278
    -2
288
     1
 68
     0
279
    -2
289
     1
 69
     0
  0
VISUALSTYLE
  5
27D
102
{ACAD_REACTORS
330
278
102
}
330
278
100
AcDbVisualStyle
  2
2dWireframe
 70
     4
 71
     0
 72
     2
 73
     0
 90
        0
 40
0.6
 41
30.0
 62
     5
 63
     7
421
 16777215
 74
     1
 91
        4
 64
     7
 65
   257
 75
     1
175
     1
 42
1.0
 92
        0
 66
   257
 43
1.0
 76
     1
 77
     6
 78
     2
 67
     7
 79
     5
170
     0
171
     0
290
     0
174
     0
 93
        1
 44
0.0
173
     0
291
     0
 45
0.0
  0
VISUALSTYLE
  5
280
102
{ACAD_REACTORS
330
278
102
}
330
278
100
AcDbVisualStyle
  2
Basic
 70
     7
 71
     1
 72
     0
 73
     1
 90
        0
 40
0.6
 41
30.0
 62
     5
 63
     7
421
 16777215
 74
     0
 91
        4
 64
     7
 65
   257
 75
     1
175
     1
 42
1.0
 92
        8
 66
     7
 43
1.0
 76
     1
 77
     6
 78
     2
 67
     7
 79
     5
170
     0
171
     0
290
     0
174
     0
 93
        1
 44
0.0
173
     0
291
     1
 45
0.0
  0
VISUALSTYLE
  5
284
102
{ACAD_REACTORS
330
278
102
}
330
278
100
AcDbVisualStyle
  2
Brighten
 70
    12
 71
     2
 72
     2
 73
     0
 90
        0
 40
0.6
 41
30.0
 62
     5
 63
     7
421
 16777215
 74
     1
 91
        4
 64
     7
 65
   257
 75
     1
175
     1
 42
1.0
 92
        8
 66
     7
 43
1.0
 76
     1
 77
     6
 78
     2
 67
     7
 79
     5
170
     0
171
     0
290
     0
174
     0
 93
        1
 44
50.0
173
     0
291
     1
 45
0.0
  0
VISUALSTYLE
  5
288
102
{ACAD_REACTORS
330
278
102
}
330
278
100
AcDbVisualStyle
  2
ColorChange
 70
    16
 71
     2
 72
     2
 73
     3
 90
        0
 40
0.6
 41
30.0
 62
     5
 63
     8
421
  8421504
 74
     1
 91
        4
 64
     7
 65
   257
 75
     1
175
     1
 42
1.0
 92
        8
 66
     8
424
  8421504
 43
1.0
 76
     1
 77
     6
 78
     2
 67
     7
 79
     5
170
     0
171
     0
290
     0
174
     0
 93
        1
 44
0.0
173
     0
291
     1
 45
0.0
  0
VISUALSTYLE
  5
282
102
{ACAD_REACTORS
330
278
102
}
330
278
100
AcDbVisualStyle
  2
Conceptual
 70
     9
 71
     3
 72
     2
 73
     0
 90
        0
 40
0.6
 41
30.0
 62
     5
 63
     7
421
 16777215
 74
     2
 91
        2
 64
     7
 65
   257
 75
     1
175
     1
 42
179.0
 92
        8
 66
     7
 43
1.0
 76
     1
 77
     6
 78
     2
 67
     7
 79
     3
170
     0
171
     0
290
     0
174
     0
 93
        1
 44
0.0
173
     0
291
     0
 45
0.0
  0
VISUALSTYLE
  5
283
102
{ACAD_REACTORS
330
278
102
}
330
278
100
AcDbVisualStyle
  2
Dim
 70
    11
 71
     2
 72
     2
 73
     0
 90
        0
 40
0.6
 41
30.0
 62
     5
 63
     7
421
 16777215
 74
     1
 91
        4
 64
     7
 65
   257
 75
     1
175
     1
 42
1.0
 92
        8
 66
     7
 43
1.0
 76
     1
 77
     6
 78
     2
 67
     7
 79
     5
170
     0
171
     0
290
     0
174
     0
 93
        1
 44
-50.0
173
     0
291
     1
 45
0.0
  0
VISUALSTYLE
  5
28B
102
{ACAD_REACTORS
330
278
102
}
330
278
100
AcDbVisualStyle
  2
EdgeColorOff
 70
    22
 71
     2
 72
     2
 73
     0
 90
        0
 40
0.6
 41
30.0
 62
     5
 63
     7
421
 16777215
 74
     1
 91
        4
 64
     7
 65
   257
 75
     1
175
     1
 42
1.0
 92
        8
 66
     7
 43
1.0
 76
     1
 77
     6
 78
     2
 67
     7
 79
     5
170
     0
171
     0
290
     0
174
     0
 93
        1
 44
0.0
173
     0
291
     1
 45
0.0
  0
VISUALSTYLE
  5
287
102
{ACAD_REACTORS
330
278
102
}
330
278
100
AcDbVisualStyle
  2
Facepattern
 70
    15
 71
     2
 72
     2
 73
     0
 90
        0
 40
0.6
 41
30.0
 62
     5
 63
     7
421
 16777215
 74
     1
 91
        4
 64
     7
 65
   257
 75
     1
175
     1
 42
1.0
 92
        8
 66
     7
 43
1.0
 76
     1
 77
     6
 78
     2
 67
     7
 79
     5
170
     0
171
     0
290
     0
174
     0
 93
        1
 44
0.0
173
     0
291
     1
 45
0.0
  0
VISUALSTYLE
  5
279
102
{ACAD_REACTORS
330
278
102
}
330
278
100
AcDbVisualStyle
  2
Flat
 70
     0
 71
     2
 72
     1
 73
     1
 90
        2
 40
0.6
 41
30.0
 62
     5
 63
     7
421
 16777215
 74
     0
 91
        0
 64
     7
 65
   257
 75
     1
175
     1
 42
1.0
 92
        8
 66
     7
 43
1.0
 76
     1
 77
     6
 78
     2
 67
     7
 79
     5
170
     0
171
     0
290
     0
174
     0
 93
       13
 44
0.0
173
     0
291
     1
 45
0.0
  0
VISUALSTYLE
  5
27A
102
{ACAD_REACTORS
330
278
102
}
330
278
100
AcDbVisualStyle
  2
FlatWithEdges
 70
     1
 71
     2
 72
     1
 73
     1
 90
        2
 40
0.6
 41
30.0
 62
     5
 63
     7
421
 16777215
 74
     1
 91
        0
 64
     7
 65
   257
 75
     1
175
     1
 42
1.0
 92
        0
 66
   257
 43
1.0
 76
     1
 77
     6
 78
     2
 67
     7
 79
     5
170
     0
171
     0
290
     0
174
     0
 93
       13
 44
0.0
173
     0
291
     1
 45
0.0
  0
VISUALSTYLE
  5
27B
102
{ACAD_REACTORS
330
278
102
}
330
278
100
AcDbVisualStyle
  2
Gouraud
 70
     2
 71
     2
 72
     2
 73
     1
 90
        2
 40
0.6
 41
30.0
 62
     5
 63
     7
421
 16777215
 74
     0
 91
        0
 64
     7
 65
   257
 75
     1
175
     1
 42
1.0
 92
        0
 66
     7
 43
1.0
 76
     1
 77
     6
 78
     2
 67
     7
 79
     5
170
     0
171
     0
290
     0
174
     0
 93
       13
 44
0.0
173
     0
291
     1
 45
0.0
  0
VISUALSTYLE
  5
27C
102
{ACAD_REACTORS
330
278
102
}
330
278
100
AcDbVisualStyle
  2
GouraudWithEdges
 70
     3
 71
     2
 72
     2
 73
     1
 90
        2
 40
0.6
 41
30.0
 62
     5
 63
     7
421
 16777215
 74
     1
 91
        0
 64
     7
 65
   257
 75
     1
175
     1
 42
1.0
 92
        0
 66
   257
 43
1.0
 76
     1
 77
     6
 78
     2
 67
     7
 79
     5
170
     0
171
     0
290
     0
174
     0
 93
       13
 44
0.0
173
     0
291
     1
 45
0.0
  0
VISUALSTYLE
  5
27F
102
{ACAD_REACTORS
330
278
102
}
330
278
100
AcDbVisualStyle
  2
Hidden
 70
     6
 71
     1
 72
     2
 73
     2
 90
        0
 40
0.6
 41
30.0
 62
     5
 63
     7
421
 16777215
 74
     2
 91
        2
 64
     7
 65
   257
 75
     2
175
     1
 42
40.0
 92
        0
 66
   257
 43
1.0
 76
     1
 77
     6
 78
     2
 67
     7
 79
     3
170
     0
171
     0
290
     0
174
     0
 93
        1
 44
0.0
173
     0
291
     0
 45
0.0
  0
VISUALSTYLE
  5
289
102
{ACAD_REACTORS
330
278
102
}
330
278
100
AcDbVisualStyle
  2
JitterOff
 70
    20
 71
     2
 72
     2
 73
     0
 90
        0
 40
0.6
 41
30.0
 62
     5
 63
     7
421
 16777215
 74
     1
 91
        4
 64
     7
 65
   257
 75
     1
175
     1
 42
1.0
 92
       10
 66
     7
 43
1.0
 76
     1
 77
     6
 78
     2
 67
     7
 79
     5
170
     0
171
     0
290
     0
174
     0
 93
        1
 44
0.0
173
     0
291
     1
 45
0.0
  0
VISUALSTYLE
  5
286
102
{ACAD_REACTORS
330
278
102
}
330
278
100
AcDbVisualStyle
  2
Linepattern
 70
    14
 71
     2
 72
     2
 73
     0
 90
        0
 40
0.6
 41
30.0
 62
     5
 63
     7
421
 16777215
 74
     1
 91
        4
 64
     7
 65
   257
 75
     7
175
     7
 42
1.0
 92
        8
 66
     7
 43
1.0
 76
     1
 77
     6
 78
     2
 67
     7
 79
     5
170
     0
171
     0
290
     0
174
     0
 93
        1
 44
0.0
173
     0
291
     1
 45
0.0
  0
VISUALSTYLE
  5
28A
102
{ACAD_REACTORS
330
278
102
}
330
278
100
AcDbVisualStyle
  2
OverhangOff
 70
    21
 71
     2
 72
     2
 73
     0
 90
        0
 40
0.6
 41
30.0
 62
     5
 63
     7
421
 16777215
 74
     1
 91
        4
 64
     7
 65
   257
 75
     1
175
     1
 42
1.0
 92
        9
 66
     7
 43
1.0
 76
     1
 77
     6
 78
     2
 67
     7
 79
     5
170
     0
171
     0
290
     0
174
     0
 93
        1
 44
0.0
173
     0
291
     1
 45
0.0
  0
VISUALSTYLE
  5
281
102
{ACAD_REACTORS
330
278
102
}
330
278
100
AcDbVisualStyle
  2
Realistic
 70
     8
 71
     2
 72
     3
 73
     0
 90
        2
 40
0.6
 41
30.0
 62
     5
 63
     7
421
 16777215
 74
     0
 91
        0
 64
     7
 65
   257
 75
     1
175
     1
 42
1.0
 92
        8
 66
   257
 43
1.0
 76
     1
 77
     6
 78
     2
 67
     7
 79
     3
170
     0
171
     0
290
     0
174
     0
 93
       13
 44
0.0
173
     0
291
     0
 45
0.0
  0
VISUALSTYLE
  5
290
102
{ACAD_REACTORS
330
278
102
}
330
278
100
AcDbVisualStyle
  2
Shaded
 70
    27
 71
     2
 72
     2
 73
     1
 90
        2
 40
0.6
 41
30.0
 62
     5
 63
     7
421
 16777215
 74
     0
 91
        4
 64
     7
 65
   257
 75
     1
175
     1
 42
1.0
 92
        8
 66
   257
 43
1.0
 76
     1
 77
     6
 78
     2
 67
     8
425
  7895160
 79
     3
170
     0
171
     0
290
     0
174
     0
 93
        5
 44
0.0
173
     0
291
     0
 45
0.0
  0
VISUALSTYLE
  5
28F
102
{ACAD_REACTORS
330
278
102
}
330
278
100
AcDbVisualStyle
  2
Shaded with edges
 70
    26
 71
     2
 72
     2
 73
     1
 90
        2
 40
0.6
 41
30.0
 62
     5
 63
     7
421
 16777215
 74
     1
 91
       10
 64
     7
 65
   257
 75
     2
175
     1
 42
1.0
 92
        8
 66
   257
 43
1.0
 76
     1
 77
     6
 78
     2
 67
     7
 79
     3
170
     0
171
     0
290
     0
174
     0
 93
        5
 44
0.0
173
     0
291
     0
 45
0.0
  0
VISUALSTYLE
  5
28C
102
{ACAD_REACTORS
330
278
102
}
330
278
100
AcDbVisualStyle
  2
Shades of Gray
 70
    23
 71
     2
 72
     2
 73
     3
 90
        0
 40
0.6
 41
30.0
 62
     5
 63
     7
421
 16777215
 74
     2
 91
        2
 64
     7
 65
     7
 75
     1
175
     1
 42
40.0
 92
        8
 66
     7
 43
1.0
 76
     1
 77
     6
 78
     2
 67
     7
 79
     3
170
     0
171
     0
290
     0
174
     0
 93
        1
 44
0.0
173
     0
291
     0
 45
0.0
  0
VISUALSTYLE
  5
28D
102
{ACAD_REACTORS
330
278
102
}
330
278
100
AcDbVisualStyle
  2
Sketchy
 70
    24
 71
     1
 72
     2
 73
     2
 90
        0
 40
0.6
 41
30.0
 62
     5
 63
     7
421
 16777215
 74
     2
 91
        2
 64
     7
 65
     7
 75
     1
175
     1
 42
40.0
 92
       11
 66
     7
 43
1.0
 76
     1
 77
     6
 78
     2
 67
     7
 79
     6
170
     0
171
     0
290
     0
174
     0
 93
        1
 44
0.0
173
     0
291
     0
 45
0.0
  0
VISUALSTYLE
  5
285
102
{ACAD_REACTORS
330
278
102
}
330
278
100
AcDbVisualStyle
  2
Thicken
 70
    13
 71
     2
 72
     2
 73
     0
 90
        0
 40
0.6
 41
30.0
 62
     5
 63
     7
421
 16777215
 74
     1
 91
        4
 64
     7
 65
   257
 75
     1
175
     1
 42
1.0
 92
       12
 66
     7
 43
1.0
 76
     1
 77
     6
 78
     2
 67
     7
 79
     5
170
     0
171
     0
290
     0
174
     0
 93
        1
 44
0.0
173
     0
291
     1
 45
0.0
  0
VISUALSTYLE
  5
27E
102
{ACAD_REACTORS
330
278
102
}
330
278
100
AcDbVisualStyle
  2
Wireframe
 70
     5
 71
     0
 72
     2
 73
     0
 90
        0
 40
0.6
 41
30.0
 62
     5
 63
     7
421
 16777215
 74
     1
 91
        4
 64
     7
 65
   257
 75
     1
175
     1
 42
1.0
 92
        0
 66
   257
 43
1.0
 76
     1
 77
     6
 78
     2
 67
     7
 79
     3
170
     0
171
     0
290
     0
174
     0
 93
        1
 44
0.0
173
     0
291
     0
 45
0.0
  0
VISUALSTYLE
  5
28E
102
{ACAD_REACTORS
330
278
102
}
330
278
100
AcDbVisualStyle
  2
X-Ray
 70
    25
 71
     2
 72
     2
 73
     1
 90
        1
 40
0.5
 41
30.0
 62
     5
 63
     7
421
 16777215
 74
     1
 91
        0
 64
     7
 65
   257
 75
     1
175
     1
 42
1.0
 92
        8
 66
     7
 43
1.0
 76
     1
 77
     6
 78
     2
 67
     7
 79
     3
170
     0
171
     0
290
     0
174
     0
 93
       13
 44
0.0
173
     0
291
     0
 45
0.0
  0
DICTIONARYVAR
  5
270
102
{ACAD_REACTORS
330
66
102
}
330
66
100
DictionaryVariables
280
     0
  1
1:1
  0
DICTIONARYVAR
  5
276
102
{ACAD_REACTORS
330
66
102
}
330
66
100
DictionaryVariables
280
     0
  1
Standard
  0
DICTIONARYVAR
  5
275
102
{ACAD_REACTORS
330
66
102
}
330
66
100
DictionaryVariables
280
     0
  1
Standard
  0
DICTIONARYVAR
  5
67
102
{ACAD_REACTORS
330
66
102
}
330
66
100
DictionaryVariables
280
     0
  1
2
  0
DICTIONARYVAR
  5
6B
102
{ACAD_REACTORS
330
66
102
}
330
66
100
DictionaryVariables
280
     0
  1
1
  0
DICTIONARYVAR
  5
12D
102
{ACAD_REACTORS
330
66
102
}
330
66
100
DictionaryVariables
280
     0
  1
ByLayer
  0
DICTIONARYVAR
  5
277
102
{ACAD_REACTORS
330
66
102
}
330
66
100
DictionaryVariables
280
     0
  1
0
  0
DICTIONARYVAR
  5
296
102
{ACAD_REACTORS
330
66
102
}
330
66
100
DictionaryVariables
280
     0
  1
0
  0
DICTIONARYVAR
  5
130
102
{ACAD_REACTORS
330
129
102
}
330
129
100
DictionaryVariables
280
     0
  1
0.261799
  0
DICTIONARYVAR
  5
12E
102
{ACAD_REACTORS
330
129
102
}
330
129
100
DictionaryVariables
280
     0
  1
0.400000
  0
DICTIONARYVAR
  5
12F
102
{ACAD_REACTORS
330
129
102
}
330
129
100
DictionaryVariables
280
     0
  1
0.250000
  0
DICTIONARYVAR
  5
131
102
{ACAD_REACTORS
330
129
102
}
330
129
100
DictionaryVariables
280
     0
  1
1
  0
DICTIONARY
  5
2E7
330
26C
100
AcDbDictionary
280
     1
281
     1
  3
ACAD_ROUNDTRIP_2008_TABLESTYLE_CELLSTYLEMAP
360
2E8
  0
CELLSTYLEMAP
  5
2E8
102
{ACAD_REACTORS
330
2E7
102
}
330
2E7
100
AcDbCellStyleMap
 90
        3
300
CELLSTYLE
  1
TABLEFORMAT_BEGIN
 90
        5
170
     1
 91
        0
 92
    32768
 62
   257
 93
        1
300
CONTENTFORMAT
  1
CONTENTFORMAT_BEGIN
 90
        0
 91
        0
 92
        4
 93
        0
300

 40
0.0
140
1.0
 94
        5
 62
     0
340
11
144
0.25
309
CONTENTFORMAT_END
171
     1
301
MARGIN
  1
CELLMARGIN_BEGIN
 40
0.06
 40
0.06
 40
0.06
 40
0.06
 40
0.06
 40
0.06
309
CELLMARGIN_END
 94
        6
 95
        1
302
GRIDFORMAT
  1
GRIDFORMAT_BEGIN
 90
        0
 91
        1
 62
     0
 92
       -2
340
14
 93
        0
 40
0.045
309
GRIDFORMAT_END
 95
        2
302
GRIDFORMAT
  1
GRIDFORMAT_BEGIN
 90
        0
 91
        1
 62
     0
 92
       -2
340
14
 93
        0
 40
0.045
309
GRIDFORMAT_END
 95
        4
302
GRIDFORMAT
  1
GRIDFORMAT_BEGIN
 90
        0
 91
        1
 62
     0
 92
       -2
340
14
 93
        0
 40
0.045
309
GRIDFORMAT_END
 95
        8
302
GRIDFORMAT
  1
GRIDFORMAT_BEGIN
 90
        0
 91
        1
 62
     0
 92
       -2
340
14
 93
        0
 40
0.045
309
GRIDFORMAT_END
 95
       16
302
GRIDFORMAT
  1
GRIDFORMAT_BEGIN
 90
        0
 91
        1
 62
     0
 92
       -2
340
14
 93
        0
 40
0.045
309
GRIDFORMAT_END
 95
       32
302
GRIDFORMAT
  1
GRIDFORMAT_BEGIN
 90
        0
 91
        1
 62
     0
 92
       -2
340
14
 93
        0
 40
0.045
309
GRIDFORMAT_END
309
TABLEFORMAT_END
  1
CELLSTYLE_BEGIN
 90
        1
 91
        1
300
_TITLE
309
CELLSTYLE_END
300
CELLSTYLE
  1
TABLEFORMAT_BEGIN
 90
        5
170
     1
 91
        0
 92
        0
 62
   257
 93
        1
300
CONTENTFORMAT
  1
CONTENTFORMAT_BEGIN
 90
        0
 91
        0
 92
        4
 93
        0
300

 40
0.0
140
1.0
 94
        5
 62
     0
340
11
144
0.18
309
CONTENTFORMAT_END
171
     1
301
MARGIN
  1
CELLMARGIN_BEGIN
 40
0.06
 40
0.06
 40
0.06
 40
0.06
 40
0.06
 40
0.06
309
CELLMARGIN_END
 94
        6
 95
        1
302
GRIDFORMAT
  1
GRIDFORMAT_BEGIN
 90
        0
 91
        1
 62
     0
 92
       -2
340
14
 93
        0
 40
0.045
309
GRIDFORMAT_END
 95
        2
302
GRIDFORMAT
  1
GRIDFORMAT_BEGIN
 90
        0
 91
        1
 62
     0
 92
       -2
340
14
 93
        0
 40
0.045
309
GRIDFORMAT_END
 95
        4
302
GRIDFORMAT
  1
GRIDFORMAT_BEGIN
 90
        0
 91
        1
 62
     0
 92
       -2
340
14
 93
        0
 40
0.045
309
GRIDFORMAT_END
 95
        8
302
GRIDFORMAT
  1
GRIDFORMAT_BEGIN
 90
        0
 91
        1
 62
     0
 92
       -2
340
14
 93
        0
 40
0.045
309
GRIDFORMAT_END
 95
       16
302
GRIDFORMAT
  1
GRIDFORMAT_BEGIN
 90
        0
 91
        1
 62
     0
 92
       -2
340
14
 93
        0
 40
0.045
309
GRIDFORMAT_END
 95
       32
302
GRIDFORMAT
  1
GRIDFORMAT_BEGIN
 90
        0
 91
        1
 62
     0
 92
       -2
340
14
 93
        0
 40
0.045
309
GRIDFORMAT_END
309
TABLEFORMAT_END
  1
CELLSTYLE_BEGIN
 90
        2
 91
        1
300
_HEADER
309
CELLSTYLE_END
300
CELLSTYLE
  1
TABLEFORMAT_BEGIN
 90
        5
170
     1
 91
        0
 92
        0
 62
   257
 93
        1
300
CONTENTFORMAT
  1
CONTENTFORMAT_BEGIN
 90
        0
 91
        0
 92
        4
 93
        0
300

 40
0.0
140
1.0
 94
        2
 62
     0
340
11
144
0.18
309
CONTENTFORMAT_END
171
     1
301
MARGIN
  1
CELLMARGIN_BEGIN
 40
0.06
 40
0.06
 40
0.06
 40
0.06
 40
0.06
 40
0.06
309
CELLMARGIN_END
 94
        6
 95
        1
302
GRIDFORMAT
  1
GRIDFORMAT_BEGIN
 90
        0
 91
        1
 62
     0
 92
       -2
340
14
 93
        0
 40
0.045
309
GRIDFORMAT_END
 95
        2
302
GRIDFORMAT
  1
GRIDFORMAT_BEGIN
 90
        0
 91
        1
 62
     0
 92
       -2
340
14
 93
        0
 40
0.045
309
GRIDFORMAT_END
 95
        4
302
GRIDFORMAT
  1
GRIDFORMAT_BEGIN
 90
        0
 91
        1
 62
     0
 92
       -2
340
14
 93
        0
 40
0.045
309
GRIDFORMAT_END
 95
        8
302
GRIDFORMAT
  1
GRIDFORMAT_BEGIN
 90
        0
 91
        1
 62
     0
 92
       -2
340
14
 93
        0
 40
0.045
309
GRIDFORMAT_END
 95
       16
302
GRIDFORMAT
  1
GRIDFORMAT_BEGIN
 90
        0
 91
        1
 62
     0
 92
       -2
340
14
 93
        0
 40
0.045
309
GRIDFORMAT_END
 95
       32
302
GRIDFORMAT
  1
GRIDFORMAT_BEGIN
 90
        0
 91
        1
 62
     0
 92
       -2
340
14
 93
        0
 40
0.045
309
GRIDFORMAT_END
309
TABLEFORMAT_END
  1
CELLSTYLE_BEGIN
 90
        3
 91
        2
300
_DATA
309
CELLSTYLE_END
  0
ENDSEC
  0
EOF
