  0
SECTION
  2
HEADER
  9
$ACADVER
  1
AC1021
  9
$ACADMAINTVER
 70
    25
  9
$DWGCODEPAGE
  3
ANSI_1252
  9
$LASTSAVEDBY
  1
DDB
  9
$INSBASE
 10
0.0
 20
0.0
 30
0.0
  9
$EXTMIN
 10
-32.85005430039735
 20
-40.0
 30
0.0
  9
$EXTMAX
 10
52.44847935316036
 20
50.00670069767111
 30
0.0
  9
$LIMMIN
 10
0.0
 20
0.0
  9
$LIMMAX
 10
12.0
 20
9.0
  9
$ORTHOMODE
 70
     1
  9
$REGENMODE
 70
     1
  9
$FILLMODE
 70
     1
  9
$QTEXTMODE
 70
     0
  9
$MIRRTEXT
 70
     0
  9
$LTSCALE
 40
1.0
  9
$ATTMODE
 70
     1
  9
$TEXTSIZE
 40
0.2
  9
$TRACEWID
 40
0.05
  9
$TEXTSTYLE
  7
Standard
  9
$CLAYER
  8
0
  9
$CELTYPE
  6
ByLayer
  9
$CECOLOR
 62
   256
  9
$CELTSCALE
 40
1.0
  9
$DISPSILH
 70
     0
  9
$DIMSCALE
 40
1.0
  9
$DIMASZ
 40
1.0
  9
$DIMEXO
 40
1.0
  9
$DIMDLI
 40
1.0
  9
$DIMRND
 40
0.0
  9
$DIMDLE
 40
0.0
  9
$DIMEXE
 40
0.5
  9
$DIMTP
 40
0.0
  9
$DIMTM
 40
0.0
  9
$DIMTXT
 40
1.0
  9
$DIMCEN
 40
0.09
  9
$DIMTSZ
 40
0.0
  9
$DIMTOL
 70
     0
  9
$DIMLIM
 70
     0
  9
$DIMTIH
 70
     0
  9
$DIMTOH
 70
     0
  9
$DIMSE1
 70
     0
  9
$DIMSE2
 70
     0
  9
$DIMTAD
 70
     0
  9
$DIMZIN
 70
     0
  9
$DIMBLK
  1

  9
$DIMASO
 70
     1
  9
$DIMSHO
 70
     1
  9
$DIMPOST
  1

  9
$DIMAPOST
  1

  9
$DIMALT
 70
     0
  9
$DIMALTD
 70
     2
  9
$DIMALTF
 40
25.4
  9
$DIMLFAC
 40
1.0
  9
$DIMTOFL
 70
     0
  9
$DIMTVP
 40
0.0
  9
$DIMTIX
 70
     0
  9
$DIMSOXD
 70
     0
  9
$DIMSAH
 70
     0
  9
$DIMBLK1
  1

  9
$DIMBLK2
  1

  9
$DIMSTYLE
  2
Standard
  9
$DIMCLRD
 70
     0
  9
$DIMCLRE
 70
     0
  9
$DIMCLRT
 70
     0
  9
$DIMTFAC
 40
1.0
  9
$DIMGAP
 40
0.5
  9
$DIMJUST
 70
     0
  9
$DIMSD1
 70
     0
  9
$DIMSD2
 70
     0
  9
$DIMTOLJ
 70
     1
  9
$DIMTZIN
 70
     0
  9
$DIMALTZ
 70
     0
  9
$DIMALTTZ
 70
     0
  9
$DIMUPT
 70
     0
  9
$DIMDEC
 70
     4
  9
$DIMTDEC
 70
     4
  9
$DIMALTU
 70
     2
  9
$DIMALTTD
 70
     2
  9
$DIMTXSTY
  7
Standard
  9
$DIMAUNIT
 70
     0
  9
$DIMADEC
 70
     0
  9
$DIMALTRND
 40
0.0
  9
$DIMAZIN
 70
     0
  9
$DIMDSEP
 70
    46
  9
$DIMATFIT
 70
     3
  9
$DIMFRAC
 70
     0
  9
$DIMLDRBLK
  1

  9
$DIMLUNIT
 70
     2
  9
$DIMLWD
 70
    -2
  9
$DIMLWE
 70
    -2
  9
$DIMTMOVE
 70
     0
  9
$DIMFXL
 40
1.0
  9
$DIMFXLON
 70
     0
  9
$DIMJOGANG
 40
0.7853981633974483
  9
$DIMTFILL
 70
     0
  9
$DIMTFILLCLR
 70
     0
  9
$DIMARCSYM
 70
     0
  9
$DIMLTYPE
  6

  9
$DIMLTEX1
  6

  9
$DIMLTEX2
  6

  9
$LUNITS
 70
     2
  9
$LUPREC
 70
     4
  9
$SKETCHINC
 40
0.1
  9
$FILLETRAD
 40
0.0
  9
$AUNITS
 70
     0
  9
$AUPREC
 70
     0
  9
$MENU
  1
.
  9
$ELEVATION
 40
0.0
  9
$PELEVATION
 40
0.0
  9
$THICKNESS
 40
0.0
  9
$LIMCHECK
 70
     0
  9
$CHAMFERA
 40
0.0
  9
$CHAMFERB
 40
0.0
  9
$CHAMFERC
 40
0.0
  9
$CHAMFERD
 40
0.0
  9
$SKPOLY
 70
     0
  9
$TDCREATE
 40
2452642.855050937
  9
$TDUCREATE
 40
2452643.063384271
  9
$TDUPDATE
 40
2457371.414412419
  9
$TDUUPDATE
 40
2457371.622745752
  9
$TDINDWG
 40
0.0173107292
  9
$TDUSRTIMER
 40
2457371.609211991
  9
$USRTIMER
 70
     1
  9
$ANGBASE
 50
0.0
  9
$ANGDIR
 70
     0
  9
$PDMODE
 70
     0
  9
$PDSIZE
 40
0.0
  9
$PLINEWID
 40
0.0
  9
$SPLFRAME
 70
     0
  9
$SPLINETYPE
 70
     6
  9
$SPLINESEGS
 70
     8
  9
$HANDSEED
  5
63B
  9
$SURFTAB1
 70
     6
  9
$SURFTAB2
 70
     6
  9
$SURFTYPE
 70
     6
  9
$SURFU
 70
     6
  9
$SURFV
 70
     6
  9
$UCSBASE
  2

  9
$UCSNAME
  2

  9
$UCSORG
 10
0.0
 20
0.0
 30
0.0
  9
$UCSXDIR
 10
1.0
 20
0.0
 30
0.0
  9
$UCSYDIR
 10
0.0
 20
1.0
 30
0.0
  9
$UCSORTHOREF
  2

  9
$UCSORTHOVIEW
 70
     0
  9
$UCSORGTOP
 10
0.0
 20
0.0
 30
0.0
  9
$UCSORGBOTTOM
 10
0.0
 20
0.0
 30
0.0
  9
$UCSORGLEFT
 10
0.0
 20
0.0
 30
0.0
  9
$UCSORGRIGHT
 10
0.0
 20
0.0
 30
0.0
  9
$UCSORGFRONT
 10
0.0
 20
0.0
 30
0.0
  9
$UCSORGBACK
 10
0.0
 20
0.0
 30
0.0
  9
$PUCSBASE
  2

  9
$PUCSNAME
  2

  9
$PUCSORG
 10
0.0
 20
0.0
 30
0.0
  9
$PUCSXDIR
 10
1.0
 20
0.0
 30
0.0
  9
$PUCSYDIR
 10
0.0
 20
1.0
 30
0.0
  9
$PUCSORTHOREF
  2

  9
$PUCSORTHOVIEW
 70
     0
  9
$PUCSORGTOP
 10
0.0
 20
0.0
 30
0.0
  9
$PUCSORGBOTTOM
 10
0.0
 20
0.0
 30
0.0
  9
$PUCSORGLEFT
 10
0.0
 20
0.0
 30
0.0
  9
$PUCSORGRIGHT
 10
0.0
 20
0.0
 30
0.0
  9
$PUCSORGFRONT
 10
0.0
 20
0.0
 30
0.0
  9
$PUCSORGBACK
 10
0.0
 20
0.0
 30
0.0
  9
$USERI1
 70
     0
  9
$USERI2
 70
     0
  9
$USERI3
 70
     0
  9
$USERI4
 70
     0
  9
$USERI5
 70
     0
  9
$USERR1
 40
0.0
  9
$USERR2
 40
0.0
  9
$USERR3
 40
0.0
  9
$USERR4
 40
0.0
  9
$USERR5
 40
0.0
  9
$WORLDVIEW
 70
     1
  9
$SHADEDGE
 70
     3
  9
$SHADEDIF
 70
    70
  9
$TILEMODE
 70
     1
  9
$MAXACTVP
 70
    64
  9
$PINSBASE
 10
0.0
 20
0.0
 30
0.0
  9
$PLIMCHECK
 70
     0
  9
$PEXTMIN
 10
0.0
 20
0.0
 30
0.0
  9
$PEXTMAX
 10
0.0
 20
0.0
 30
0.0
  9
$PLIMMIN
 10
0.0
 20
0.0
  9
$PLIMMAX
 10
0.0
 20
0.0
  9
$UNITMODE
 70
     0
  9
$VISRETAIN
 70
     1
  9
$PLINEGEN
 70
     0
  9
$PSLTSCALE
 70
     1
  9
$TREEDEPTH
 70
  3020
  9
$CMLSTYLE
  2
Standard
  9
$CMLJUST
 70
     0
  9
$CMLSCALE
 40
1.0
  9
$PROXYGRAPHICS
 70
     1
  9
$MEASUREMENT
 70
     0
  9
$CELWEIGHT
370
    -1
  9
$ENDCAPS
280
     0
  9
$JOINSTYLE
280
     0
  9
$LWDISPLAY
290
     0
  9
$INSUNITS
 70
     1
  9
$HYPERLINKBASE
  1

  9
$STYLESHEET
  1

  9
$XEDIT
290
     1
  9
$CEPSNTYPE
380
     0
  9
$PSTYLEMODE
290
     1
  9
$FINGERPRINTGUID
  2
{FDEAD576-A652-11D2-9A35-0060089B3A3F}
  9
$VERSIONGUID
  2
{FBC2AE19-5C5C-49EC-81BC-71B1A3362A02}
  9
$EXTNAMES
290
     1
  9
$PSVPSCALE
 40
0.0
  9
$OLESTARTUP
290
     0
  9
$SORTENTS
280
   127
  9
$INDEXCTL
280
     0
  9
$HIDETEXT
280
     1
  9
$XCLIPFRAME
290
     0
  9
$HALOGAP
280
     0
  9
$OBSCOLOR
 70
   257
  9
$OBSLTYPE
280
     0
  9
$INTERSECTIONDISPLAY
280
     0
  9
$INTERSECTIONCOLOR
 70
   257
  9
$DIMASSOC
280
     2
  9
$PROJECTNAME
  1

  9
$CAMERADISPLAY
290
     0
  9
$LENSLENGTH
 40
50.0
  9
$CAMERAHEIGHT
 40
0.0
  9
$STEPSPERSEC
 40
2.0
  9
$STEPSIZE
 40
6.0
  9
$3DDWFPREC
 40
2.0
  9
$PSOLWIDTH
 40
0.25
  9
$PSOLHEIGHT
 40
4.0
  9
$LOFTANG1
 40
1.570796326794897
  9
$LOFTANG2
 40
1.570796326794897
  9
$LOFTMAG1
 40
0.0
  9
$LOFTMAG2
 40
0.0
  9
$LOFTPARAM
 70
     7
  9
$LOFTNORMALS
280
     1
  9
$LATITUDE
 40
37.795
  9
$LONGITUDE
 40
-122.394
  9
$NORTHDIRECTION
 40
0.0
  9
$TIMEZONE
 70
 -8000
  9
$LIGHTGLYPHDISPLAY
280
     1
  9
$TILEMODELIGHTSYNCH
280
     1
  9
$CMATERIAL
347
96
  9
$SOLIDHIST
280
     1
  9
$SHOWHIST
280
     1
  9
$DWFFRAME
280
     2
  9
$DGNFRAME
280
     0
  9
$REALWORLDSCALE
290
     1
  9
$INTERFERECOLOR
 62
     1
  9
$CSHADOW
280
     0
  9
$SHADOWPLANELOCATION
 40
0.0
  0
ENDSEC
  0
SECTION
  2
CLASSES
  0
CLASS
  1
ACDBDICTIONARYWDFLT
  2
AcDbDictionaryWithDefault
  3
ObjectDBX Classes
 90
        0
 91
        5
280
     0
281
     0
  0
CLASS
  1
ACDBPLACEHOLDER
  2
AcDbPlaceHolder
  3
ObjectDBX Classes
 90
        0
 91
        1
280
     0
281
     0
  0
CLASS
  1
LAYOUT
  2
AcDbLayout
  3
ObjectDBX Classes
 90
        0
 91
        1
280
     0
281
     0
  0
CLASS
  1
DICTIONARYVAR
  2
AcDbDictionaryVar
  3
ObjectDBX Classes
 90
        0
 91
        5
280
     0
281
     0
  0
CLASS
  1
TABLESTYLE
  2
AcDbTableStyle
  3
ObjectDBX Classes
 90
     4095
 91
        5
280
     0
281
     0
  0
CLASS
  1
MATERIAL
  2
AcDbMaterial
  3
ObjectDBX Classes
 90
     1153
 91
        5
280
     0
281
     0
  0
CLASS
  1
VISUALSTYLE
  2
AcDbVisualStyle
  3
ObjectDBX Classes
 90
     4095
 91
        5
280
     0
281
     0
  0
CLASS
  1
SCALE
  2
AcDbScale
  3
ObjectDBX Classes
 90
     1153
 91
        5
280
     0
281
     0
  0
CLASS
  1
CELLSTYLEMAP
  2
AcDbCellStyleMap
  3
ObjectDBX Classes
 90
     1152
 91
        5
280
     0
281
     0
  0
CLASS
  1
RASTERVARIABLES
  2
AcDbRasterVariables
  3
ISM
 90
        0
 91
        5
280
     0
281
     0
  0
CLASS
  1
MLEADERSTYLE
  2
AcDbMLeaderStyle
  3
ACDB_MLEADERSTYLE_CLASS
 90
     4095
 91
        5
280
     0
281
     0
  0
CLASS
  1
SUN
  2
AcDbSun
  3
SCENEOE
 90
     1153
 91
        5
280
     0
281
     0
  0
CLASS
  1
DIMASSOC
  2
AcDbDimAssoc
  3
"AcDbDimAssoc|Product Desc:     AcDim ARX App For Dimension|Company:          Autodesk, Inc.|WEB Address:      www.autodesk.com"
 90
        0
 91
        5
280
     0
281
     0
  0
ENDSEC
  0
SECTION
  2
TABLES
  0
TABLE
  2
VPORT
  5
8
330
0
100
AcDbSymbolTable
 70
     1
  0
VPORT
  5
94
330
8
100
AcDbSymbolTableRecord
100
AcDbViewportTableRecord
  2
*Active
 70
     0
 10
0.0
 20
0.0
 11
1.0
 21
1.0
 12
37.46880609236139
 22
24.5420533066976
 13
0.0
 23
0.0
 14
0.5
 24
0.5
 15
0.5
 25
0.5
 16
0.0
 26
0.0
 36
1.0
 17
-27.66959356597989
 27
-19.53870295786204
 37
0.0
 40
91.80683471162453
 41
1.741233373639661
 42
50.0
 43
0.0
 44
0.0
 50
0.0
 51
0.0
 71
    16
 72
  1000
 73
     1
 74
     3
 75
     0
 76
     0
 77
     0
 78
     0
281
     0
 65
     1
110
0.0
120
0.0
130
0.0
111
1.0
121
0.0
131
0.0
112
0.0
122
1.0
132
0.0
 79
     0
146
0.0
348
9F
 60
     2
 61
     5
292
     1
282
     1
141
0.0
142
0.0
 63
   250
421
  3355443
361
EE
  0
ENDTAB
  0
TABLE
  2
LTYPE
  5
5
330
0
100
AcDbSymbolTable
 70
     1
  0
LTYPE
  5
14
330
5
100
AcDbSymbolTableRecord
100
AcDbLinetypeTableRecord
  2
ByBlock
 70
     0
  3

 72
    65
 73
     0
 40
0.0
  0
LTYPE
  5
15
330
5
100
AcDbSymbolTableRecord
100
AcDbLinetypeTableRecord
  2
ByLayer
 70
     0
  3

 72
    65
 73
     0
 40
0.0
  0
LTYPE
  5
16
330
5
100
AcDbSymbolTableRecord
100
AcDbLinetypeTableRecord
  2
Continuous
 70
     0
  3
Solid line
 72
    65
 73
     0
 40
0.0
  0
ENDTAB
  0
TABLE
  2
LAYER
  5
2
102
{ACAD_XDICTIONARY
360
491
102
}
330
0
100
AcDbSymbolTable
 70
     6
  0
LAYER
  5
10
330
2
100
AcDbSymbolTableRecord
100
AcDbLayerTableRecord
  2
0
 70
     0
 62
     7
  6
Continuous
370
    -3
390
F
347
98
  0
LAYER
  5
49E
330
2
100
AcDbSymbolTableRecord
100
AcDbLayerTableRecord
  2
BotBracket
 70
     0
 62
     3
  6
Continuous
370
    -3
390
F
347
98
1001
AcAecLayerStandard
1000

1000

  0
LAYER
  5
4A1
330
2
100
AcDbSymbolTableRecord
100
AcDbLayerTableRecord
  2
BotBracketExtend
 70
     0
 62
   122
  6
Continuous
290
     0
370
    -3
390
F
347
98
1001
AcAecLayerStandard
1000

1000

  0
LAYER
  5
55A
330
2
100
AcDbSymbolTableRecord
100
AcDbLayerTableRecord
  2
Holes
 70
     0
 62
     1
  6
Continuous
290
     0
370
    -3
390
F
347
98
1001
AcAecLayerStandard
1000

1000

  0
LAYER
  5
55B
330
2
100
AcDbSymbolTableRecord
100
AcDbLayerTableRecord
  2
GlassBracket
 70
     0
 62
     2
  6
Continuous
290
     0
370
    -3
390
F
347
98
1001
AcAecLayerStandard
1000

1000

  0
LAYER
  5
5D6
330
2
100
AcDbSymbolTableRecord
100
AcDbLayerTableRecord
  2
GlassLedge
 70
     0
 62
     2
  6
Continuous
290
     0
370
    -3
390
F
347
98
1001
AcAecLayerStandard
1000

1000

  0
ENDTAB
  0
TABLE
  2
STYLE
  5
3
330
0
100
AcDbSymbolTable
 70
     1
  0
STYLE
  5
11
330
3
100
AcDbSymbolTableRecord
100
AcDbTextStyleTableRecord
  2
Standard
 70
     0
 40
0.0
 41
1.0
 50
0.0
 71
     0
 42
0.2
  3
txt
  4

  0
ENDTAB
  0
TABLE
  2
VIEW
  5
6
330
0
100
AcDbSymbolTable
 70
     0
  0
ENDTAB
  0
TABLE
  2
UCS
  5
7
330
0
100
AcDbSymbolTable
 70
     0
  0
ENDTAB
  0
TABLE
  2
APPID
  5
9
330
0
100
AcDbSymbolTable
 70
     3
  0
APPID
  5
12
330
9
100
AcDbSymbolTableRecord
100
AcDbRegAppTableRecord
  2
ACAD
 70
     0
  0
APPID
  5
46D
330
9
100
AcDbSymbolTableRecord
100
AcDbRegAppTableRecord
  2
AcAecLayerStandard
 70
     0
  0
APPID
  5
49A
330
9
100
AcDbSymbolTableRecord
100
AcDbRegAppTableRecord
  2
ACAD_MLEADERVER
 70
     0
  0
ENDTAB
  0
TABLE
  2
DIMSTYLE
  5
A
330
0
100
AcDbSymbolTable
 70
     1
100
AcDbDimStyleTable
  0
DIMSTYLE
105
27
330
A
100
AcDbSymbolTableRecord
100
AcDbDimStyleTableRecord
  2
Standard
 70
     0
 41
1.0
 42
1.0
 43
1.0
 44
0.5
 73
     0
 74
     0
140
1.0
147
0.5
178
     0
340
11
  0
ENDTAB
  0
TABLE
  2
BLOCK_RECORD
  5
1
330
0
100
AcDbSymbolTable
 70
     1
  0
BLOCK_RECORD
  5
1F
330
1
100
AcDbSymbolTableRecord
100
AcDbBlockTableRecord
  2
*Model_Space
340
22
 70
     0
280
     1
281
     0
  0
BLOCK_RECORD
  5
58
330
1
100
AcDbSymbolTableRecord
100
AcDbBlockTableRecord
  2
*Paper_Space
340
59
 70
     0
280
     1
281
     0
  0
BLOCK_RECORD
  5
5D
330
1
100
AcDbSymbolTableRecord
100
AcDbBlockTableRecord
  2
*Paper_Space0
340
5E
 70
     0
280
     1
281
     0
  0
ENDTAB
  0
ENDSEC
  0
SECTION
  2
BLOCKS
  0
BLOCK
  5
20
330
1F
100
AcDbEntity
  8
0
100
AcDbBlockBegin
  2
*Model_Space
 70
     0
 10
0.0
 20
0.0
 30
0.0
  3
*Model_Space
  1
*Model_Space
  0
ENDBLK
  5
21
330
1F
100
AcDbEntity
  8
0
100
AcDbBlockEnd
  0
BLOCK
  5
5A
330
58
100
AcDbEntity
 67
     1
  8
0
100
AcDbBlockBegin
  2
*Paper_Space
 70
     0
 10
0.0
 20
0.0
 30
0.0
  3
*Paper_Space
  1
*Paper_Space
  0
ENDBLK
  5
5B
330
58
100
AcDbEntity
 67
     1
  8
0
100
AcDbBlockEnd
  0
BLOCK
  5
5F
330
5D
100
AcDbEntity
  8
0
100
AcDbBlockBegin
  2
*Paper_Space0
 70
     0
 10
0.0
 20
0.0
 30
0.0
  3
*Paper_Space0
  1
*Paper_Space0
  0
ENDBLK
  5
60
330
5D
100
AcDbEntity
  8
0
100
AcDbBlockEnd
  0
ENDSEC
  0
SECTION
  2
ENTITIES
  0
LWPOLYLINE
  5
551
330
1F
100
AcDbEntity
  8
BotBracket
100
AcDbPolyline
 90
      242
 70
     1
 43
0.0
 10
-4.830503512876753
 20
25.5213696985635
 10
-4.638830389038892
 20
24.84775916329124
 10
-4.50304429080105
 20
24.28918392667828
 10
-4.367262398241159
 20
23.60879642832076
 10
-4.261390599567328
 20
22.92315316978454
 10
-4.185626409008869
 20
22.23355931198168
 10
-4.140111238012601
 20
21.54132753601445
 10
-4.124930065003717
 20
20.84777554441227
 10
-4.124930065003717
 20
18.46800323625942
 10
4.124930065003689
 20
18.46800323625942
 10
4.124930065003686
 20
20.84777554441227
 10
4.14006342329542
 20
21.54132753601445
 10
4.185434690963053
 20
22.23355931198168
 10
4.260957501219838
 20
22.92315316978454
 10
4.366488092103982
 20
23.60879642832076
 10
4.501825580137809
 20
24.28918392667828
 10
4.666712342720746
 20
24.9630205085833
 10
4.860834508528673
 20
25.62902348780379
 10
5.083822554985762
 20
26.28592508981566
 10
5.33525201167182
 20
26.93247486508363
 10
5.614644268325684
 20
27.56744206936301
 10
5.921467485907236
 20
28.18961800649127
 10
6.255137608983084
 20
28.79781832920992
 10
6.615019477509399
 20
29.3908852936368
 10
7.000428035895077
 20
29.96768996309743
 10
7.410629637044075
 20
30.52713435712003
 10
7.844843438894252
 20
31.06815354150386
 10
8.302242890794666
 20
31.58971765548191
 10
8.781957306891764
 20
32.09083387211946
 10
9.283073523529303
 20
32.57054828821656
 10
9.804637637507362
 20
33.02794774011699
 10
10.34565682189119
 20
33.46216154196715
 10
10.90510121591381
 20
33.87236314311615
 10
11.48190588537443
 20
34.25777170150184
 10
12.07497284980132
 20
34.61765357002814
 10
12.68317317251995
 20
34.951323693104
 10
13.30534910964823
 20
35.25814691068554
 10
13.94031631392761
 20
35.53753916733942
 10
14.58686608919558
 20
35.78896862402546
 10
15.24376769120746
 20
36.01195667048256
 10
15.90977067042794
 20
36.20607883629049
 10
16.58360725233296
 20
36.37096559887341
 10
17.26399475069047
 20
36.50630308690722
 10
17.9496380092267
 20
36.61183367779138
 10
18.63923186702956
 20
36.68735648804815
 10
19.33146364299679
 20
36.73272775571579
 10
20.02501563459895
 20
36.74786111400755
 10
20.71856762620112
 20
36.73272775571579
 10
21.41079940216835
 20
36.68735648804815
 10
22.10039325997121
 20
36.61183367779138
 10
22.78603651850744
 20
36.50630308690722
 10
23.46642401686494
 20
36.37096559887341
 10
24.14026059876997
 20
36.20607883629049
 10
24.80626357799045
 20
36.01195667048256
 10
25.46316518000233
 20
35.78896862402546
 10
26.1097149552703
 20
35.53753916733942
 10
26.74468215954968
 20
35.25814691068554
 10
27.36685809667795
 20
34.951323693104
 10
27.97505841939658
 20
34.61765357002814
 10
28.56812538382348
 20
34.25777170150184
 10
29.14493005328409
 20
33.87236314311615
 10
29.70437444730671
 20
33.46216154196715
 10
30.24539363169054
 20
33.02794774011699
 10
30.7669577456686
 20
32.57054828821656
 10
31.26807396230614
 20
32.09083387211946
 10
31.74778837840324
 20
31.58971765548191
 10
32.20518783030365
 20
31.06815354150386
 10
32.63940163215383
 20
30.52713435712003
 10
33.04960323330283
 20
29.96768996309743
 10
33.43501179168851
 20
29.3908852936368
 10
33.79489366021482
 20
28.79781832920992
 10
34.12856378329067
 20
28.18961800649127
 10
34.43538700087222
 20
27.56744206936301
 10
34.71477925752608
 20
26.93247486508363
 10
34.96620871421214
 20
26.28592508981566
 10
35.18919676066923
 20
25.62902348780379
 10
35.38331892647714
 20
24.9630205085833
 10
35.54820568906009
 20
24.28918392667828
 10
35.68354317709392
 20
23.60879642832076
 10
35.78907376797806
 20
22.92315316978454
 10
35.86459657823485
 20
22.23355931198168
 10
35.90996784590248
 20
21.54132753601445
 10
35.92510120419422
 20
20.84777554441227
 10
37.93925589178168
 20
0.1918589507701753
 10
37.94847935316036
 20
0.0000028242721406
 10
37.85059238575067
 20
-0.6180311644777543
 10
37.56651334191024
 20
-1.175567680312806
 10
37.12404985774531
 20
-1.618031164477754
 10
36.56651334191024
 20
-1.902110208318167
 10
35.94847935316036
 20
-1.999997175727859
 10
35.75662322666231
 20
-1.990773714349192
 10
15.10070663302008
 20
0.0000028242721406
 10
-6.52835820478651
 20
0.0000028242721388
 10
-6.52835820478651
 20
4.000002824272155
 10
31.94847935316036
 20
4.000002824272155
 10
31.94847935316036
 20
12.46800323625942
 10
31.87510120419423
 20
20.84777554441227
 10
31.85505273493856
 20
21.53679674243089
 10
31.79497516484525
 20
22.22348651081992
 10
31.69507177739447
 20
22.90552130876968
 10
31.55568061402561
 20
23.58059334641692
 10
31.37727333031233
 20
24.24641839367524
 10
31.16045360002922
 20
24.90074350934668
 10
30.90595507251083
 20
25.54135466436156
 10
30.61463889021476
 20
26.16608423335197
 10
30.28749077488785
 20
26.77281832920991
 10
29.92561769219614
 20
27.35950395581217
 10
29.53024410610319
 20
27.92415595470929
 10
29.10270783567182
 20
28.46486372227338
 10
28.64445552830773
 20
28.97979767457598
 10
28.15703776476266
 20
29.46721543812103
 10
27.64210381246005
 20
29.92546774548512
 10
27.10139604489597
 20
30.35300401591651
 10
26.53674404599888
 20
30.74837760200946
 10
25.95005841939661
 20
31.11025068470117
 10
25.34332432353863
 20
31.43739880002806
 10
24.71859475454823
 20
31.72871498232416
 10
24.07798359953338
 20
31.98321350984253
 10
23.42365848386191
 20
32.20003324012566
 10
22.75783343660361
 20
32.37844052383895
 10
22.08276139895636
 20
32.51783168720779
 10
21.40072660100662
 20
32.61773507465858
 10
20.71403683261758
 20
32.67781264475187
 10
20.02501563459895
 20
32.69786111400755
 10
19.33599443658033
 20
32.67781264475187
 10
18.64930466819132
 20
32.61773507465858
 10
17.96726987024155
 20
32.51783168720779
 10
17.29219783259432
 20
32.37844052383895
 10
16.626372785336
 20
32.20003324012566
 10
15.97204766966456
 20
31.98321350984253
 10
15.33143651464968
 20
31.72871498232416
 10
14.70670694565927
 20
31.43739880002806
 10
14.09997284980133
 20
31.11025068470117
 10
13.51328722319905
 20
30.74837760200946
 10
12.94863522430193
 20
30.35300401591651
 10
12.40792745673786
 20
29.92546774548512
 10
11.89299350443525
 20
29.46721543812103
 10
11.40557574089021
 20
28.97979767457598
 10
10.94732343352612
 20
28.46486372227338
 10
10.51978716309474
 20
27.92415595470929
 10
10.1244135770018
 20
27.35950395581217
 10
9.76254049431008
 20
26.77281832920991
 10
9.435392378983174
 20
26.16608423335197
 10
9.144076196687074
 20
25.54135466436156
 10
8.889577669168709
 20
24.90074350934668
 10
8.672757938885574
 20
24.24641839367524
 10
8.49435065517229
 20
23.58059334641692
 10
8.354959491803463
 20
22.90552130876968
 10
8.255056104352654
 20
22.22348651081992
 10
8.19497853425937
 20
21.53679674243089
 10
8.174930065003702
 20
20.84777554441227
 10
8.174930065003702
 20
18.46800323625942
 10
8.074641713731005
 20
17.57791950043416
 10
7.778805536613383
 20
16.73246827978918
 10
7.302255994875814
 20
15.97404402882448
 10
6.668889272438655
 20
15.3406773063873
 10
5.910465021473946
 20
14.86412776464974
 10
5.06501380082897
 20
14.56829158753212
 10
4.174930065003696
 20
14.46800323625942
 10
-4.124930065003717
 20
14.46800323625942
 10
-5.015013800828974
 20
14.56829158753212
 10
-5.860465021473949
 20
14.86412776464974
 10
-6.618889272438658
 20
15.3406773063873
 10
-7.252255994875831
 20
15.97404402882448
 10
-7.7288055366134
 20
16.73246827978918
 10
-8.024641713731008
 20
17.57791950043416
 10
-8.124930065003717
 20
18.46800323625942
 10
-8.125794556078368
 20
20.84775735615273
 10
-8.1458434769442
 20
21.5367764734397
 10
-8.205921362533935
 20
22.22346413961543
 10
-8.305824928446093
 20
22.90549682265404
 10
-8.445216132880383
 20
23.58056674150775
 10
-8.623623320463388
 20
24.24638967490185
 10
-8.840442818179802
 20
24.90071269041086
 10
-9.094940978009472
 20
25.54132176766322
 10
-9.386256659358162
 20
26.16604928988002
 10
-9.713404142882693
 20
26.7727813783988
 10
-10.07527646585084
 20
27.3594650453646
 10
-10.47064916775004
 20
27.92411514038606
 10
-10.89818443347121
 20
28.46482106765109
 10
-11.35643562004838
 20
28.9797532507737
 10
-11.843852151637
 20
29.4671693234969
 10
-12.35878476616809
 20
29.92542002530432
 10
-12.89949109592485
 20
30.35295478199174
 10
-13.46414156315942
 20
30.74832695231558
 10
-14.05082557080026
 20
31.11019872296545
 10
-14.65755796730328
 20
31.43734563529766
 10
-15.28228576377142
 20
31.72866072851271
 10
-15.92289508061417
 20
31.98315828525746
 10
-16.57721830024199
 20
32.19997716697837
 10
-17.24304140159261
 20
32.37838372773956
 10
-17.91811145167225
 20
32.51777429664675
 10
-18.60014422876218
 20
32.61767722047688
 10
-19.28683195149636
 20
32.67775445960228
 10
-19.97585108765756
 20
32.69780273180895
 10
-20.66487021626914
 20
32.67775420013862
 10
-21.35155791638004
 20
32.61767670242747
 10
-22.0335906558495
 20
32.51777352176452
 10
-22.70866065343885
 20
32.37838269864648
 10
-23.37448368760693
 20
32.19997588715654
 10
-24.02880682558729
 20
31.9831567590374
 10
-24.66941604659396
 20
31.72865896105866
 10
-25.29414373336163
 20
31.43734363259013
 10
-25.900876006671
 20
31.11019649178095
 10
-25.900876006671
 20
35.54871012087123
 10
-25.39688819566594
 20
35.74192695217823
 10
-24.74205400452666
 20
35.96421328971135
 10
-24.07814708143311
 20
36.15772461032954
 10
-23.40643120949338
 20
36.32209255465933
 10
-22.72818503657644
 20
36.45700423933663
 10
-22.044699641336
 20
36.56220285259722
 10
-21.35727607557177
 20
36.63748814313207
 10
-20.66722288760623
 20
36.6827168012766
 10
-19.97585363139149
 20
36.69780273180844
 10
-19.28448436608743
 20
36.68271721783445
 10
-18.59443115087125
 20
36.63748897545484
 10
-17.90700753974689
 20
36.56220409910054
 10
-17.2235220811232
 20
36.4570058976477
 10
-16.54527582692056
 20
36.32209462162147
 10
-15.87355985594741
 20
36.15772708200818
 10
-15.2096528162612
 20
35.96421616140152
 10
-14.55481849119197
 20
35.7419302184135
 10
-13.9103033936617
 20
35.49129238648368
 10
-13.27733439337881
 20
35.21277976842154
 10
-12.6571163814247
 20
34.90692252821522
 10
-12.05082997667767
 20
34.57430288183537
 10
-11.45962927844039
 20
34.21555398895528
 10
-10.88463966954882
 20
33.8313587476968
 10
-10.32695567414448
 20
33.42244849469648
 10
-9.787638874187923
 20
32.9896016129663
 10
-9.267715888679472
 20
32.53364205019903
 10
-8.768176419433836
 20
32.05543775033888
 10
-8.284015799455055
 20
31.54939601916119
 10
-7.822682294320906
 20
31.02246040955393
 10
-7.385076610777027
 20
30.47565970969919
 10
-6.972053129410815
 20
29.91006149234725
 10
-6.584418236560218
 20
29.32677003048943
 10
-6.222928749926417
 20
28.72692414137725
 10
-5.88829044096426
 20
28.11169496309775
 10
-5.581156656935285
 20
27.48228366804531
 10
-5.302127045313618
 20
26.8399191177549
 10
-5.051746383035315
 20
26.1858554636748
  0
LWPOLYLINE
  5
552
330
1F
100
AcDbEntity
  8
BotBracketExtend
100
AcDbPolyline
 90
      235
 70
     1
 43
0.0
 10
35.94847935316036
 20
10.00000282427215
 10
37.94847935316036
 20
8.000002824272155
 10
52.44847935316036
 20
8.000002824272155
 10
52.44847935316036
 20
4.000002824272155
 10
31.94847935316036
 20
4.000002824272155
 10
31.94847935316036
 20
12.46800323625942
 10
31.87510120419423
 20
20.84777554441227
 10
31.85505273493856
 20
21.53679674243089
 10
31.79497516484525
 20
22.22348651081992
 10
31.69507177739447
 20
22.90552130876968
 10
31.55568061402561
 20
23.58059334641692
 10
31.37727333031233
 20
24.24641839367524
 10
31.16045360002922
 20
24.90074350934668
 10
30.90595507251083
 20
25.54135466436156
 10
30.61463889021476
 20
26.16608423335197
 10
30.28749077488785
 20
26.77281832920991
 10
29.92561769219614
 20
27.35950395581217
 10
29.53024410610319
 20
27.92415595470929
 10
29.10270783567182
 20
28.46486372227338
 10
28.64445552830773
 20
28.97979767457598
 10
28.15703776476266
 20
29.46721543812103
 10
27.64210381246005
 20
29.92546774548512
 10
27.10139604489597
 20
30.35300401591651
 10
26.53674404599888
 20
30.74837760200946
 10
25.95005841939661
 20
31.11025068470117
 10
25.34332432353863
 20
31.43739880002806
 10
24.71859475454823
 20
31.72871498232416
 10
24.07798359953338
 20
31.98321350984253
 10
23.42365848386191
 20
32.20003324012566
 10
22.75783343660361
 20
32.37844052383895
 10
22.08276139895636
 20
32.51783168720779
 10
21.40072660100662
 20
32.61773507465858
 10
20.71403683261758
 20
32.67781264475187
 10
20.02501563459895
 20
32.69786111400755
 10
19.33599443658033
 20
32.67781264475187
 10
18.64930466819132
 20
32.61773507465858
 10
17.96726987024155
 20
32.51783168720779
 10
17.29219783259432
 20
32.37844052383895
 10
16.626372785336
 20
32.20003324012566
 10
15.97204766966456
 20
31.98321350984253
 10
15.33143651464968
 20
31.72871498232416
 10
14.70670694565927
 20
31.43739880002806
 10
14.09997284980133
 20
31.11025068470117
 10
13.51328722319905
 20
30.74837760200946
 10
12.94863522430193
 20
30.35300401591651
 10
12.40792745673786
 20
29.92546774548512
 10
11.89299350443525
 20
29.46721543812103
 10
11.40557574089021
 20
28.97979767457598
 10
10.94732343352612
 20
28.46486372227338
 10
10.51978716309474
 20
27.92415595470929
 10
10.1244135770018
 20
27.35950395581217
 10
9.76254049431008
 20
26.77281832920991
 10
9.435392378983174
 20
26.16608423335197
 10
9.144076196687074
 20
25.54135466436156
 10
8.889577669168709
 20
24.90074350934668
 10
8.672757938885574
 20
24.24641839367524
 10
8.49435065517229
 20
23.58059334641692
 10
8.354959491803463
 20
22.90552130876968
 10
8.255056104352654
 20
22.22348651081992
 10
8.19497853425937
 20
21.53679674243089
 10
8.174930065003702
 20
20.84777554441227
 10
8.174930065003702
 20
18.46800323625942
 10
8.074641713731005
 20
17.57791950043416
 10
7.778805536613383
 20
16.73246827978918
 10
7.302255994875814
 20
15.97404402882448
 10
6.668889272438655
 20
15.3406773063873
 10
5.910465021473946
 20
14.86412776464974
 10
5.065013800828972
 20
14.56829158753212
 10
4.174930065003701
 20
14.46800323625942
 10
-4.124930065003717
 20
14.46800323625942
 10
-5.015013800828974
 20
14.56829158753212
 10
-5.860465021473949
 20
14.86412776464974
 10
-6.618889272438658
 20
15.3406773063873
 10
-7.252255994875831
 20
15.97404402882448
 10
-7.7288055366134
 20
16.73246827978918
 10
-8.024641713731008
 20
17.57791950043416
 10
-8.124930065003717
 20
18.46800323625942
 10
-8.125794556078368
 20
20.84775735615273
 10
-8.1458434769442
 20
21.5367764734397
 10
-8.205921362533935
 20
22.22346413961543
 10
-8.305824928446093
 20
22.90549682265404
 10
-8.445216132880383
 20
23.58056674150775
 10
-8.623623320463388
 20
24.24638967490185
 10
-8.840442818179802
 20
24.90071269041086
 10
-9.094940978009472
 20
25.54132176766322
 10
-9.386256659358162
 20
26.16604928988002
 10
-9.713404142882693
 20
26.7727813783988
 10
-10.07527646585084
 20
27.3594650453646
 10
-10.47064916775004
 20
27.92411514038606
 10
-10.89818443347121
 20
28.46482106765109
 10
-11.35643562004838
 20
28.9797532507737
 10
-11.843852151637
 20
29.4671693234969
 10
-12.35878476616809
 20
29.92542002530432
 10
-12.89949109592485
 20
30.35295478199174
 10
-13.46414156315942
 20
30.74832695231558
 10
-14.05082557080026
 20
31.11019872296545
 10
-14.65755796730328
 20
31.43734563529766
 10
-15.28228576377142
 20
31.72866072851271
 10
-15.92289508061417
 20
31.98315828525746
 10
-16.57721830024199
 20
32.19997716697837
 10
-17.24304140159261
 20
32.37838372773956
 10
-17.91811145167225
 20
32.51777429664675
 10
-18.60014422876218
 20
32.61767722047688
 10
-19.28683195149636
 20
32.67775445960228
 10
-19.97585108765756
 20
32.69780273180895
 10
-20.66487021626914
 20
32.67775420013862
 10
-21.35155791638004
 20
32.61767670242747
 10
-22.0335906558495
 20
32.51777352176452
 10
-22.70866065343885
 20
32.37838269864648
 10
-23.37448368760693
 20
32.19997588715654
 10
-24.02880682558729
 20
31.9831567590374
 10
-24.66941604659396
 20
31.72865896105866
 10
-25.29414373336163
 20
31.43734363259013
 10
-25.900876006671
 20
31.11019649178095
 10
-25.900876006671
 20
35.54871012087123
 10
-25.39688819566594
 20
35.74192695217823
 10
-24.74205400452666
 20
35.96421328971135
 10
-24.07814708143311
 20
36.15772461032954
 10
-23.40643120949338
 20
36.32209255465933
 10
-22.72818503657644
 20
36.45700423933663
 10
-22.044699641336
 20
36.56220285259722
 10
-21.35727607557177
 20
36.63748814313207
 10
-20.66722288760623
 20
36.6827168012766
 10
-19.97585363139149
 20
36.69780273180844
 10
-19.28448436608743
 20
36.68271721783445
 10
-18.59443115087125
 20
36.63748897545484
 10
-17.90700753974689
 20
36.56220409910054
 10
-17.2235220811232
 20
36.4570058976477
 10
-16.54527582692056
 20
36.32209462162147
 10
-15.87355985594741
 20
36.15772708200818
 10
-15.2096528162612
 20
35.96421616140152
 10
-14.55481849119197
 20
35.7419302184135
 10
-13.9103033936617
 20
35.49129238648368
 10
-13.27733439337881
 20
35.21277976842154
 10
-12.6571163814247
 20
34.90692252821522
 10
-12.05082997667767
 20
34.57430288183537
 10
-11.45962927844039
 20
34.21555398895528
 10
-10.88463966954882
 20
33.8313587476968
 10
-10.32695567414448
 20
33.42244849469648
 10
-9.787638874187923
 20
32.9896016129663
 10
-9.267715888679472
 20
32.53364205019903
 10
-8.768176419433836
 20
32.05543775033888
 10
-8.284015799455055
 20
31.54939601916119
 10
-7.822682294320906
 20
31.02246040955393
 10
-7.385076610777027
 20
30.47565970969919
 10
-6.972053129410815
 20
29.91006149234725
 10
-6.584418236560218
 20
29.32677003048943
 10
-6.222928749926417
 20
28.72692414137725
 10
-5.88829044096426
 20
28.11169496309775
 10
-5.581156656935285
 20
27.48228366804531
 10
-5.302127045313618
 20
26.8399191177549
 10
-5.051746383035315
 20
26.1858554636748
 10
-4.830503512876753
 20
25.5213696985635
 10
-4.638830389038892
 20
24.84775916329124
 10
-4.50304429080105
 20
24.28918392667828
 10
-4.367262398241159
 20
23.60879642832076
 10
-4.261390599567328
 20
22.92315316978454
 10
-4.185626409008869
 20
22.23355931198168
 10
-4.140111238012601
 20
21.54132753601445
 10
-4.124930065003717
 20
20.84777554441227
 10
-4.124930065003717
 20
18.46800323625942
 10
4.124930065003689
 20
18.46800323625942
 10
4.124930065003689
 20
20.84777554441227
 10
4.140063423295424
 20
21.54132753601445
 10
4.185434690963056
 20
22.23355931198168
 10
4.260957501219842
 20
22.92315316978454
 10
4.366488092103985
 20
23.60879642832076
 10
4.501825580137812
 20
24.28918392667828
 10
4.666712342720751
 20
24.9630205085833
 10
4.860834508528676
 20
25.62902348780379
 10
5.083822554985765
 20
26.28592508981566
 10
5.33525201167182
 20
26.93247486508363
 10
5.614644268325684
 20
27.56744206936301
 10
5.921467485907236
 20
28.18961800649127
 10
6.255137608983084
 20
28.79781832920992
 10
6.615019477509399
 20
29.3908852936368
 10
7.000428035895077
 20
29.96768996309743
 10
7.410629637044075
 20
30.52713435712003
 10
7.844843438894252
 20
31.06815354150386
 10
8.302242890794666
 20
31.58971765548191
 10
8.781957306891764
 20
32.09083387211946
 10
9.283073523529303
 20
32.57054828821656
 10
9.804637637507362
 20
33.02794774011699
 10
10.34565682189119
 20
33.46216154196715
 10
10.90510121591381
 20
33.87236314311615
 10
11.48190588537443
 20
34.25777170150184
 10
12.07497284980132
 20
34.61765357002814
 10
12.68317317251995
 20
34.951323693104
 10
13.30534910964823
 20
35.25814691068554
 10
13.94031631392761
 20
35.53753916733942
 10
14.58686608919558
 20
35.78896862402546
 10
15.24376769120746
 20
36.01195667048256
 10
15.90977067042794
 20
36.20607883629049
 10
16.58360725233296
 20
36.37096559887341
 10
17.26399475069047
 20
36.50630308690722
 10
17.9496380092267
 20
36.61183367779138
 10
18.63923186702956
 20
36.68735648804815
 10
19.33146364299679
 20
36.73272775571579
 10
20.02501563459895
 20
36.74786111400755
 10
20.71856762620112
 20
36.73272775571579
 10
21.41079940216835
 20
36.68735648804815
 10
22.10039325997121
 20
36.61183367779138
 10
22.78603651850744
 20
36.50630308690722
 10
23.46642401686494
 20
36.37096559887341
 10
24.14026059876997
 20
36.20607883629049
 10
24.80626357799045
 20
36.01195667048256
 10
25.46316518000233
 20
35.78896862402546
 10
26.1097149552703
 20
35.53753916733942
 10
26.74468215954968
 20
35.25814691068554
 10
27.36685809667795
 20
34.951323693104
 10
27.97505841939658
 20
34.61765357002814
 10
28.56812538382348
 20
34.25777170150184
 10
29.14493005328409
 20
33.87236314311615
 10
29.70437444730671
 20
33.46216154196715
 10
30.24539363169054
 20
33.02794774011699
 10
30.7669577456686
 20
32.57054828821656
 10
31.26807396230614
 20
32.09083387211946
 10
31.74778837840324
 20
31.58971765548191
 10
32.20518783030365
 20
31.06815354150386
 10
32.63940163215383
 20
30.52713435712003
 10
33.04960323330283
 20
29.96768996309743
 10
33.43501179168851
 20
29.3908852936368
 10
33.79489366021482
 20
28.79781832920992
 10
34.12856378329067
 20
28.18961800649127
 10
34.43538700087222
 20
27.56744206936301
 10
34.71477925752608
 20
26.93247486508363
 10
34.96620871421214
 20
26.28592508981566
 10
35.18919676066923
 20
25.62902348780379
 10
35.38331892647714
 20
24.9630205085833
 10
35.54820568906009
 20
24.28918392667828
 10
35.68354317709392
 20
23.60879642832076
 10
35.78907376797806
 20
22.92315316978454
 10
35.86459657823485
 20
22.23355931198168
 10
35.90996784590248
 20
21.54132753601445
 10
35.92510120419422
 20
20.84777554441227
  0
LINE
  5
592
330
1F
100
AcDbEntity
  8
Holes
 62
     4
100
AcDbLine
 10
-19.85005430039735
 20
11.92346371856141
 30
0.0
 11
-19.85005430039735
 21
23.00078957205188
 31
0.0
  0
LINE
  5
593
330
1F
100
AcDbEntity
  8
Holes
 62
     4
100
AcDbLine
 10
-27.85005430039735
 20
11.92346371856141
 30
0.0
 11
-27.85005430039735
 21
23.00078957205188
 31
0.0
  0
LINE
  5
594
330
1F
100
AcDbEntity
  8
Holes
 62
     1
100
AcDbLine
 10
-25.60005430039735
 20
11.92346371856141
 30
0.0
 11
-25.60005430039735
 21
23.00078957205188
 31
0.0
  0
LINE
  5
595
330
1F
100
AcDbEntity
  8
Holes
 62
     1
100
AcDbLine
 10
-22.10005430039735
 20
11.92346371856141
 30
0.0
 11
-22.10005430039735
 21
23.00078957205188
 31
0.0
  0
LWPOLYLINE
  5
596
330
1F
100
AcDbEntity
  8
Holes
 62
     4
100
AcDbPolyline
 90
        6
 70
     1
 43
0.0
 10
-25.85005430039735
 20
19.53668795691411
 10
-21.85005430039735
 20
19.53668795691411
 10
-19.85005430039735
 20
23.00078957205188
 10
-21.85005430039735
 20
26.46489118718961
 10
-25.85005430039735
 20
26.46489118718961
 10
-27.85005430039735
 20
23.00078957205188
  0
LINE
  5
597
330
1F
100
AcDbEntity
  8
Holes
100
AcDbLine
 10
-23.85005430039735
 20
26.46489118718961
 30
0.0
 11
-23.85005430039735
 21
11.92346371856141
 31
0.0
210
0.0
220
1.0
230
0.0
  0
LINE
  5
598
330
1F
100
AcDbEntity
  8
Holes
 62
     4
100
AcDbLine
 10
19.85005430039735
 20
11.92346371856141
 30
0.0
 11
19.85005430039735
 21
23.00078957205188
 31
0.0
  0
LINE
  5
599
330
1F
100
AcDbEntity
  8
Holes
 62
     4
100
AcDbLine
 10
27.85005430039735
 20
11.92346371856141
 30
0.0
 11
27.85005430039735
 21
23.00078957205188
 31
0.0
  0
LINE
  5
59A
330
1F
100
AcDbEntity
  8
Holes
 62
     1
100
AcDbLine
 10
25.60005430039735
 20
11.92346371856141
 30
0.0
 11
25.60005430039735
 21
23.00078957205188
 31
0.0
  0
LINE
  5
59B
330
1F
100
AcDbEntity
  8
Holes
 62
     1
100
AcDbLine
 10
22.10005430039735
 20
11.92346371856141
 30
0.0
 11
22.10005430039735
 21
23.00078957205188
 31
0.0
  0
LWPOLYLINE
  5
59C
330
1F
100
AcDbEntity
  8
Holes
 62
     4
100
AcDbPolyline
 90
        6
 70
     1
 43
0.0
 10
25.85005430039735
 20
19.53668795691411
 10
21.85005430039735
 20
19.53668795691411
 10
19.85005430039735
 20
23.00078957205188
 10
21.85005430039735
 20
26.46489118718961
 10
25.85005430039735
 20
26.46489118718961
 10
27.85005430039735
 20
23.00078957205188
  0
LINE
  5
59D
330
1F
100
AcDbEntity
  8
Holes
100
AcDbLine
 10
23.85005430039735
 20
26.46489118718961
 30
0.0
 11
23.85005430039735
 21
11.92346371856141
 31
0.0
210
0.0
220
1.0
230
0.0
  0
LWPOLYLINE
  5
59E
330
1F
100
AcDbEntity
  8
GlassBracket
100
AcDbPolyline
 90
      305
 70
     1
 43
0.0
 10
15.90008556959523
 20
7.923463718561415
 10
19.90008556959523
 20
11.92346371856141
 10
30.85005430039735
 20
11.92346371856141
 10
31.61542116512751
 20
12.07570465353884
 10
32.26426786277045
 20
12.50925015618832
 10
32.69781336541993
 20
13.15809685383123
 10
32.85005430039735
 20
13.92346371856141
 10
32.85005430039735
 20
15.9234637185615
 10
32.69781336541993
 20
16.68883058329168
 10
32.26426786277045
 20
17.33767728093459
 10
31.61542116512751
 20
17.77122278358407
 10
30.85005430039735
 20
17.9234637185615
 10
-30.85005430039735
 20
17.9234637185615
 10
-31.61542116512751
 20
17.77122278358407
 10
-32.26426786277045
 20
17.33767728093459
 10
-32.69781336541993
 20
16.68883058329168
 10
-32.85005430039735
 20
15.9234637185615
 10
-32.85005430039735
 20
13.92346371856141
 10
-32.69781336541993
 20
13.15809685383123
 10
-32.26426786277045
 20
12.50925015618832
 10
-31.61542116512751
 20
12.07570465353884
 10
-30.85005430039735
 20
11.92346371856141
 10
-19.90008556959523
 20
11.92346371856141
 10
-15.90008556959523
 20
7.923463718561415
 10
-15.90008556959523
 20
0.0
 10
-15.8849522113035
 20
-0.6935519916021633
 10
-15.83958094363587
 20
-1.385783767569393
 10
-15.76405813337905
 20
-2.075377625372255
 10
-15.65852754249491
 20
-2.761020883908486
 10
-15.52319005446108
 20
-3.44140838226599
 10
-15.35830329187817
 20
-4.115244964171012
 10
-15.16418112607025
 20
-4.781247943391492
 10
-14.94119307961316
 20
-5.438149545403377
 10
-14.68976362292713
 20
-6.084699320671348
 10
-14.41037136627321
 20
-6.719666524950725
 10
-14.10354814869166
 20
-7.341842462079001
 10
-13.76987802561584
 20
-7.950042784797631
 10
-13.40999615708952
 20
-8.543109749224527
 10
-13.02458759870385
 20
-9.119914418685141
 10
-12.61438599755482
 20
-9.679358812707761
 10
-12.18017219570467
 20
-10.22037799709159
 10
-11.72277274380426
 20
-10.74194211106965
 10
-11.24305832770713
 20
-11.24305832770716
 10
-10.74194211106956
 20
-11.72277274380428
 10
-10.22037799709156
 20
-12.1801721957047
 10
-9.679358812707704
 20
-12.61438599755485
 10
-9.119914418685113
 20
-13.02458759870387
 10
-8.543109749224527
 20
-13.40999615708955
 10
-7.950042784797631
 20
-13.76987802561587
 10
-7.341842462079001
 20
-14.10354814869169
 10
-6.719666524950696
 20
-14.4103713662733
 10
-6.309029657091457
 20
-14.5910559125038
 10
-5.0
 20
-15.90008556959526
 10
-5.0
 20
-24.09991443040474
 10
-6.309029657091457
 20
-25.4089440874962
 10
-6.719666524950696
 20
-25.5896286337267
 10
-7.341842462079001
 20
-25.89645185130831
 10
-7.950042784797631
 20
-26.23012197438413
 10
-8.543109749224527
 20
-26.59000384291045
 10
-9.119914418685113
 20
-26.97541240129613
 10
-9.679358812707704
 20
-27.38561400244515
 10
-10.22037799709156
 20
-27.8198278042953
 10
-10.74194211106956
 20
-28.27722725619572
 10
-11.24305832770713
 20
-28.75694167229284
 10
-11.72277274380426
 20
-29.25805788893035
 10
-12.18017219570467
 20
-29.77962200290841
 10
-12.61438599755482
 20
-30.32064118729224
 10
-13.02458759870385
 20
-30.88008558131486
 10
-13.40999615708952
 20
-31.45689025077547
 10
-13.76987802561584
 20
-32.04995721520237
 10
-14.10354814869166
 20
-32.658157537921
 10
-14.41037136627321
 20
-33.28033347504928
 10
-14.68976362292713
 20
-33.91530067932865
 10
-14.94119307961316
 20
-34.56185045459662
 10
-15.16418112607025
 20
-35.21875205660851
 10
-15.35830329187817
 20
-35.88475503582899
 10
-15.52319005446108
 20
-36.55859161773401
 10
-15.65852754249491
 20
-37.23897911609151
 10
-15.76405813337905
 20
-37.92462237462775
 10
-15.83958094363587
 20
-38.61421623243061
 10
-15.8849522113035
 20
-39.30644800839784
 10
-15.90008556959523
 20
-40.0
 10
-11.85008556959522
 20
-40.0
 10
-11.83003710033952
 20
-39.31097880198138
 10
-11.76995953024627
 20
-38.62428903359236
 10
-11.67005614279546
 20
-37.94225423564259
 10
-11.53066497942663
 20
-37.26718219799537
 10
-11.35225769571335
 20
-36.60135715073704
 10
-11.13543796543021
 20
-35.9470320350656
 10
-10.88093943791185
 20
-35.30642088005072
 10
-10.58962325561575
 20
-34.68169131106032
 10
-10.26247514028884
 20
-34.07495721520237
 10
-9.900602057597126
 20
-33.4882715886001
 10
-9.505228471504182
 20
-32.92361958970298
 10
-9.077692201072807
 20
-32.38291182213891
 10
-8.619439893708716
 20
-31.8679778698363
 10
-8.132022130163705
 20
-31.38056010629126
 10
-7.617088177861092
 20
-30.92230779892716
 10
-7.07638041029702
 20
-30.49477152849579
 10
-6.511728411399872
 20
-30.09939794240285
 10
-5.925042784797597
 20
-29.73752485971113
 10
-5.31830868893968
 20
-29.41037674438422
 10
-4.693579119949277
 20
-29.11906056208812
 10
-4.052967964934396
 20
-28.86456203456976
 10
-3.264465043529754
 20
-28.60846564759876
 10
-2.506040792565102
 20
-28.13191610586116
 10
-1.872674070127914
 20
-27.49854938342403
 10
-1.396124528390317
 20
-26.74012513245932
 10
-1.100288351272695
 20
-25.89467391181434
 10
-1.0
 20
-25.00459017598907
 10
-1.0
 20
-14.99540982401093
 10
-1.100288351272695
 20
-14.10532608818566
 10
-1.396124528390317
 20
-13.25987486754068
 10
-1.872674070127914
 20
-12.50145061657597
 10
-2.506040792565102
 20
-11.86808389413884
 10
-3.264465043529754
 20
-11.39153435240124
 10
-4.052967964934396
 20
-11.13543796543024
 10
-4.693579119949277
 20
-10.88093943791188
 10
-5.31830868893968
 20
-10.58962325561578
 10
-5.925042784797597
 20
-10.26247514028887
 10
-6.511728411399872
 20
-9.900602057597155
 10
-7.07638041029702
 20
-9.50522847150421
 10
-7.617088177861092
 20
-9.077692201072836
 10
-8.132022130163705
 20
-8.619439893708744
 10
-8.619439893708716
 20
-8.132022130163705
 10
-9.077692201072807
 20
-7.617088177861092
 10
-9.505228471504182
 20
-7.07638041029702
 10
-9.900602057597126
 20
-6.511728411399901
 10
-10.26247514028884
 20
-5.925042784797625
 10
-10.58962325561575
 20
-5.31830868893968
 10
-10.88093943791185
 20
-4.693579119949277
 10
-11.13543796543021
 20
-4.052967964934396
 10
-11.35225769571335
 20
-3.398642849262956
 10
-11.53066497942663
 20
-2.732817802004632
 10
-11.67005614279546
 20
-2.057745764357406
 10
-11.76995953024627
 20
-1.375710966407638
 10
-11.83003710033952
 20
-0.6890211980186223
 10
-11.85008556959522
 20
0.0
 10
-11.83003710033952
 20
0.6890211980186223
 10
-11.76995953024627
 20
1.375710966407667
 10
-11.67005614279546
 20
2.057745764357406
 10
-11.53066497942663
 20
2.732817802004661
 10
-11.35225769571335
 20
3.398642849262956
 10
-11.13543796543021
 20
4.052967964934425
 10
-10.88093943791185
 20
4.693579119949277
 10
-10.58962325561575
 20
5.31830868893968
 10
-10.26247514028884
 20
5.925042784797654
 10
-9.900602057597126
 20
6.511728411399929
 10
-9.505228471504182
 20
7.076380410297027
 10
-9.077692201072807
 20
7.617088177861099
 10
-8.619439893708716
 20
8.132022130163712
 10
-8.132022130163705
 20
8.61943989370878
 10
-7.617088177861092
 20
9.077692201072871
 10
-7.07638041029702
 20
9.505228471504246
 10
-6.511728411399872
 20
9.90060205759719
 10
-5.925042784797597
 20
10.26247514028891
 10
-5.31830868893968
 20
10.58962325561581
 10
-4.693579119949277
 20
10.88093943791188
 10
-4.052967964934396
 20
11.13543796543028
 10
-3.398642849262956
 20
11.35225769571338
 10
-2.732817802004604
 20
11.53066497942667
 10
-2.057745764357378
 20
11.67005614279552
 10
-1.37571096640761
 20
11.7699595302463
 10
-0.6890211980186223
 20
11.83003710033962
 10
0.0
 20
11.85008556959529
 10
0.6890211980186223
 20
11.83003710033962
 10
1.37571096640761
 20
11.7699595302463
 10
2.057745764357378
 20
11.67005614279552
 10
2.732817802004604
 20
11.53066497942667
 10
3.398642849262956
 20
11.35225769571338
 10
4.052967964934396
 20
11.13543796543028
 10
4.693579119949277
 20
10.88093943791188
 10
5.31830868893968
 20
10.58962325561581
 10
5.925042784797597
 20
10.26247514028891
 10
6.511728411399872
 20
9.90060205759719
 10
7.07638041029702
 20
9.505228471504246
 10
7.617088177861092
 20
9.077692201072871
 10
8.132022130163705
 20
8.61943989370878
 10
8.619439893708716
 20
8.132022130163712
 10
9.077692201072807
 20
7.617088177861099
 10
9.505228471504182
 20
7.076380410297027
 10
9.900602057597126
 20
6.511728411399929
 10
10.26247514028884
 20
5.925042784797654
 10
10.58962325561575
 20
5.31830868893968
 10
10.88093943791185
 20
4.693579119949277
 10
11.13543796543021
 20
4.052967964934425
 10
11.35225769571335
 20
3.398642849262956
 10
11.53066497942663
 20
2.732817802004661
 10
11.67005614279546
 20
2.057745764357406
 10
11.76995953024627
 20
1.375710966407667
 10
11.83003710033952
 20
0.6890211980186223
 10
11.85008556959522
 20
0.0
 10
11.83003710033952
 20
-0.6890211980186223
 10
11.76995953024627
 20
-1.375710966407638
 10
11.67005614279546
 20
-2.057745764357406
 10
11.53066497942663
 20
-2.732817802004632
 10
11.35225769571335
 20
-3.398642849262956
 10
11.13543796543021
 20
-4.052967964934396
 10
10.88093943791185
 20
-4.693579119949277
 10
10.58962325561575
 20
-5.31830868893968
 10
10.26247514028884
 20
-5.925042784797625
 10
9.900602057597126
 20
-6.511728411399901
 10
9.505228471504182
 20
-7.07638041029702
 10
9.077692201072807
 20
-7.617088177861092
 10
8.619439893708716
 20
-8.132022130163705
 10
8.132022130163705
 20
-8.619439893708744
 10
7.617088177861092
 20
-9.077692201072836
 10
7.07638041029702
 20
-9.50522847150421
 10
6.511728411399872
 20
-9.900602057597155
 10
5.925042784797597
 20
-10.26247514028887
 10
5.31830868893968
 20
-10.58962325561578
 10
4.693579119949277
 20
-10.88093943791188
 10
4.052967964934396
 20
-11.13543796543024
 10
3.264465043529754
 20
-11.39153435240124
 10
2.506040792565102
 20
-11.86808389413884
 10
1.872674070127914
 20
-12.50145061657597
 10
1.396124528390317
 20
-13.25987486754068
 10
1.100288351272695
 20
-14.10532608818566
 10
1.0
 20
-14.99540982401093
 10
1.0
 20
-25.00459017598907
 10
1.100288351272695
 20
-25.89467391181434
 10
1.396124528390317
 20
-26.74012513245932
 10
1.872674070127914
 20
-27.49854938342403
 10
2.506040792565102
 20
-28.13191610586116
 10
3.264465043529754
 20
-28.60846564759876
 10
4.052967964934396
 20
-28.86456203456976
 10
4.693579119949277
 20
-29.11906056208812
 10
5.31830868893968
 20
-29.41037674438422
 10
5.925042784797597
 20
-29.73752485971113
 10
6.511728411399872
 20
-30.09939794240285
 10
7.07638041029702
 20
-30.49477152849579
 10
7.617088177861092
 20
-30.92230779892716
 10
8.132022130163705
 20
-31.38056010629126
 10
8.619439893708716
 20
-31.8679778698363
 10
9.077692201072807
 20
-32.38291182213891
 10
9.505228471504182
 20
-32.92361958970298
 10
9.900602057597126
 20
-33.4882715886001
 10
10.26247514028884
 20
-34.07495721520237
 10
10.58962325561575
 20
-34.68169131106032
 10
10.88093943791185
 20
-35.30642088005072
 10
11.13543796543021
 20
-35.9470320350656
 10
11.35225769571335
 20
-36.60135715073704
 10
11.53066497942663
 20
-37.26718219799537
 10
11.67005614279546
 20
-37.94225423564259
 10
11.76995953024627
 20
-38.62428903359236
 10
11.83003710033952
 20
-39.31097880198138
 10
11.85008556959522
 20
-40.0
 10
15.90008556959523
 20
-40.0
 10
15.8849522113035
 20
-39.30644800839784
 10
15.83958094363587
 20
-38.61421623243061
 10
15.76405813337905
 20
-37.92462237462775
 10
15.65852754249491
 20
-37.23897911609151
 10
15.52319005446108
 20
-36.55859161773401
 10
15.35830329187817
 20
-35.88475503582899
 10
15.16418112607025
 20
-35.21875205660851
 10
14.94119307961316
 20
-34.56185045459662
 10
14.68976362292713
 20
-33.91530067932865
 10
14.41037136627321
 20
-33.28033347504928
 10
14.10354814869166
 20
-32.658157537921
 10
13.76987802561584
 20
-32.04995721520237
 10
13.40999615708952
 20
-31.45689025077547
 10
13.02458759870385
 20
-30.88008558131486
 10
12.61438599755482
 20
-30.32064118729224
 10
12.18017219570467
 20
-29.77962200290841
 10
11.72277274380426
 20
-29.25805788893035
 10
11.24305832770713
 20
-28.75694167229284
 10
10.74194211106956
 20
-28.27722725619572
 10
10.22037799709156
 20
-27.8198278042953
 10
9.679358812707704
 20
-27.38561400244515
 10
9.119914418685113
 20
-26.97541240129613
 10
8.543109749224527
 20
-26.59000384291045
 10
7.950042784797631
 20
-26.23012197438413
 10
7.341842462079001
 20
-25.89645185130831
 10
6.719666524950696
 20
-25.5896286337267
 10
6.309029657091457
 20
-25.4089440874962
 10
5.0
 20
-24.09991443040474
 10
5.0
 20
-15.90008556959526
 10
6.309029657091457
 20
-14.5910559125038
 10
6.719666524950696
 20
-14.4103713662733
 10
7.341842462079001
 20
-14.10354814869169
 10
7.950042784797631
 20
-13.76987802561587
 10
8.543109749224527
 20
-13.40999615708955
 10
9.119914418685113
 20
-13.02458759870387
 10
9.679358812707704
 20
-12.61438599755485
 10
10.22037799709156
 20
-12.1801721957047
 10
10.74194211106956
 20
-11.72277274380428
 10
11.24305832770713
 20
-11.24305832770716
 10
11.72277274380426
 20
-10.74194211106965
 10
12.18017219570467
 20
-10.22037799709159
 10
12.61438599755482
 20
-9.679358812707761
 10
13.02458759870385
 20
-9.119914418685141
 10
13.40999615708952
 20
-8.543109749224527
 10
13.76987802561584
 20
-7.950042784797631
 10
14.10354814869166
 20
-7.341842462079001
 10
14.41037136627321
 20
-6.719666524950725
 10
14.68976362292713
 20
-6.084699320671348
 10
14.94119307961316
 20
-5.438149545403377
 10
15.16418112607025
 20
-4.781247943391492
 10
15.35830329187817
 20
-4.115244964171012
 10
15.52319005446108
 20
-3.44140838226599
 10
15.65852754249491
 20
-2.761020883908486
 10
15.76405813337905
 20
-2.075377625372255
 10
15.83958094363587
 20
-1.385783767569393
 10
15.8849522113035
 20
-0.6935519916021633
 10
15.90008556959523
 20
0.0
  0
LINE
  5
59F
330
1F
100
AcDbEntity
  8
Holes
 62
     4
100
AcDbLine
 10
0.0
 20
-16.0
 30
0.0
 11
-11.07732585349049
 21
-16.0
 31
0.0
  0
LINE
  5
5A0
330
1F
100
AcDbEntity
  8
Holes
 62
     4
100
AcDbLine
 10
0.0
 20
-24.0
 30
0.0
 11
-11.07732585349049
 21
-24.0
 31
0.0
  0
LINE
  5
5A1
330
1F
100
AcDbEntity
  8
Holes
 62
     1
100
AcDbLine
 10
0.0
 20
-21.75
 30
0.0
 11
-11.07732585349049
 21
-21.75
 31
0.0
  0
LINE
  5
5A2
330
1F
100
AcDbEntity
  8
Holes
 62
     1
100
AcDbLine
 10
0.0
 20
-18.25
 30
0.0
 11
-11.07732585349049
 21
-18.25
 31
0.0
  0
LWPOLYLINE
  5
5A3
330
1F
100
AcDbEntity
  8
Holes
 62
     4
100
AcDbPolyline
 90
        6
 70
     1
 43
0.0
 10
-7.6132242383527
 20
-22.0
 10
-7.6132242383527
 20
-18.0
 10
-11.07732585349049
 20
-16.0
 10
-14.54142746862823
 20
-18.0
 10
-14.54142746862823
 20
-22.0
 10
-11.07732585349049
 20
-24.0
  0
LINE
  5
5A4
330
1F
100
AcDbEntity
  8
Holes
100
AcDbLine
 10
-14.54142746862823
 20
-20.0
 30
0.0
 11
0.0
 21
-20.0
 31
0.0
210
-1.0
220
6.123233995736766E-17
230
0.0
  0
LWPOLYLINE
  5
628
330
1F
100
AcDbEntity
  8
GlassLedge
100
AcDbPolyline
 90
       20
 70
     1
 43
0.0
 10
28.85005430039735
 20
26.00000000000006
 10
29.61542116512751
 20
25.84775906502265
 10
30.26426786277045
 20
25.41421356237317
 10
30.69781336541993
 20
24.76536686473026
 10
30.85005430039735
 20
24.00000000000006
 10
30.85005430039735
 20
22.00000000000001
 10
30.69781336541993
 20
21.23463313526981
 10
30.26426786277045
 20
20.5857864376269
 10
29.61542116512751
 20
20.15224093497742
 10
28.85005430039735
 20
20.00000000000001
 10
-28.85005430039735
 20
20.00000000000001
 10
-29.61542116512751
 20
20.15224093497742
 10
-30.26426786277045
 20
20.5857864376269
 10
-30.69781336541993
 20
21.23463313526981
 10
-30.85005430039735
 20
22.00000000000001
 10
-30.85005430039735
 20
24.00000000000006
 10
-30.69781336541993
 20
24.76536686473026
 10
-30.26426786277045
 20
25.41421356237317
 10
-29.61542116512751
 20
25.84775906502265
 10
-28.85005430039735
 20
26.00000000000006
  0
LINE
  5
62C
330
1F
100
AcDbEntity
  8
0
100
AcDbLine
 10
20.02501563459895
 20
32.69786111400755
 30
0.0
 11
20.02501563459895
 21
-6.820382971031385
 31
0.0
  0
LINE
  5
62D
330
1F
100
AcDbEntity
  8
0
100
AcDbLine
 10
-0.0000000000000147
 20
18.46800323625942
 30
0.0
 11
-0.0000000000000147
 21
50.00670069767111
 31
0.0
  0
LWPOLYLINE
  5
62E
330
1F
100
AcDbEntity
  8
0
100
AcDbPolyline
 90
        4
 70
     1
 43
0.0
 10
-1.025450704486063
 20
18.46800323625942
 10
-1.025450704486063
 20
0.0
 10
-0.0000000000000147
 20
0.0
 10
-0.0000000000000147
 20
18.46800323625942
  0
LWPOLYLINE
  5
636
330
1F
100
AcDbEntity
  8
0
100
AcDbPolyline
 90
        4
 70
     1
 43
0.0
 10
-25.29414373336163
 20
31.43734363259013
 10
-25.29414373336163
 20
4.000002824272183
 10
52.44847935316033
 20
4.000002824272183
 10
52.44847935316033
 20
31.43734363259013
  0
LWPOLYLINE
  5
637
330
1F
100
AcDbEntity
  8
0
100
AcDbPolyline
 90
        4
 70
     1
 43
0.0
 10
0.0
 20
0.0
 10
0.0
 20
31.43734363259014
 10
13.57716780989935
 20
31.43734363259014
 10
13.57716780989935
 20
0.0
  0
ENDSEC
  0
SECTION
  2
OBJECTS
  0
DICTIONARY
  5
C
330
0
100
AcDbDictionary
281
     1
  3
ACAD_COLOR
350
73
  3
ACAD_DETAILVIEWSTYLE
350
104
  3
ACAD_GROUP
350
D
  3
ACAD_IMAGE_VARS
350
DC
  3
ACAD_LAYOUT
350
1A
  3
ACAD_MATERIAL
350
72
  3
ACAD_MLEADERSTYLE
350
B5
  3
ACAD_MLINESTYLE
350
17
  3
ACAD_PLOTSETTINGS
350
19
  3
ACAD_PLOTSTYLENAME
350
E
  3
ACAD_SCALELIST
350
B6
  3
ACAD_SECTIONVIEWSTYLE
350
105
  3
ACAD_TABLESTYLE
350
86
  3
ACAD_VISUALSTYLE
350
99
  3
ACDB_RECOMPOSE_DATA
350
63A
  3
AcDbVariableDictionary
350
66
  3
APPDATA
350
E1
  0
SUN
  5
EE
330
94
100
AcDbSun
 90
        1
290
     0
 63
     7
421
 16777215
 40
1.0
291
     1
 91
  2455826
 92
 54000000
292
     0
 70
     2
 71
   256
280
     1
  0
DICTIONARY
  5
491
330
2
100
AcDbDictionary
280
     1
281
     1
  3
ACAD_LAYERSTATES
360
492
  0
DICTIONARY
  5
73
102
{ACAD_REACTORS
330
C
102
}
330
C
100
AcDbDictionary
281
     1
  0
DICTIONARY
  5
104
102
{ACAD_REACTORS
330
C
102
}
330
C
100
AcDbDictionary
281
     1
  0
DICTIONARY
  5
D
102
{ACAD_REACTORS
330
C
102
}
330
C
100
AcDbDictionary
281
     1
  0
RASTERVARIABLES
  5
DC
102
{ACAD_REACTORS
330
C
102
}
330
C
100
AcDbRasterVariables
 90
        0
 70
     1
 71
     1
 72
     5
  0
DICTIONARY
  5
1A
102
{ACAD_REACTORS
330
C
102
}
330
C
100
AcDbDictionary
281
     1
  3
Model
350
22
  3
Sheet1
350
59
  3
Sheet2
350
5E
  0
DICTIONARY
  5
72
102
{ACAD_REACTORS
330
C
102
}
330
C
100
AcDbDictionary
281
     1
  3
ByBlock
350
4A6
  3
ByLayer
350
96
  3
Global
350
98
  0
DICTIONARY
  5
B5
102
{ACAD_REACTORS
330
C
102
}
330
C
100
AcDbDictionary
281
     1
  3
Standard
350
ED
  0
DICTIONARY
  5
17
102
{ACAD_REACTORS
330
C
102
}
330
C
100
AcDbDictionary
281
     1
  3
Standard
350
18
  0
DICTIONARY
  5
19
102
{ACAD_REACTORS
330
C
102
}
330
C
100
AcDbDictionary
281
     1
  0
ACDBDICTIONARYWDFLT
  5
E
102
{ACAD_REACTORS
330
C
102
}
330
C
100
AcDbDictionary
281
     1
  3
Normal
350
F
100
AcDbDictionaryWithDefault
340
F
  0
DICTIONARY
  5
B6
102
{ACAD_REACTORS
330
C
102
}
330
C
100
AcDbDictionary
281
     1
  3
A0
350
B7
  3
A1
350
B8
  3
A2
350
B9
  3
A3
350
BA
  3
A4
350
BB
  3
A5
350
BC
  3
A6
350
BD
  3
A7
350
BE
  3
A8
350
BF
  3
A9
350
C0
  3
B0
350
C1
  3
B1
350
C2
  3
B2
350
C3
  3
B3
350
C4
  3
B4
350
C5
  3
B5
350
C6
  3
B6
350
C7
  3
B7
350
C8
  3
B8
350
C9
  3
B9
350
CA
  3
C0
350
CB
  3
C1
350
CC
  3
C2
350
CD
  3
C3
350
CE
  3
C4
350
CF
  3
C5
350
D0
  3
C6
350
D1
  3
C7
350
D2
  3
C8
350
D3
  3
C9
350
D4
  3
D0
350
D5
  3
D1
350
D6
  3
D2
350
D7
  0
DICTIONARY
  5
105
102
{ACAD_REACTORS
330
C
102
}
330
C
100
AcDbDictionary
281
     1
  0
DICTIONARY
  5
86
102
{ACAD_REACTORS
330
C
102
}
330
C
100
AcDbDictionary
281
     1
  3
Standard
350
87
  0
DICTIONARY
  5
99
102
{ACAD_REACTORS
330
C
102
}
330
C
100
AcDbDictionary
281
     1
  3
2dWireframe
350
9F
  3
3D Hidden
350
A1
  3
3dWireframe
350
A0
  3
Basic
350
9E
  3
Brighten
350
A5
  3
ColorChange
350
A9
  3
Conceptual
350
A2
  3
Dim
350
A4
  3
EdgeColorOff
350
E7
  3
Facepattern
350
A8
  3
Flat
350
9A
  3
FlatWithEdges
350
9B
  3
Gouraud
350
9C
  3
GouraudWithEdges
350
9D
  3
Hidden
350
E4
  3
JitterOff
350
E5
  3
Linepattern
350
A7
  3
OverhangOff
350
E6
  3
Realistic
350
A3
  3
Shaded
350
EC
  3
Shaded with edges
350
EB
  3
Shades of Gray
350
E8
  3
Sketchy
350
E9
  3
Thicken
350
A6
  3
Wireframe
350
E3
  3
X-Ray
350
EA
  0
XRECORD
  5
63A
102
{ACAD_REACTORS
330
C
102
}
330
C
100
AcDbXrecord
280
     1
 90
        1
330
87
  0
DICTIONARY
  5
66
102
{ACAD_REACTORS
330
C
102
}
330
C
100
AcDbDictionary
281
     1
  3
CANNOSCALE
350
D8
  3
CMLEADERSTYLE
350
103
  3
CTABLESTYLE
350
89
  3
DIMASSOC
350
67
  3
HIDETEXT
350
6B
  3
HPTRANSPARENCY
350
119
  3
LIGHTSINBLOCKS
350
DF
  3
XCLIPFRAME
350
E0
  0
DICTIONARY
  5
E1
102
{ACAD_REACTORS
330
C
102
}
330
C
100
AcDbDictionary
281
     1
  0
DICTIONARY
  5
492
102
{ACAD_REACTORS
330
491
102
}
330
491
100
AcDbDictionary
281
     1
  0
LAYOUT
  5
22
102
{ACAD_REACTORS
330
1A
102
}
330
1A
100
AcDbPlotSettings
  1

  2
none_device
  4
ANSI_A_(8.50_x_11.00_Inches)
  6

 40
6.35
 41
19.05
 42
6.35
 43
19.05
 44
215.9
 45
279.4
 46
11.11250000000003
 47
0.0000000000000142
 48
0.0
 49
0.0
140
0.0
141
0.0
142
1.0
143
1.263157894736842
 70
 11444
 72
     0
 73
     1
 74
     1
  7
monochrome.ctb
 75
     0
 76
     0
 77
     2
 78
   300
147
0.7916666666666665
148
-702.8076765758875
149
-496.2830551296954
100
AcDbLayout
  1
Model
 70
     1
 71
     0
 10
0.0
 20
0.0
 11
12.0
 21
9.0
 12
0.0
 22
0.0
 32
0.0
 14
-32.85005430039735
 24
-40.0
 34
0.0
 15
52.44847935316036
 25
50.00670069767111
 35
0.0
146
0.0
 13
0.0
 23
0.0
 33
0.0
 16
1.0
 26
0.0
 36
0.0
 17
0.0
 27
1.0
 37
0.0
 76
     0
330
1F
331
94
  0
LAYOUT
  5
59
102
{ACAD_REACTORS
330
1A
102
}
330
1A
100
AcDbPlotSettings
  1

  2
None
  4

  6

 40
0.0
 41
0.0
 42
0.0
 43
0.0
 44
0.0
 45
0.0
 46
0.0
 47
0.0
 48
0.0
 49
0.0
140
0.0
141
0.0
142
1.0
143
1.0
 70
   688
 72
     0
 73
     0
 74
     5
  7

 75
    16
 76
     0
 77
     2
 78
   300
147
1.0
148
0.0
149
0.0
100
AcDbLayout
  1
Sheet1
 70
     1
 71
     1
 10
0.0
 20
0.0
 11
12.0
 21
9.0
 12
0.0
 22
0.0
 32
0.0
 14
0.0
 24
0.0
 34
0.0
 15
0.0
 25
0.0
 35
0.0
146
0.0
 13
0.0
 23
0.0
 33
0.0
 16
1.0
 26
0.0
 36
0.0
 17
0.0
 27
1.0
 37
0.0
 76
     0
330
58
  0
LAYOUT
  5
5E
102
{ACAD_REACTORS
330
1A
102
}
330
1A
100
AcDbPlotSettings
  1

  2
None
  4

  6

 40
0.0
 41
0.0
 42
0.0
 43
0.0
 44
0.0
 45
0.0
 46
0.0
 47
0.0
 48
0.0
 49
0.0
140
0.0
141
0.0
142
1.0
143
1.0
 70
   688
 72
     0
 73
     0
 74
     5
  7

 75
    16
 76
     0
 77
     2
 78
   300
147
1.0
148
0.0
149
0.0
100
AcDbLayout
  1
Sheet2
 70
     1
 71
     2
 10
0.0
 20
0.0
 11
12.0
 21
9.0
 12
0.0
 22
0.0
 32
0.0
 14
0.0
 24
0.0
 34
0.0
 15
0.0
 25
0.0
 35
0.0
146
0.0
 13
0.0
 23
0.0
 33
0.0
 16
1.0
 26
0.0
 36
0.0
 17
0.0
 27
1.0
 37
0.0
 76
     0
330
5D
  0
MATERIAL
  5
4A6
102
{ACAD_REACTORS
330
72
102
}
330
72
100
AcDbMaterial
  1
ByBlock
 72
     1
 94
      127
  0
MATERIAL
  5
96
102
{ACAD_REACTORS
330
72
102
}
330
72
100
AcDbMaterial
  1
ByLayer
 72
     1
 94
       63
  0
MATERIAL
  5
98
102
{ACAD_REACTORS
330
72
102
}
330
72
100
AcDbMaterial
  1
Global
 72
     1
 94
       63
  0
MLEADERSTYLE
  5
ED
102
{ACAD_REACTORS
330
B5
102
}
330
B5
100
AcDbMLeaderStyle
170
     2
171
     1
172
     0
 90
        2
 40
0.0
 41
0.0
173
     1
 91
-1056964608
340
14
 92
       -2
290
     1
 42
0.09
291
     1
 43
0.36
  3
Standard
341
0
 44
0.18
300

342
11
174
     1
178
     6
175
     1
176
     0
 93
-1056964608
 45
0.18
292
     0
297
     0
 46
0.18
343
0
 94
-1056964608
 47
1.0
 49
1.0
140
1.0
293
     1
141
0.0
294
     1
177
     0
142
1.0
295
     0
296
     0
143
0.125
1001
ACAD_MLEADERVER
1070
     2
  0
MLINESTYLE
  5
18
102
{ACAD_REACTORS
330
17
102
}
330
17
100
AcDbMlineStyle
  2
STANDARD
 70
     0
  3

 62
   256
 51
90.0
 52
90.0
 71
     2
 49
0.5
 62
   256
  6
BYLAYER
 49
-0.5
 62
   256
  6
BYLAYER
  0
ACDBPLACEHOLDER
  5
F
102
{ACAD_REACTORS
330
E
102
}
330
E
  0
SCALE
  5
B7
102
{ACAD_REACTORS
330
B6
102
}
330
B6
100
AcDbScale
 70
     0
300
1:1
140
1.0
141
1.0
290
     1
  0
SCALE
  5
B8
102
{ACAD_REACTORS
330
B6
102
}
330
B6
100
AcDbScale
 70
     0
300
1:2
140
1.0
141
2.0
290
     0
  0
SCALE
  5
B9
102
{ACAD_REACTORS
330
B6
102
}
330
B6
100
AcDbScale
 70
     0
300
1:4
140
1.0
141
4.0
290
     0
  0
SCALE
  5
BA
102
{ACAD_REACTORS
330
B6
102
}
330
B6
100
AcDbScale
 70
     0
300
1:5
140
1.0
141
5.0
290
     0
  0
SCALE
  5
BB
102
{ACAD_REACTORS
330
B6
102
}
330
B6
100
AcDbScale
 70
     0
300
1:8
140
1.0
141
8.0
290
     0
  0
SCALE
  5
BC
102
{ACAD_REACTORS
330
B6
102
}
330
B6
100
AcDbScale
 70
     0
300
1:10
140
1.0
141
10.0
290
     0
  0
SCALE
  5
BD
102
{ACAD_REACTORS
330
B6
102
}
330
B6
100
AcDbScale
 70
     0
300
1:16
140
1.0
141
16.0
290
     0
  0
SCALE
  5
BE
102
{ACAD_REACTORS
330
B6
102
}
330
B6
100
AcDbScale
 70
     0
300
1:20
140
1.0
141
20.0
290
     0
  0
SCALE
  5
BF
102
{ACAD_REACTORS
330
B6
102
}
330
B6
100
AcDbScale
 70
     0
300
1:30
140
1.0
141
30.0
290
     0
  0
SCALE
  5
C0
102
{ACAD_REACTORS
330
B6
102
}
330
B6
100
AcDbScale
 70
     0
300
1:40
140
1.0
141
40.0
290
     0
  0
SCALE
  5
C1
102
{ACAD_REACTORS
330
B6
102
}
330
B6
100
AcDbScale
 70
     0
300
1:50
140
1.0
141
50.0
290
     0
  0
SCALE
  5
C2
102
{ACAD_REACTORS
330
B6
102
}
330
B6
100
AcDbScale
 70
     0
300
1:100
140
1.0
141
100.0
290
     0
  0
SCALE
  5
C3
102
{ACAD_REACTORS
330
B6
102
}
330
B6
100
AcDbScale
 70
     0
300
2:1
140
2.0
141
1.0
290
     0
  0
SCALE
  5
C4
102
{ACAD_REACTORS
330
B6
102
}
330
B6
100
AcDbScale
 70
     0
300
4:1
140
4.0
141
1.0
290
     0
  0
SCALE
  5
C5
102
{ACAD_REACTORS
330
B6
102
}
330
B6
100
AcDbScale
 70
     0
300
8:1
140
8.0
141
1.0
290
     0
  0
SCALE
  5
C6
102
{ACAD_REACTORS
330
B6
102
}
330
B6
100
AcDbScale
 70
     0
300
10:1
140
10.0
141
1.0
290
     0
  0
SCALE
  5
C7
102
{ACAD_REACTORS
330
B6
102
}
330
B6
100
AcDbScale
 70
     0
300
100:1
140
100.0
141
1.0
290
     0
  0
SCALE
  5
C8
102
{ACAD_REACTORS
330
B6
102
}
330
B6
100
AcDbScale
 70
     0
300
1/128" = 1'-0"
140
0.0078125
141
12.0
290
     0
  0
SCALE
  5
C9
102
{ACAD_REACTORS
330
B6
102
}
330
B6
100
AcDbScale
 70
     0
300
1/64" = 1'-0"
140
0.015625
141
12.0
290
     0
  0
SCALE
  5
CA
102
{ACAD_REACTORS
330
B6
102
}
330
B6
100
AcDbScale
 70
     0
300
1/32" = 1'-0"
140
0.03125
141
12.0
290
     0
  0
SCALE
  5
CB
102
{ACAD_REACTORS
330
B6
102
}
330
B6
100
AcDbScale
 70
     0
300
1/16" = 1'-0"
140
0.0625
141
12.0
290
     0
  0
SCALE
  5
CC
102
{ACAD_REACTORS
330
B6
102
}
330
B6
100
AcDbScale
 70
     0
300
3/32" = 1'-0"
140
0.09375
141
12.0
290
     0
  0
SCALE
  5
CD
102
{ACAD_REACTORS
330
B6
102
}
330
B6
100
AcDbScale
 70
     0
300
1/8" = 1'-0"
140
0.125
141
12.0
290
     0
  0
SCALE
  5
CE
102
{ACAD_REACTORS
330
B6
102
}
330
B6
100
AcDbScale
 70
     0
300
3/16" = 1'-0"
140
0.1875
141
12.0
290
     0
  0
SCALE
  5
CF
102
{ACAD_REACTORS
330
B6
102
}
330
B6
100
AcDbScale
 70
     0
300
1/4" = 1'-0"
140
0.25
141
12.0
290
     0
  0
SCALE
  5
D0
102
{ACAD_REACTORS
330
B6
102
}
330
B6
100
AcDbScale
 70
     0
300
3/8" = 1'-0"
140
0.375
141
12.0
290
     0
  0
SCALE
  5
D1
102
{ACAD_REACTORS
330
B6
102
}
330
B6
100
AcDbScale
 70
     0
300
1/2" = 1'-0"
140
0.5
141
12.0
290
     0
  0
SCALE
  5
D2
102
{ACAD_REACTORS
330
B6
102
}
330
B6
100
AcDbScale
 70
     0
300
3/4" = 1'-0"
140
0.75
141
12.0
290
     0
  0
SCALE
  5
D3
102
{ACAD_REACTORS
330
B6
102
}
330
B6
100
AcDbScale
 70
     0
300
1" = 1'-0"
140
1.0
141
12.0
290
     0
  0
SCALE
  5
D4
102
{ACAD_REACTORS
330
B6
102
}
330
B6
100
AcDbScale
 70
     0
300
1-1/2" = 1'-0"
140
1.5
141
12.0
290
     0
  0
SCALE
  5
D5
102
{ACAD_REACTORS
330
B6
102
}
330
B6
100
AcDbScale
 70
     0
300
3" = 1'-0"
140
3.0
141
12.0
290
     0
  0
SCALE
  5
D6
102
{ACAD_REACTORS
330
B6
102
}
330
B6
100
AcDbScale
 70
     0
300
6" = 1'-0"
140
6.0
141
12.0
290
     0
  0
SCALE
  5
D7
102
{ACAD_REACTORS
330
B6
102
}
330
B6
100
AcDbScale
 70
     0
300
1'-0" = 1'-0"
140
12.0
141
12.0
290
     0
  0
TABLESTYLE
  5
87
102
{ACAD_REACTORS
330
86
102
}
102
{ACAD_XDICTIONARY
360
638
102
}
330
86
100
AcDbTableStyle
  3
Standard
 70
     0
 71
     0
 40
0.06
 41
0.06
280
     0
281
     0
  7
Standard
140
0.18
170
     2
 62
     0
 63
   257
283
     0
 90
      512
 91
        0
  1

274
    -2
284
     1
 64
     0
275
    -2
285
     1
 65
     0
276
    -2
286
     1
 66
     0
277
    -2
287
     1
 67
     0
278
    -2
288
     1
 68
     0
279
    -2
289
     1
 69
     0
  7
Standard
140
0.25
170
     5
 62
     0
 63
   257
283
     0
 90
      512
 91
        0
  1

274
    -2
284
     1
 64
     0
275
    -2
285
     1
 65
     0
276
    -2
286
     1
 66
     0
277
    -2
287
     1
 67
     0
278
    -2
288
     1
 68
     0
279
    -2
289
     1
 69
     0
  7
Standard
140
0.18
170
     5
 62
     0
 63
   257
283
     0
 90
      512
 91
        0
  1

274
    -2
284
     1
 64
     0
275
    -2
285
     1
 65
     0
276
    -2
286
     1
 66
     0
277
    -2
287
     1
 67
     0
278
    -2
288
     1
 68
     0
279
    -2
289
     1
 69
     0
  0
VISUALSTYLE
  5
9F
102
{ACAD_REACTORS
330
99
102
}
330
99
100
AcDbVisualStyle
  2
2dWireframe
 70
     4
 71
     0
 72
     2
 73
     1
 90
        0
 40
-0.6
 41
-30.0
 62
     5
 63
     7
421
 16777215
 74
     1
 91
        4
 64
     7
 65
   257
 75
     1
175
     1
 42
1.0
 92
        0
 66
   257
 43
1.0
 76
     1
 77
     6
 78
     2
 67
     7
 79
     5
170
     0
171
     0
290
     0
174
     0
 93
        1
 44
0.0
173
     0
291
     0
 45
0.0
  0
VISUALSTYLE
  5
A1
102
{ACAD_REACTORS
330
99
102
}
330
99
100
AcDbVisualStyle
  2
3D Hidden
 70
     6
 71
     1
 72
     2
 73
     2
 90
        0
 40
-0.6
 41
-30.0
 62
     5
 63
     7
421
 16777215
 74
     2
 91
        2
 64
     7
 65
   257
 75
     2
175
     1
 42
40.0
 92
        0
 66
   257
 43
1.0
 76
     1
 77
     6
 78
     2
 67
     7
 79
     3
170
     0
171
     0
290
     0
174
     0
 93
        1
 44
0.0
173
     0
291
     0
 45
0.0
  0
VISUALSTYLE
  5
A0
102
{ACAD_REACTORS
330
99
102
}
330
99
100
AcDbVisualStyle
  2
3dWireframe
 70
     5
 71
     0
 72
     2
 73
     1
 90
        0
 40
-0.6
 41
-30.0
 62
     5
 63
     7
421
 16777215
 74
     1
 91
        4
 64
     7
 65
   257
 75
     1
175
     1
 42
1.0
 92
        0
 66
   257
 43
1.0
 76
     1
 77
     6
 78
     2
 67
     7
 79
     5
170
     0
171
     0
290
     0
174
     0
 93
        1
 44
0.0
173
     0
291
     0
 45
0.0
  0
VISUALSTYLE
  5
9E
102
{ACAD_REACTORS
330
99
102
}
330
99
100
AcDbVisualStyle
  2
Basic
 70
     7
 71
     1
 72
     0
 73
     1
 90
        0
 40
-0.6
 41
-30.0
 62
     5
 63
     7
421
 16777215
 74
     0
 91
        4
 64
     7
 65
   257
 75
     1
175
     1
 42
1.0
 92
        8
 66
     7
 43
1.0
 76
     1
 77
     6
 78
     2
 67
     7
 79
     5
170
     0
171
     0
290
     0
174
     0
 93
        1
 44
0.0
173
     0
291
     1
 45
0.0
  0
VISUALSTYLE
  5
A5
102
{ACAD_REACTORS
330
99
102
}
330
99
100
AcDbVisualStyle
  2
Brighten
 70
    12
 71
     2
 72
     2
 73
     1
 90
        0
 40
-0.6
 41
-30.0
 62
     5
 63
     7
421
 16777215
 74
     1
 91
        4
 64
     7
 65
   257
 75
     1
175
     1
 42
1.0
 92
        8
 66
     7
 43
1.0
 76
     1
 77
     6
 78
     2
 67
     7
 79
     5
170
     0
171
     0
290
     0
174
     0
 93
        1
 44
50.0
173
     0
291
     1
 45
0.0
  0
VISUALSTYLE
  5
A9
102
{ACAD_REACTORS
330
99
102
}
330
99
100
AcDbVisualStyle
  2
ColorChange
 70
    16
 71
     2
 72
     2
 73
     3
 90
        0
 40
-0.6
 41
-30.0
 62
     5
 63
     8
421
  8421504
 74
     1
 91
        4
 64
     7
 65
   257
 75
     1
175
     1
 42
1.0
 92
        8
 66
     8
424
  8421504
 43
1.0
 76
     1
 77
     6
 78
     2
 67
     7
 79
     5
170
     0
171
     0
290
     0
174
     0
 93
        1
 44
0.0
173
     0
291
     1
 45
0.0
  0
VISUALSTYLE
  5
A2
102
{ACAD_REACTORS
330
99
102
}
330
99
100
AcDbVisualStyle
  2
Conceptual
 70
     9
 71
     3
 72
     2
 73
     1
 90
        0
 40
-0.6
 41
-30.0
 62
     5
 63
     7
421
 16777215
 74
     2
 91
        2
 64
     7
 65
   257
 75
     1
175
     1
 42
40.0
 92
        8
 66
     7
 43
1.0
 76
     1
 77
     6
 78
     2
 67
     7
 79
     3
170
     0
171
     0
290
     0
174
     0
 93
        1
 44
0.0
173
     0
291
     0
 45
0.0
  0
VISUALSTYLE
  5
A4
102
{ACAD_REACTORS
330
99
102
}
330
99
100
AcDbVisualStyle
  2
Dim
 70
    11
 71
     2
 72
     2
 73
     1
 90
        0
 40
-0.6
 41
-30.0
 62
     5
 63
     7
421
 16777215
 74
     1
 91
        4
 64
     7
 65
   257
 75
     1
175
     1
 42
1.0
 92
        8
 66
     7
 43
1.0
 76
     1
 77
     6
 78
     2
 67
     7
 79
     5
170
     0
171
     0
290
     0
174
     0
 93
        1
 44
-50.0
173
     0
291
     1
 45
0.0
  0
VISUALSTYLE
  5
E7
102
{ACAD_REACTORS
330
99
102
}
330
99
100
AcDbVisualStyle
  2
EdgeColorOff
 70
    22
 71
     2
 72
     2
 73
     0
 90
        0
 40
0.6
 41
30.0
 62
     5
 63
     7
421
 16777215
 74
     1
 91
        4
 64
     7
 65
   257
 75
     1
175
     1
 42
1.0
 92
        8
 66
     7
 43
1.0
 76
     1
 77
     6
 78
     2
 67
     7
 79
     5
170
     0
171
     0
290
     0
174
     0
 93
        1
 44
0.0
173
     0
291
     1
 45
0.0
  0
VISUALSTYLE
  5
A8
102
{ACAD_REACTORS
330
99
102
}
330
99
100
AcDbVisualStyle
  2
Facepattern
 70
    15
 71
     2
 72
     2
 73
     1
 90
        0
 40
-0.6
 41
-30.0
 62
     5
 63
     7
421
 16777215
 74
     1
 91
        4
 64
     7
 65
   257
 75
     1
175
     1
 42
1.0
 92
        8
 66
     7
 43
1.0
 76
     1
 77
     6
 78
     2
 67
     7
 79
     5
170
     0
171
     0
290
     0
174
     0
 93
        1
 44
0.0
173
     0
291
     1
 45
0.0
  0
VISUALSTYLE
  5
9A
102
{ACAD_REACTORS
330
99
102
}
330
99
100
AcDbVisualStyle
  2
Flat
 70
     0
 71
     2
 72
     1
 73
     1
 90
        2
 40
-0.6
 41
30.0
 62
     5
 63
     7
421
 16777215
 74
     0
 91
        4
 64
     7
 65
   257
 75
     1
175
     1
 42
1.0
 92
        8
 66
     7
 43
1.0
 76
     1
 77
     6
 78
     2
 67
     7
 79
     5
170
     0
171
     0
290
     0
174
     0
 93
        1
 44
0.0
173
     0
291
     1
 45
0.0
  0
VISUALSTYLE
  5
9B
102
{ACAD_REACTORS
330
99
102
}
330
99
100
AcDbVisualStyle
  2
FlatWithEdges
 70
     1
 71
     2
 72
     1
 73
     1
 90
        2
 40
-0.6
 41
30.0
 62
     5
 63
     7
421
 16777215
 74
     1
 91
        4
 64
     7
 65
   257
 75
     1
175
     1
 42
1.0
 92
        0
 66
   257
 43
1.0
 76
     1
 77
     6
 78
     2
 67
     7
 79
     5
170
     0
171
     0
290
     0
174
     0
 93
        1
 44
0.0
173
     0
291
     1
 45
0.0
  0
VISUALSTYLE
  5
9C
102
{ACAD_REACTORS
330
99
102
}
330
99
100
AcDbVisualStyle
  2
Gouraud
 70
     2
 71
     2
 72
     2
 73
     1
 90
        2
 40
-0.6
 41
30.0
 62
     5
 63
     7
421
 16777215
 74
     0
 91
        4
 64
     7
 65
   257
 75
     1
175
     1
 42
1.0
 92
        0
 66
     7
 43
1.0
 76
     1
 77
     6
 78
     2
 67
     7
 79
     5
170
     0
171
     0
290
     0
174
     0
 93
        1
 44
0.0
173
     0
291
     1
 45
0.0
  0
VISUALSTYLE
  5
9D
102
{ACAD_REACTORS
330
99
102
}
330
99
100
AcDbVisualStyle
  2
GouraudWithEdges
 70
     3
 71
     2
 72
     2
 73
     1
 90
        2
 40
-0.6
 41
30.0
 62
     5
 63
     7
421
 16777215
 74
     1
 91
        4
 64
     7
 65
   257
 75
     1
175
     1
 42
1.0
 92
        0
 66
   257
 43
1.0
 76
     1
 77
     6
 78
     2
 67
     7
 79
     5
170
     0
171
     0
290
     0
174
     0
 93
        1
 44
0.0
173
     0
291
     1
 45
0.0
  0
VISUALSTYLE
  5
E4
102
{ACAD_REACTORS
330
99
102
}
330
99
100
AcDbVisualStyle
  2
Hidden
 70
     6
 71
     1
 72
     2
 73
     2
 90
        0
 40
0.6
 41
30.0
 62
     5
 63
     7
421
 16777215
 74
     2
 91
        2
 64
     7
 65
   257
 75
     2
175
     1
 42
40.0
 92
        0
 66
   257
 43
1.0
 76
     1
 77
     6
 78
     2
 67
     7
 79
     3
170
     0
171
     0
290
     0
174
     0
 93
        1
 44
0.0
173
     0
291
     0
 45
0.0
  0
VISUALSTYLE
  5
E5
102
{ACAD_REACTORS
330
99
102
}
330
99
100
AcDbVisualStyle
  2
JitterOff
 70
    20
 71
     2
 72
     2
 73
     0
 90
        0
 40
0.6
 41
30.0
 62
     5
 63
     7
421
 16777215
 74
     1
 91
        4
 64
     7
 65
   257
 75
     1
175
     1
 42
1.0
 92
       10
 66
     7
 43
1.0
 76
     1
 77
     6
 78
     2
 67
     7
 79
     5
170
     0
171
     0
290
     0
174
     0
 93
        1
 44
0.0
173
     0
291
     1
 45
0.0
  0
VISUALSTYLE
  5
A7
102
{ACAD_REACTORS
330
99
102
}
330
99
100
AcDbVisualStyle
  2
Linepattern
 70
    14
 71
     2
 72
     2
 73
     1
 90
        0
 40
-0.6
 41
-30.0
 62
     5
 63
     7
421
 16777215
 74
     1
 91
        4
 64
     7
 65
   257
 75
     7
175
     7
 42
1.0
 92
        8
 66
     7
 43
1.0
 76
     1
 77
     6
 78
     2
 67
     7
 79
     5
170
     0
171
     0
290
     0
174
     0
 93
        1
 44
0.0
173
     0
291
     1
 45
0.0
  0
VISUALSTYLE
  5
E6
102
{ACAD_REACTORS
330
99
102
}
330
99
100
AcDbVisualStyle
  2
OverhangOff
 70
    21
 71
     2
 72
     2
 73
     0
 90
        0
 40
0.6
 41
30.0
 62
     5
 63
     7
421
 16777215
 74
     1
 91
        4
 64
     7
 65
   257
 75
     1
175
     1
 42
1.0
 92
        9
 66
     7
 43
1.0
 76
     1
 77
     6
 78
     2
 67
     7
 79
     5
170
     0
171
     0
290
     0
174
     0
 93
        1
 44
0.0
173
     0
291
     1
 45
0.0
  0
VISUALSTYLE
  5
A3
102
{ACAD_REACTORS
330
99
102
}
330
99
100
AcDbVisualStyle
  2
Realistic
 70
     8
 71
     2
 72
     2
 73
     1
 90
        0
 40
-0.6
 41
-30.0
 62
     5
 63
     7
421
 16777215
 74
     1
 91
        0
 64
     7
 65
   257
 75
     1
175
     1
 42
1.0
 92
        8
 66
     8
424
  7895160
 43
1.0
 76
     1
 77
     6
 78
     2
 67
     7
 79
     5
170
     0
171
     0
290
     0
174
     0
 93
       13
 44
0.0
173
     0
291
     0
 45
0.0
  0
VISUALSTYLE
  5
EC
102
{ACAD_REACTORS
330
99
102
}
330
99
100
AcDbVisualStyle
  2
Shaded
 70
    27
 71
     2
 72
     2
 73
     1
 90
        2
 40
0.6
 41
30.0
 62
     5
 63
     7
421
 16777215
 74
     0
 91
        4
 64
     7
 65
   257
 75
     1
175
     1
 42
1.0
 92
        8
 66
   257
 43
1.0
 76
     1
 77
     6
 78
     2
 67
     8
425
  7895160
 79
     3
170
     0
171
     0
290
     0
174
     0
 93
        5
 44
0.0
173
     0
291
     0
 45
0.0
  0
VISUALSTYLE
  5
EB
102
{ACAD_REACTORS
330
99
102
}
330
99
100
AcDbVisualStyle
  2
Shaded with edges
 70
    26
 71
     2
 72
     2
 73
     1
 90
        2
 40
0.6
 41
30.0
 62
     5
 63
     7
421
 16777215
 74
     1
 91
       10
 64
     7
 65
   257
 75
     2
175
     1
 42
1.0
 92
        8
 66
   257
 43
1.0
 76
     1
 77
     6
 78
     2
 67
     7
 79
     3
170
     0
171
     0
290
     0
174
     0
 93
        5
 44
0.0
173
     0
291
     0
 45
0.0
  0
VISUALSTYLE
  5
E8
102
{ACAD_REACTORS
330
99
102
}
330
99
100
AcDbVisualStyle
  2
Shades of Gray
 70
    23
 71
     2
 72
     2
 73
     3
 90
        0
 40
0.6
 41
30.0
 62
     5
 63
     7
421
 16777215
 74
     2
 91
        2
 64
     7
 65
     7
 75
     1
175
     1
 42
40.0
 92
        8
 66
     7
 43
1.0
 76
     1
 77
     6
 78
     2
 67
     7
 79
     3
170
     0
171
     0
290
     0
174
     0
 93
        1
 44
0.0
173
     0
291
     0
 45
0.0
  0
VISUALSTYLE
  5
E9
102
{ACAD_REACTORS
330
99
102
}
330
99
100
AcDbVisualStyle
  2
Sketchy
 70
    24
 71
     1
 72
     2
 73
     2
 90
        0
 40
0.6
 41
30.0
 62
     5
 63
     7
421
 16777215
 74
     2
 91
        2
 64
     7
 65
     7
 75
     1
175
     1
 42
40.0
 92
       11
 66
     7
 43
1.0
 76
     1
 77
     6
 78
     2
 67
     7
 79
     6
170
     0
171
     0
290
     0
174
     0
 93
        1
 44
0.0
173
     0
291
     0
 45
0.0
  0
VISUALSTYLE
  5
A6
102
{ACAD_REACTORS
330
99
102
}
330
99
100
AcDbVisualStyle
  2
Thicken
 70
    13
 71
     2
 72
     2
 73
     1
 90
        0
 40
-0.6
 41
-30.0
 62
     5
 63
     7
421
 16777215
 74
     1
 91
        4
 64
     7
 65
   257
 75
     1
175
     1
 42
1.0
 92
       12
 66
     7
 43
1.0
 76
     1
 77
     6
 78
     2
 67
     7
 79
     5
170
     0
171
     0
290
     0
174
     0
 93
        1
 44
0.0
173
     0
291
     1
 45
0.0
  0
VISUALSTYLE
  5
E3
102
{ACAD_REACTORS
330
99
102
}
330
99
100
AcDbVisualStyle
  2
Wireframe
 70
     5
 71
     0
 72
     2
 73
     0
 90
        0
 40
0.6
 41
30.0
 62
     5
 63
     7
421
 16777215
 74
     1
 91
        4
 64
     7
 65
   257
 75
     1
175
     1
 42
1.0
 92
        0
 66
   257
 43
1.0
 76
     1
 77
     6
 78
     2
 67
     7
 79
     3
170
     0
171
     0
290
     0
174
     0
 93
        1
 44
0.0
173
     0
291
     0
 45
0.0
  0
VISUALSTYLE
  5
EA
102
{ACAD_REACTORS
330
99
102
}
330
99
100
AcDbVisualStyle
  2
X-Ray
 70
    25
 71
     2
 72
     2
 73
     1
 90
        1
 40
0.5
 41
30.0
 62
     5
 63
     7
421
 16777215
 74
     1
 91
        0
 64
     7
 65
   257
 75
     1
175
     1
 42
1.0
 92
        8
 66
     7
 43
1.0
 76
     1
 77
     6
 78
     2
 67
     7
 79
     3
170
     0
171
     0
290
     0
174
     0
 93
       13
 44
0.0
173
     0
291
     0
 45
0.0
  0
DICTIONARYVAR
  5
D8
102
{ACAD_REACTORS
330
66
102
}
330
66
100
DictionaryVariables
280
     0
  1
1:1
  0
DICTIONARYVAR
  5
103
102
{ACAD_REACTORS
330
66
102
}
330
66
100
DictionaryVariables
280
     0
  1
Standard
  0
DICTIONARYVAR
  5
89
102
{ACAD_REACTORS
330
66
102
}
330
66
100
DictionaryVariables
280
     0
  1
Standard
  0
DICTIONARYVAR
  5
67
102
{ACAD_REACTORS
330
66
102
}
330
66
100
DictionaryVariables
280
     0
  1
2
  0
DICTIONARYVAR
  5
6B
102
{ACAD_REACTORS
330
66
102
}
330
66
100
DictionaryVariables
280
     0
  1
1
  0
DICTIONARYVAR
  5
119
102
{ACAD_REACTORS
330
66
102
}
330
66
100
DictionaryVariables
280
     0
  1
ByLayer
  0
DICTIONARYVAR
  5
DF
102
{ACAD_REACTORS
330
66
102
}
330
66
100
DictionaryVariables
280
     0
  1
0
  0
DICTIONARYVAR
  5
E0
102
{ACAD_REACTORS
330
66
102
}
330
66
100
DictionaryVariables
280
     0
  1
0
  0
DICTIONARY
  5
638
330
87
100
AcDbDictionary
280
     1
281
     1
  3
ACAD_ROUNDTRIP_2008_TABLESTYLE_CELLSTYLEMAP
360
639
  0
CELLSTYLEMAP
  5
639
102
{ACAD_REACTORS
330
638
102
}
330
638
100
AcDbCellStyleMap
 90
        3
300
CELLSTYLE
  1
TABLEFORMAT_BEGIN
 90
        5
170
     1
 91
        0
 92
    32768
 62
   257
 93
        1
300
CONTENTFORMAT
  1
CONTENTFORMAT_BEGIN
 90
        0
 91
        0
 92
      512
 93
        0
300

 40
0.0
140
1.0
 94
        5
 62
     0
340
11
144
0.25
309
CONTENTFORMAT_END
171
     0
 94
        6
 95
        1
302
GRIDFORMAT
  1
GRIDFORMAT_BEGIN
 90
        0
 91
        1
 62
     0
 92
       -2
340
0
 93
        0
 40
0.045
309
GRIDFORMAT_END
 95
        2
302
GRIDFORMAT
  1
GRIDFORMAT_BEGIN
 90
        0
 91
        1
 62
     0
 92
       -2
340
0
 93
        0
 40
0.045
309
GRIDFORMAT_END
 95
        4
302
GRIDFORMAT
  1
GRIDFORMAT_BEGIN
 90
        0
 91
        1
 62
     0
 92
       -2
340
0
 93
        0
 40
0.045
309
GRIDFORMAT_END
 95
        8
302
GRIDFORMAT
  1
GRIDFORMAT_BEGIN
 90
        0
 91
        1
 62
     0
 92
       -2
340
0
 93
        0
 40
0.045
309
GRIDFORMAT_END
 95
       16
302
GRIDFORMAT
  1
GRIDFORMAT_BEGIN
 90
        0
 91
        1
 62
     0
 92
       -2
340
0
 93
        0
 40
0.045
309
GRIDFORMAT_END
 95
       32
302
GRIDFORMAT
  1
GRIDFORMAT_BEGIN
 90
        0
 91
        1
 62
     0
 92
       -2
340
0
 93
        0
 40
0.045
309
GRIDFORMAT_END
309
TABLEFORMAT_END
  1
CELLSTYLE_BEGIN
 90
        1
 91
        1
300
_TITLE
309
CELLSTYLE_END
300
CELLSTYLE
  1
TABLEFORMAT_BEGIN
 90
        5
170
     1
 91
        0
 92
        0
 62
   257
 93
        1
300
CONTENTFORMAT
  1
CONTENTFORMAT_BEGIN
 90
        0
 91
        0
 92
      512
 93
        0
300

 40
0.0
140
1.0
 94
        5
 62
     0
340
11
144
0.18
309
CONTENTFORMAT_END
171
     0
 94
        6
 95
        1
302
GRIDFORMAT
  1
GRIDFORMAT_BEGIN
 90
        0
 91
        1
 62
     0
 92
       -2
340
0
 93
        0
 40
0.045
309
GRIDFORMAT_END
 95
        2
302
GRIDFORMAT
  1
GRIDFORMAT_BEGIN
 90
        0
 91
        1
 62
     0
 92
       -2
340
0
 93
        0
 40
0.045
309
GRIDFORMAT_END
 95
        4
302
GRIDFORMAT
  1
GRIDFORMAT_BEGIN
 90
        0
 91
        1
 62
     0
 92
       -2
340
0
 93
        0
 40
0.045
309
GRIDFORMAT_END
 95
        8
302
GRIDFORMAT
  1
GRIDFORMAT_BEGIN
 90
        0
 91
        1
 62
     0
 92
       -2
340
0
 93
        0
 40
0.045
309
GRIDFORMAT_END
 95
       16
302
GRIDFORMAT
  1
GRIDFORMAT_BEGIN
 90
        0
 91
        1
 62
     0
 92
       -2
340
0
 93
        0
 40
0.045
309
GRIDFORMAT_END
 95
       32
302
GRIDFORMAT
  1
GRIDFORMAT_BEGIN
 90
        0
 91
        1
 62
     0
 92
       -2
340
0
 93
        0
 40
0.045
309
GRIDFORMAT_END
309
TABLEFORMAT_END
  1
CELLSTYLE_BEGIN
 90
        2
 91
        1
300
_HEADER
309
CELLSTYLE_END
300
CELLSTYLE
  1
TABLEFORMAT_BEGIN
 90
        5
170
     1
 91
        0
 92
        0
 62
   257
 93
        1
300
CONTENTFORMAT
  1
CONTENTFORMAT_BEGIN
 90
        0
 91
        0
 92
      512
 93
        0
300

 40
0.0
140
1.0
 94
        2
 62
     0
340
11
144
0.18
309
CONTENTFORMAT_END
171
     0
 94
        6
 95
        1
302
GRIDFORMAT
  1
GRIDFORMAT_BEGIN
 90
        0
 91
        1
 62
     0
 92
       -2
340
0
 93
        0
 40
0.045
309
GRIDFORMAT_END
 95
        2
302
GRIDFORMAT
  1
GRIDFORMAT_BEGIN
 90
        0
 91
        1
 62
     0
 92
       -2
340
0
 93
        0
 40
0.045
309
GRIDFORMAT_END
 95
        4
302
GRIDFORMAT
  1
GRIDFORMAT_BEGIN
 90
        0
 91
        1
 62
     0
 92
       -2
340
0
 93
        0
 40
0.045
309
GRIDFORMAT_END
 95
        8
302
GRIDFORMAT
  1
GRIDFORMAT_BEGIN
 90
        0
 91
        1
 62
     0
 92
       -2
340
0
 93
        0
 40
0.045
309
GRIDFORMAT_END
 95
       16
302
GRIDFORMAT
  1
GRIDFORMAT_BEGIN
 90
        0
 91
        1
 62
     0
 92
       -2
340
0
 93
        0
 40
0.045
309
GRIDFORMAT_END
 95
       32
302
GRIDFORMAT
  1
GRIDFORMAT_BEGIN
 90
        0
 91
        1
 62
     0
 92
       -2
340
0
 93
        0
 40
0.045
309
GRIDFORMAT_END
309
TABLEFORMAT_END
  1
CELLSTYLE_BEGIN
 90
        3
 91
        2
300
_DATA
309
CELLSTYLE_END
  0
ENDSEC
  0
EOF
