solid OpenSCAD_Model
  facet normal 0 -1 0
    outer loop
      vertex -1.0871 -10.343 0
      vertex 1.0871 -10.343 6
      vertex -1.0871 -10.343 6
    endloop
  endfacet
  facet normal 0 -1 -0
    outer loop
      vertex 1.0871 -10.343 6
      vertex -1.0871 -10.343 0
      vertex 1.0871 -10.343 0
    endloop
  endfacet
  facet normal 0 0 1
    outer loop
      vertex -10.4 0 6
      vertex -8.7 0 6
      vertex -8.7 100 6
    endloop
  endfacet
  facet normal 0 -0 1
    outer loop
      vertex -10.1727 -2.16228 6
      vertex -8.7 0 6
      vertex -10.4 0 6
    endloop
  endfacet
  facet normal 0 0 1
    outer loop
      vertex -10.4 0 6
      vertex -8.7 100 6
      vertex -10.4 100 6
    endloop
  endfacet
  facet normal 0 0 1
    outer loop
      vertex -8.7 0 6
      vertex -10.1727 -2.16228 6
      vertex -9.50087 -4.23006 6
    endloop
  endfacet
  facet normal 0 0 1
    outer loop
      vertex 8.7 0 6
      vertex 10.4 0 6
      vertex 10.4 100 6
    endloop
  endfacet
  facet normal 0 0 1
    outer loop
      vertex 10.4 0 6
      vertex 8.7 0 6
      vertex 10.1727 -2.16228 6
    endloop
  endfacet
  facet normal 0 0 1
    outer loop
      vertex 8.7 0 6
      vertex 10.4 100 6
      vertex 8.7 100 6
    endloop
  endfacet
  facet normal -0 0 1
    outer loop
      vertex 8.48187 -1.93593 6
      vertex 10.1727 -2.16228 6
      vertex 8.7 0 6
    endloop
  endfacet
  facet normal 0 0 1
    outer loop
      vertex 10.1727 -2.16228 6
      vertex 8.48187 -1.93593 6
      vertex 9.50087 -4.23006 6
    endloop
  endfacet
  facet normal -0 0 1
    outer loop
      vertex 7.83843 -3.77479 6
      vertex 9.50087 -4.23006 6
      vertex 8.48187 -1.93593 6
    endloop
  endfacet
  facet normal 0 0 1
    outer loop
      vertex 9.50087 -4.23006 6
      vertex 7.83843 -3.77479 6
      vertex 8.41378 -6.11297 6
    endloop
  endfacet
  facet normal -0 0 1
    outer loop
      vertex 6.80193 -5.42436 6
      vertex 8.41378 -6.11297 6
      vertex 7.83843 -3.77479 6
    endloop
  endfacet
  facet normal 0 0 1
    outer loop
      vertex 8.41378 -6.11297 6
      vertex 6.80193 -5.42436 6
      vertex 6.95896 -7.72871 6
    endloop
  endfacet
  facet normal -0 0 1
    outer loop
      vertex 5.42436 -6.80193 6
      vertex 6.95896 -7.72871 6
      vertex 6.80193 -5.42436 6
    endloop
  endfacet
  facet normal 0 0 1
    outer loop
      vertex 5.42436 -6.80193 6
      vertex 5.2 -9.00666 6
      vertex 6.95896 -7.72871 6
    endloop
  endfacet
  facet normal -0 0 1
    outer loop
      vertex 3.77479 -7.83843 6
      vertex 5.2 -9.00666 6
      vertex 5.42436 -6.80193 6
    endloop
  endfacet
  facet normal 0 0 1
    outer loop
      vertex 3.77479 -7.83843 6
      vertex 3.21378 -9.89099 6
      vertex 5.2 -9.00666 6
    endloop
  endfacet
  facet normal -0 0 1
    outer loop
      vertex 1.93593 -8.48187 6
      vertex 3.21378 -9.89099 6
      vertex 3.77479 -7.83843 6
    endloop
  endfacet
  facet normal 0 0 1
    outer loop
      vertex 1.93593 -8.48187 6
      vertex 1.0871 -10.343 6
      vertex 3.21378 -9.89099 6
    endloop
  endfacet
  facet normal -0 0 1
    outer loop
      vertex 0 -8.7 6
      vertex 1.0871 -10.343 6
      vertex 1.93593 -8.48187 6
    endloop
  endfacet
  facet normal 0 0 1
    outer loop
      vertex 0 -8.7 6
      vertex -1.0871 -10.343 6
      vertex 1.0871 -10.343 6
    endloop
  endfacet
  facet normal 0 0 1
    outer loop
      vertex -1.93593 -8.48187 6
      vertex -1.0871 -10.343 6
      vertex 0 -8.7 6
    endloop
  endfacet
  facet normal 0 0 1
    outer loop
      vertex -1.93593 -8.48187 6
      vertex -3.21378 -9.89099 6
      vertex -1.0871 -10.343 6
    endloop
  endfacet
  facet normal 0 0 1
    outer loop
      vertex -3.77479 -7.83843 6
      vertex -3.21378 -9.89099 6
      vertex -1.93593 -8.48187 6
    endloop
  endfacet
  facet normal 0 0 1
    outer loop
      vertex -3.77479 -7.83843 6
      vertex -5.2 -9.00666 6
      vertex -3.21378 -9.89099 6
    endloop
  endfacet
  facet normal 0 0 1
    outer loop
      vertex -5.42436 -6.80193 6
      vertex -5.2 -9.00666 6
      vertex -3.77479 -7.83843 6
    endloop
  endfacet
  facet normal 0 0 1
    outer loop
      vertex -6.95896 -7.72871 6
      vertex -5.42436 -6.80193 6
      vertex -6.80193 -5.42436 6
    endloop
  endfacet
  facet normal 0 0 1
    outer loop
      vertex -5.42436 -6.80193 6
      vertex -6.95896 -7.72871 6
      vertex -5.2 -9.00666 6
    endloop
  endfacet
  facet normal 0 0 1
    outer loop
      vertex -8.41378 -6.11297 6
      vertex -6.80193 -5.42436 6
      vertex -7.83843 -3.77479 6
    endloop
  endfacet
  facet normal 0 0 1
    outer loop
      vertex -6.80193 -5.42436 6
      vertex -8.41378 -6.11297 6
      vertex -6.95896 -7.72871 6
    endloop
  endfacet
  facet normal 0 0 1
    outer loop
      vertex -9.50087 -4.23006 6
      vertex -7.83843 -3.77479 6
      vertex -8.48187 -1.93593 6
    endloop
  endfacet
  facet normal 0 0 1
    outer loop
      vertex -9.50087 -4.23006 6
      vertex -8.48187 -1.93593 6
      vertex -8.7 0 6
    endloop
  endfacet
  facet normal 0 0 1
    outer loop
      vertex -7.83843 -3.77479 6
      vertex -9.50087 -4.23006 6
      vertex -8.41378 -6.11297 6
    endloop
  endfacet
  facet normal 0.994522 -0.104529 0
    outer loop
      vertex 10.1727 -2.16228 6
      vertex 10.4 0 0
      vertex 10.4 0 6
    endloop
  endfacet
  facet normal 0.994522 -0.104529 0
    outer loop
      vertex 10.4 0 0
      vertex 10.1727 -2.16228 6
      vertex 10.1727 -2.16228 0
    endloop
  endfacet
  facet normal 0 0 -1
    outer loop
      vertex 10.1727 -2.16228 0
      vertex 8.48187 -1.93593 0
      vertex 8.7 0 0
    endloop
  endfacet
  facet normal 0 0 -1
    outer loop
      vertex 7.83843 -3.77479 0
      vertex 9.50087 -4.23006 0
      vertex 8.41378 -6.11297 0
    endloop
  endfacet
  facet normal 0 0 -1
    outer loop
      vertex 9.50087 -4.23006 0
      vertex 7.83843 -3.77479 0
      vertex 8.48187 -1.93593 0
    endloop
  endfacet
  facet normal 0 0 -1
    outer loop
      vertex 6.80193 -5.42436 0
      vertex 8.41378 -6.11297 0
      vertex 6.95896 -7.72871 0
    endloop
  endfacet
  facet normal 0 0 -1
    outer loop
      vertex 8.41378 -6.11297 0
      vertex 6.80193 -5.42436 0
      vertex 7.83843 -3.77479 0
    endloop
  endfacet
  facet normal 0 0 -1
    outer loop
      vertex 6.95896 -7.72871 0
      vertex 5.42436 -6.80193 0
      vertex 6.80193 -5.42436 0
    endloop
  endfacet
  facet normal 0 0 -1
    outer loop
      vertex 5.2 -9.00666 0
      vertex 5.42436 -6.80193 0
      vertex 6.95896 -7.72871 0
    endloop
  endfacet
  facet normal 0 0 -1
    outer loop
      vertex 5.2 -9.00666 0
      vertex 3.77479 -7.83843 0
      vertex 5.42436 -6.80193 0
    endloop
  endfacet
  facet normal 0 0 -1
    outer loop
      vertex 3.21378 -9.89099 0
      vertex 3.77479 -7.83843 0
      vertex 5.2 -9.00666 0
    endloop
  endfacet
  facet normal 0 0 -1
    outer loop
      vertex 3.21378 -9.89099 0
      vertex 1.93593 -8.48187 0
      vertex 3.77479 -7.83843 0
    endloop
  endfacet
  facet normal 0 0 -1
    outer loop
      vertex 1.0871 -10.343 0
      vertex 1.93593 -8.48187 0
      vertex 3.21378 -9.89099 0
    endloop
  endfacet
  facet normal 0 0 -1
    outer loop
      vertex 1.0871 -10.343 0
      vertex 0 -8.7 0
      vertex 1.93593 -8.48187 0
    endloop
  endfacet
  facet normal 0 0 -1
    outer loop
      vertex -1.0871 -10.343 0
      vertex 0 -8.7 0
      vertex 1.0871 -10.343 0
    endloop
  endfacet
  facet normal 0 0 -1
    outer loop
      vertex -1.0871 -10.343 0
      vertex -1.93593 -8.48187 0
      vertex 0 -8.7 0
    endloop
  endfacet
  facet normal 0 0 -1
    outer loop
      vertex -3.21378 -9.89099 0
      vertex -1.93593 -8.48187 0
      vertex -1.0871 -10.343 0
    endloop
  endfacet
  facet normal 0 0 -1
    outer loop
      vertex -3.21378 -9.89099 0
      vertex -3.77479 -7.83843 0
      vertex -1.93593 -8.48187 0
    endloop
  endfacet
  facet normal 0 0 -1
    outer loop
      vertex -5.2 -9.00666 0
      vertex -3.77479 -7.83843 0
      vertex -3.21378 -9.89099 0
    endloop
  endfacet
  facet normal 0 0 -1
    outer loop
      vertex -5.2 -9.00666 0
      vertex -5.42436 -6.80193 0
      vertex -3.77479 -7.83843 0
    endloop
  endfacet
  facet normal 0 0 -1
    outer loop
      vertex -6.95896 -7.72871 0
      vertex -5.42436 -6.80193 0
      vertex -5.2 -9.00666 0
    endloop
  endfacet
  facet normal -0 0 -1
    outer loop
      vertex -5.42436 -6.80193 0
      vertex -6.95896 -7.72871 0
      vertex -6.80193 -5.42436 0
    endloop
  endfacet
  facet normal 0 0 -1
    outer loop
      vertex -8.41378 -6.11297 0
      vertex -6.80193 -5.42436 0
      vertex -6.95896 -7.72871 0
    endloop
  endfacet
  facet normal -0 0 -1
    outer loop
      vertex -6.80193 -5.42436 0
      vertex -8.41378 -6.11297 0
      vertex -7.83843 -3.77479 0
    endloop
  endfacet
  facet normal 0 0 -1
    outer loop
      vertex -9.50087 -4.23006 0
      vertex -7.83843 -3.77479 0
      vertex -8.41378 -6.11297 0
    endloop
  endfacet
  facet normal -0 0 -1
    outer loop
      vertex -7.83843 -3.77479 0
      vertex -9.50087 -4.23006 0
      vertex -8.48187 -1.93593 0
    endloop
  endfacet
  facet normal 0 0 -1
    outer loop
      vertex -10.1727 -2.16228 0
      vertex -8.48187 -1.93593 0
      vertex -9.50087 -4.23006 0
    endloop
  endfacet
  facet normal -0 0 -1
    outer loop
      vertex -8.48187 -1.93593 0
      vertex -10.1727 -2.16228 0
      vertex -8.7 0 0
    endloop
  endfacet
  facet normal -0 0 -1
    outer loop
      vertex -8.7 0 0
      vertex -10.1727 -2.16228 0
      vertex -10.4 0 0
    endloop
  endfacet
  facet normal 0 0 -1
    outer loop
      vertex -8.7 0 0
      vertex -10.4 0 0
      vertex -8.7 100 0
    endloop
  endfacet
  facet normal -0 0 -1
    outer loop
      vertex -8.7 100 0
      vertex -10.4 0 0
      vertex -10.4 100 0
    endloop
  endfacet
  facet normal 0 0 -1
    outer loop
      vertex 8.7 0 0
      vertex 10.4 0 0
      vertex 10.1727 -2.16228 0
    endloop
  endfacet
  facet normal 0 0 -1
    outer loop
      vertex 8.48187 -1.93593 0
      vertex 10.1727 -2.16228 0
      vertex 9.50087 -4.23006 0
    endloop
  endfacet
  facet normal 0 0 -1
    outer loop
      vertex 10.4 0 0
      vertex 8.7 0 0
      vertex 10.4 100 0
    endloop
  endfacet
  facet normal -0 0 -1
    outer loop
      vertex 10.4 100 0
      vertex 8.7 0 0
      vertex 8.7 100 0
    endloop
  endfacet
  facet normal 0.207912 -0.978148 0
    outer loop
      vertex 1.0871 -10.343 0
      vertex 3.21378 -9.89099 6
      vertex 1.0871 -10.343 6
    endloop
  endfacet
  facet normal 0.207912 -0.978148 0
    outer loop
      vertex 3.21378 -9.89099 6
      vertex 1.0871 -10.343 0
      vertex 3.21378 -9.89099 0
    endloop
  endfacet
  facet normal 0.866025 -0.5 0
    outer loop
      vertex 8.41378 -6.11297 6
      vertex 9.50087 -4.23006 0
      vertex 9.50087 -4.23006 6
    endloop
  endfacet
  facet normal 0.866025 -0.5 0
    outer loop
      vertex 9.50087 -4.23006 0
      vertex 8.41378 -6.11297 6
      vertex 8.41378 -6.11297 0
    endloop
  endfacet
  facet normal -0.866025 -0.5 0
    outer loop
      vertex -8.41378 -6.11297 0
      vertex -9.50087 -4.23006 6
      vertex -9.50087 -4.23006 0
    endloop
  endfacet
  facet normal -0.866025 -0.5 0
    outer loop
      vertex -9.50087 -4.23006 6
      vertex -8.41378 -6.11297 0
      vertex -8.41378 -6.11297 6
    endloop
  endfacet
  facet normal -0.994522 -0.104529 0
    outer loop
      vertex -10.1727 -2.16228 0
      vertex -10.4 0 6
      vertex -10.4 0 0
    endloop
  endfacet
  facet normal -0.994522 -0.104529 0
    outer loop
      vertex -10.4 0 6
      vertex -10.1727 -2.16228 0
      vertex -10.1727 -2.16228 6
    endloop
  endfacet
  facet normal 0.587785 -0.809017 0
    outer loop
      vertex 5.2 -9.00666 0
      vertex 6.95896 -7.72871 6
      vertex 5.2 -9.00666 6
    endloop
  endfacet
  facet normal 0.587785 -0.809017 0
    outer loop
      vertex 6.95896 -7.72871 6
      vertex 5.2 -9.00666 0
      vertex 6.95896 -7.72871 0
    endloop
  endfacet
  facet normal 0.406737 -0.913545 0
    outer loop
      vertex 3.21378 -9.89099 0
      vertex 5.2 -9.00666 6
      vertex 3.21378 -9.89099 6
    endloop
  endfacet
  facet normal 0.406737 -0.913545 0
    outer loop
      vertex 5.2 -9.00666 6
      vertex 3.21378 -9.89099 0
      vertex 5.2 -9.00666 0
    endloop
  endfacet
  facet normal 0.951057 -0.309017 0
    outer loop
      vertex 9.50087 -4.23006 6
      vertex 10.1727 -2.16228 0
      vertex 10.1727 -2.16228 6
    endloop
  endfacet
  facet normal 0.951057 -0.309017 0
    outer loop
      vertex 10.1727 -2.16228 0
      vertex 9.50087 -4.23006 6
      vertex 9.50087 -4.23006 0
    endloop
  endfacet
  facet normal -0.743145 -0.669131 0
    outer loop
      vertex -6.95896 -7.72871 0
      vertex -8.41378 -6.11297 6
      vertex -8.41378 -6.11297 0
    endloop
  endfacet
  facet normal -0.743145 -0.669131 0
    outer loop
      vertex -8.41378 -6.11297 6
      vertex -6.95896 -7.72871 0
      vertex -6.95896 -7.72871 6
    endloop
  endfacet
  facet normal -0.951057 -0.309017 0
    outer loop
      vertex -9.50087 -4.23006 0
      vertex -10.1727 -2.16228 6
      vertex -10.1727 -2.16228 0
    endloop
  endfacet
  facet normal -0.951057 -0.309017 0
    outer loop
      vertex -10.1727 -2.16228 6
      vertex -9.50087 -4.23006 0
      vertex -9.50087 -4.23006 6
    endloop
  endfacet
  facet normal 0.743145 -0.669131 0
    outer loop
      vertex 6.95896 -7.72871 6
      vertex 8.41378 -6.11297 0
      vertex 8.41378 -6.11297 6
    endloop
  endfacet
  facet normal 0.743145 -0.669131 0
    outer loop
      vertex 8.41378 -6.11297 0
      vertex 6.95896 -7.72871 6
      vertex 6.95896 -7.72871 0
    endloop
  endfacet
  facet normal -0.587785 -0.809017 0
    outer loop
      vertex -6.95896 -7.72871 0
      vertex -5.2 -9.00666 6
      vertex -6.95896 -7.72871 6
    endloop
  endfacet
  facet normal -0.587785 -0.809017 -0
    outer loop
      vertex -5.2 -9.00666 6
      vertex -6.95896 -7.72871 0
      vertex -5.2 -9.00666 0
    endloop
  endfacet
  facet normal -0.406737 -0.913545 0
    outer loop
      vertex -5.2 -9.00666 0
      vertex -3.21378 -9.89099 6
      vertex -5.2 -9.00666 6
    endloop
  endfacet
  facet normal -0.406737 -0.913545 -0
    outer loop
      vertex -3.21378 -9.89099 6
      vertex -5.2 -9.00666 0
      vertex -3.21378 -9.89099 0
    endloop
  endfacet
  facet normal -0.207912 -0.978148 0
    outer loop
      vertex -3.21378 -9.89099 0
      vertex -1.0871 -10.343 6
      vertex -3.21378 -9.89099 6
    endloop
  endfacet
  facet normal -0.207912 -0.978148 -0
    outer loop
      vertex -1.0871 -10.343 6
      vertex -3.21378 -9.89099 0
      vertex -1.0871 -10.343 0
    endloop
  endfacet
  facet normal -1 0 0
    outer loop
      vertex -10.4 0 0
      vertex -10.4 100 6
      vertex -10.4 100 0
    endloop
  endfacet
  facet normal -1 -0 0
    outer loop
      vertex -10.4 100 6
      vertex -10.4 0 0
      vertex -10.4 0 6
    endloop
  endfacet
  facet normal 1 -0 0
    outer loop
      vertex 10.4 0 6
      vertex 10.4 100 0
      vertex 10.4 100 6
    endloop
  endfacet
  facet normal 1 0 0
    outer loop
      vertex 10.4 100 0
      vertex 10.4 0 6
      vertex 10.4 0 0
    endloop
  endfacet
  facet normal 0 1 -0
    outer loop
      vertex 10.4 100 0
      vertex 8.7 100 6
      vertex 10.4 100 6
    endloop
  endfacet
  facet normal 0 1 0
    outer loop
      vertex 8.7 100 6
      vertex 10.4 100 0
      vertex 8.7 100 0
    endloop
  endfacet
  facet normal 0 1 -0
    outer loop
      vertex -8.7 100 0
      vertex -10.4 100 6
      vertex -8.7 100 6
    endloop
  endfacet
  facet normal 0 1 0
    outer loop
      vertex -10.4 100 6
      vertex -8.7 100 0
      vertex -10.4 100 0
    endloop
  endfacet
  facet normal 0.111965 0.993712 -0
    outer loop
      vertex 0 -8.7 0
      vertex -1.93593 -8.48187 6
      vertex 0 -8.7 6
    endloop
  endfacet
  facet normal 0.111965 0.993712 0
    outer loop
      vertex -1.93593 -8.48187 6
      vertex 0 -8.7 0
      vertex -1.93593 -8.48187 0
    endloop
  endfacet
  facet normal -0.846724 0.532032 0
    outer loop
      vertex 6.80193 -5.42436 0
      vertex 7.83843 -3.77479 6
      vertex 7.83843 -3.77479 0
    endloop
  endfacet
  facet normal -0.846724 0.532032 0
    outer loop
      vertex 7.83843 -3.77479 6
      vertex 6.80193 -5.42436 0
      vertex 6.80193 -5.42436 6
    endloop
  endfacet
  facet normal 0.993712 0.111965 0
    outer loop
      vertex -8.48187 -1.93593 6
      vertex -8.7 0 0
      vertex -8.7 0 6
    endloop
  endfacet
  facet normal 0.993712 0.111965 0
    outer loop
      vertex -8.7 0 0
      vertex -8.48187 -1.93593 6
      vertex -8.48187 -1.93593 0
    endloop
  endfacet
  facet normal -0.111965 0.993712 0
    outer loop
      vertex 1.93593 -8.48187 0
      vertex 0 -8.7 6
      vertex 1.93593 -8.48187 6
    endloop
  endfacet
  facet normal -0.111965 0.993712 0
    outer loop
      vertex 0 -8.7 6
      vertex 1.93593 -8.48187 0
      vertex 0 -8.7 0
    endloop
  endfacet
  facet normal -0.532032 0.846724 0
    outer loop
      vertex 5.42436 -6.80193 0
      vertex 3.77479 -7.83843 6
      vertex 5.42436 -6.80193 6
    endloop
  endfacet
  facet normal -0.532032 0.846724 0
    outer loop
      vertex 3.77479 -7.83843 6
      vertex 5.42436 -6.80193 0
      vertex 3.77479 -7.83843 0
    endloop
  endfacet
  facet normal 0.707107 0.707107 0
    outer loop
      vertex -5.42436 -6.80193 6
      vertex -6.80193 -5.42436 0
      vertex -6.80193 -5.42436 6
    endloop
  endfacet
  facet normal 0.707107 0.707107 0
    outer loop
      vertex -6.80193 -5.42436 0
      vertex -5.42436 -6.80193 6
      vertex -5.42436 -6.80193 0
    endloop
  endfacet
  facet normal 0.330279 0.943883 -0
    outer loop
      vertex -1.93593 -8.48187 0
      vertex -3.77479 -7.83843 6
      vertex -1.93593 -8.48187 6
    endloop
  endfacet
  facet normal 0.330279 0.943883 0
    outer loop
      vertex -3.77479 -7.83843 6
      vertex -1.93593 -8.48187 0
      vertex -3.77479 -7.83843 0
    endloop
  endfacet
  facet normal 0.943883 0.330279 0
    outer loop
      vertex -7.83843 -3.77479 6
      vertex -8.48187 -1.93593 0
      vertex -8.48187 -1.93593 6
    endloop
  endfacet
  facet normal 0.943883 0.330279 0
    outer loop
      vertex -8.48187 -1.93593 0
      vertex -7.83843 -3.77479 6
      vertex -7.83843 -3.77479 0
    endloop
  endfacet
  facet normal -0.330279 0.943883 0
    outer loop
      vertex 3.77479 -7.83843 0
      vertex 1.93593 -8.48187 6
      vertex 3.77479 -7.83843 6
    endloop
  endfacet
  facet normal -0.330279 0.943883 0
    outer loop
      vertex 1.93593 -8.48187 6
      vertex 3.77479 -7.83843 0
      vertex 1.93593 -8.48187 0
    endloop
  endfacet
  facet normal -0.707107 0.707107 0
    outer loop
      vertex 5.42436 -6.80193 0
      vertex 6.80193 -5.42436 6
      vertex 6.80193 -5.42436 0
    endloop
  endfacet
  facet normal -0.707107 0.707107 0
    outer loop
      vertex 6.80193 -5.42436 6
      vertex 5.42436 -6.80193 0
      vertex 5.42436 -6.80193 6
    endloop
  endfacet
  facet normal -0.943883 0.330279 0
    outer loop
      vertex 7.83843 -3.77479 0
      vertex 8.48187 -1.93593 6
      vertex 8.48187 -1.93593 0
    endloop
  endfacet
  facet normal -0.943883 0.330279 0
    outer loop
      vertex 8.48187 -1.93593 6
      vertex 7.83843 -3.77479 0
      vertex 7.83843 -3.77479 6
    endloop
  endfacet
  facet normal -0.993712 0.111965 0
    outer loop
      vertex 8.48187 -1.93593 0
      vertex 8.7 0 6
      vertex 8.7 0 0
    endloop
  endfacet
  facet normal -0.993712 0.111965 0
    outer loop
      vertex 8.7 0 6
      vertex 8.48187 -1.93593 0
      vertex 8.48187 -1.93593 6
    endloop
  endfacet
  facet normal 0.532032 0.846724 -0
    outer loop
      vertex -3.77479 -7.83843 0
      vertex -5.42436 -6.80193 6
      vertex -3.77479 -7.83843 6
    endloop
  endfacet
  facet normal 0.532032 0.846724 0
    outer loop
      vertex -5.42436 -6.80193 6
      vertex -3.77479 -7.83843 0
      vertex -5.42436 -6.80193 0
    endloop
  endfacet
  facet normal 0.846724 0.532032 0
    outer loop
      vertex -6.80193 -5.42436 6
      vertex -7.83843 -3.77479 0
      vertex -7.83843 -3.77479 6
    endloop
  endfacet
  facet normal 0.846724 0.532032 0
    outer loop
      vertex -7.83843 -3.77479 0
      vertex -6.80193 -5.42436 6
      vertex -6.80193 -5.42436 0
    endloop
  endfacet
  facet normal 1 -0 0
    outer loop
      vertex -8.7 0 6
      vertex -8.7 100 0
      vertex -8.7 100 6
    endloop
  endfacet
  facet normal 1 0 0
    outer loop
      vertex -8.7 100 0
      vertex -8.7 0 6
      vertex -8.7 0 0
    endloop
  endfacet
  facet normal -1 0 0
    outer loop
      vertex 8.7 0 0
      vertex 8.7 100 6
      vertex 8.7 100 0
    endloop
  endfacet
  facet normal -1 -0 0
    outer loop
      vertex 8.7 100 6
      vertex 8.7 0 0
      vertex 8.7 0 6
    endloop
  endfacet
endsolid OpenSCAD_Model
